<svg xmlns="http://www.w3.org/2000/svg" xml:space="preserve" width="1500" height="246" viewBox="0 0 1500 246" data-version="1" data-id="lg_387833ZPpXx4MXQqlr"><g id="outer-wrapper" data-padding="20" transform="matrix(1,0,0,1,0,0)"><g id="inner-wrapper" transform="matrix(0.9709302325581395,0,0,0.9709302325581395,10,3.5755813953488484)"><path fill="#9edc29" d="M543.1580787335827 42.3366485756348A82.459 82.459 0 1 0 543.1580787335827 207.2546485756348A82.459 82.459 0 1 0 543.1580787335827 42.3366485756348 "></path><rect width="377.457" height="159.33" x="192.09007873358252" y="-354.8693514243652" fill="none" rx="0" ry="0" transform="translate(491.77 399.56)"></rect><path fill="#9edc29" d="M735.3280787335825 171.0456485756348Q721.6480787335826 171.0456485756348 710.6480787335826 165.4056485756348Q699.6580787335826 159.76564857563483 693.2380787335826 148.77564857563482Q686.8180787335825 137.77564857563482 686.8180787335825 121.9856485756348Q686.8180787335825 110.13564857563478 690.6980787335825 100.9756485756348Q694.5780787335825 91.80564857563479 701.4180787335825 85.53564857563481Q708.2580787335826 79.25564857563484 717.1380787335826 76.08564857563482T736.0280787335826 72.9156485756348Q743.7880787335826 72.9156485756348 750.5580787335825 74.6756485756348Q757.3180787335825 76.43564857563479 763.5280787335826 79.82564857563477L764.0880787335825 98.2956485756348H760.2880787335826L754.3580787335825 87.15564857563481Q752.9480787335825 84.33564857563482 751.3280787335825 82.07564857563483Q749.7080787335826 79.82564857563483 747.1680787335825 78.83564857563482Q743.6480787335826 77.14564857563482 738.8480787335825 77.14564857563482Q730.5280787335826 77.14564857563482 723.6980787335826 81.37564857563484Q716.8580787335826 85.60564857563486 712.7680787335826 95.40564857563481T708.6780787335827 122.12564857563484Q708.6780787335827 138.9056485756348 712.5580787335825 148.77564857563482Q716.4280787335827 158.64564857563482 723.0580787335825 162.8056485756348T738.0080787335826 166.96564857563482Q741.8080787335825 166.96564857563482 744.2080787335826 166.39564857563482Q746.6080787335825 165.83564857563482 749.0080787335826 164.8456485756348Q751.8280787335825 163.71564857563482 753.3780787335826 161.5356485756348Q754.9280787335827 159.3456485756348 756.0580787335825 156.52564857563482L761.4080787335827 143.69564857563483H765.2180787335826L764.6580787335827 163.99564857563485Q758.5880787335826 167.38564857563483 751.2580787335826 169.21564857563487T735.3280787335826 171.04564857563486M804.9680787335826 168.65564857563487H772.1180787335826V165.97564857563486L774.2280787335826 165.40564857563487Q778.8880787335827 163.85564857563486 778.8880787335827 158.35564857563486Q778.8880787335827 153.56564857563484 778.9580787335826 148.70564857563488Q779.0280787335826 143.83564857563488 779.0280787335826 139.04564857563486V85.46564857563487Q779.0280787335826 82.5056485756349 778.0380787335826 81.02564857563488T774.2280787335826 78.83564857563488L772.1180787335826 78.27564857563488V75.59564857563487L796.7880787335826 69.67564857563485L798.6280787335826 70.93564857563484L798.0580787335825 90.82564857563483V158.35564857563486Q798.1980787335826 161.17564857563485 799.2580787335826 162.94564857563483Q800.3180787335825 164.70564857563483 802.9980787335826 165.4056485756348L804.9680787335826 165.9756485756348ZM831.7680787335826 170.6256485756349Q823.7380787335826 170.6256485756349 818.1680787335827 166.0456485756349T812.5980787335826 152.8656485756349Q812.5980787335826 146.09564857563493 819.1480787335827 140.3856485756349Q825.7080787335826 134.6756485756349 839.8080787335826 131.9956485756349Q842.2080787335826 131.4256485756349 845.3780787335827 130.9356485756349T851.6480787335827 129.8756485756349V119.8656485756349Q851.6480787335827 110.27564857563493 849.2580787335826 106.6156485756349Q846.8580787335827 102.94564857563489 841.6380787335827 102.94564857563489H841.2180787335826Q837.9780787335826 102.94564857563489 836.0680787335826 104.9956485756349Q834.1680787335827 107.03564857563492 833.6080787335827 111.6856485756349L833.1780787335827 113.52564857563488Q832.7580787335826 119.16564857563486 830.2180787335826 121.76564857563488Q827.6780787335827 124.3756485756349 823.8780787335827 124.3756485756349Q820.3480787335827 124.3756485756349 818.0180787335827 122.19564857563489Q815.6980787335826 120.0056485756349 815.6980787335826 116.48564857563491Q815.6980787335826 110.70564857563494 819.6480787335827 106.7556485756349Q823.5880787335827 102.8056485756349 830.1480787335827 100.83564857563488Q836.7080787335826 98.85564857563486 844.3180787335828 98.85564857563486Q856.8680787335827 98.85564857563486 863.4980787335827 104.92564857563485Q870.1180787335827 110.98564857563485 870.1180787335827 124.66564857563486V156.10564857563486Q870.1180787335827 162.16564857563486 875.9080787335827 162.16564857563486H879.1480787335827L880.5580787335828 163.71564857563487Q878.0180787335828 166.96564857563487 874.9180787335828 168.72564857563486T866.4580787335829 170.48564857563485Q860.3980787335828 170.48564857563485 856.7980787335828 167.59564857563487T852.0780787335827 159.91564857563486Q847.5580787335828 164.70564857563488 843.1880787335828 167.66564857563486T831.7680787335828 170.62564857563484M839.9480787335827 161.60564857563486Q842.7680787335828 161.60564857563486 845.3080787335828 160.33564857563488T851.6480787335827 156.10564857563486V133.54564857563486Q847.9880787335827 134.10564857563486 844.1780787335827 134.95564857563488Q838.1180787335827 136.3656485756349 834.3780787335827 140.1756485756349Q830.6380787335827 143.97564857563492 830.6380787335827 150.46564857563493Q830.6380787335827 156.10564857563492 833.2480787335827 158.85564857563492T839.9480787335826 161.60564857563492M919.0480787335828 168.65564857563493H883.7980787335828V165.97564857563492L885.9180787335827 165.26564857563494Q888.7380787335827 164.56564857563495 889.7880787335828 162.87564857563495Q890.8480787335827 161.17564857563497 890.8480787335827 158.35564857563497V117.04564857563497Q890.7080787335827 113.94564857563495 889.7180787335827 112.32564857563494Q888.7380787335827 110.70564857563494 885.9180787335827 110.13564857563495L883.7980787335828 109.57564857563494V107.03564857563492L906.7780787335828 98.85564857563492L908.4780787335828 100.40564857563493L909.7480787335828 112.81564857563495V113.80564857563496Q911.8580787335827 109.85564857563497 915.0980787335827 106.47564857563498Q918.3480787335827 103.08564857563499 922.1480787335827 100.97564857563498Q925.9580787335826 98.85564857563497 929.7680787335828 98.85564857563497Q935.1280787335827 98.85564857563497 937.7980787335828 101.67564857563497Q940.4780787335826 104.49564857563496 940.4780787335826 108.86564857563496Q940.4780787335826 113.66564857563498 937.7980787335828 116.12564857563495Q935.1280787335827 118.59564857563498 931.3180787335828 118.59564857563498Q925.6780787335827 118.59564857563498 921.5880787335827 113.52564857563499L921.3080787335828 113.23564857563497Q919.8980787335827 111.54564857563497 918.1280787335827 111.33564857563499Q916.3680787335827 111.12564857563501 914.6780787335827 113.09564857563498Q913.2680787335828 114.505648575635 912.0680787335828 116.41564857563498Q910.8680787335827 118.31564857563495 909.8880787335827 120.85564857563497V157.7956485756348Q909.8880787335827 160.4756485756348 911.0080787335828 162.2356485756348Q912.1380787335827 163.9956485756348 914.8180787335828 164.70564857563483L919.0480787335828 165.9756485756348ZM961.4780787335826 91.10564857563492Q956.8280787335827 91.10564857563492 953.5880787335827 88.14564857563494Q950.3380787335827 85.18564857563496 950.3380787335827 80.66564857563492Q950.3380787335827 76.01564857563494 953.5880787335827 73.1256485756349Q956.8280787335827 70.23564857563491 961.4780787335826 70.23564857563491Q966.1380787335827 70.23564857563491 969.3780787335827 73.1256485756349T972.6180787335827 80.66564857563492Q972.6180787335827 85.1856485756349 969.3780787335827 88.14564857563494T961.4780787335826 91.10564857563492M977.5580787335828 168.65564857563493H945.2680787335828V165.97564857563492L947.3780787335827 165.40564857563493Q950.1980787335829 164.56564857563495 951.1880787335826 162.87564857563495Q952.1780787335827 161.17564857563497 952.3180787335828 158.35564857563497V124.30564857563496Q952.3180787335828 120.57564857563494 952.1780787335827 116.62564857563495Q952.1780787335827 113.80564857563496 951.1180787335827 112.18564857563496T947.2380787335828 109.99564857563496L945.2680787335828 109.57564857563494V107.03564857563492L969.9380787335826 98.85564857563492L971.6280787335827 100.40564857563493L971.2080787335829 120.4356485756349V158.5056485756349Q971.2080787335829 161.3256485756349 972.2680787335828 163.01564857563488T976.0080787335828 165.5556485756349L977.5580787335828 165.97564857563492ZM1020.2880787335828 168.64564857563494H983.9080787335827V165.96564857563493L986.0280787335828 165.39564857563494Q991.6680787335827 163.84564857563493 991.8080787335828 158.49564857563496Q991.8080787335828 153.55564857563496 991.8780787335827 148.69564857563495Q991.9480787335829 143.82564857563494 991.9480787335829 139.03564857563492V105.33564857563493H983.9080787335829V102.23564857563491L987.0080787335828 101.66564857563492Q989.828078733583 101.2456485756349 991.098078733583 99.6256485756349T992.9380787335829 95.04564857563491Q994.4880787335828 89.40564857563493 997.088078733583 85.2456485756349Q999.6980787335829 81.08564857563488 1003.3680787335829 77.5556485756349Q1008.588078733583 72.48564857563491 1014.5080787335828 70.5056485756349Q1020.4280787335829 68.53564857563487 1026.0680787335828 68.53564857563487Q1031.5680787335828 68.53564857563487 1036.148078733583 70.71564857563487Q1040.7280787335828 72.90564857563487 1040.7280787335828 78.1256485756349Q1040.7280787335828 81.78564857563492 1038.548078733583 83.97564857563492Q1036.358078733583 86.15564857563493 1032.268078733583 86.15564857563493Q1025.788078733583 86.15564857563493 1020.848078733583 78.54564857563491L1019.1580787335829 76.5656485756349Q1017.4680787335828 74.45564857563488 1015.778078733583 74.8756485756349Q1014.088078733583 75.3056485756349 1013.3780787335829 77.69564857563489Q1012.248078733583 82.20564857563488 1011.6180787335829 88.27564857563488Q1010.9780787335831 94.33564857563488 1010.838078733583 100.96564857563487H1027.058078733583V105.33564857563488H1010.838078733583V139.03564857563487Q1010.838078733583 143.8256485756349 1010.9080787335831 148.54564857563486Q1010.9780787335831 153.27564857563488 1010.9780787335831 158.06564857563484Q1010.9780787335831 163.70564857563483 1016.6180787335832 164.97564857563486L1020.288078733583 165.96564857563487Z "></path><path fill="#9edc29" d="M1048.1980787335824 91.1056485756348Q1043.5380787335826 91.1056485756348 1040.2980787335825 88.14564857563482T1037.0580787335825 80.6656485756348Q1037.0580787335825 76.01564857563483 1040.2980787335825 73.12564857563478T1048.1980787335824 70.2356485756348Q1052.8480787335825 70.2356485756348 1056.0880787335825 73.12564857563478Q1059.3380787335825 76.01564857563477 1059.3380787335825 80.6656485756348Q1059.3380787335825 85.18564857563479 1056.0880787335825 88.14564857563482Q1052.8480787335825 91.1056485756348 1048.1980787335824 91.1056485756348M1064.2680787335826 168.6556485756348H1031.9780787335826V165.9756485756348L1034.0980787335825 165.4056485756348Q1036.9180787335827 164.56564857563484 1037.8980787335827 162.87564857563484Q1038.8880787335825 161.17564857563485 1039.0280787335826 158.35564857563486V124.30564857563485Q1039.0280787335826 120.57564857563483 1038.8880787335825 116.62564857563484Q1038.8880787335825 113.80564857563485 1037.8280787335825 112.18564857563484Q1036.7780787335828 110.56564857563484 1033.9580787335826 109.99564857563485L1031.9780787335826 109.57564857563483V107.03564857563481L1056.6580787335824 98.8556485756348L1058.3480787335825 100.40564857563481L1057.9280787335827 120.43564857563479V158.50564857563478Q1057.9280787335827 161.32564857563477 1058.9780787335826 163.01564857563477Q1060.0380787335826 164.70564857563477 1062.7180787335826 165.5556485756348L1064.2680787335826 165.9756485756348Z "></path><g fill="#9edc29" paint-order="stroke"><path d="M631.9880787335826 77.99664857563482A86 86 0 0 0 629.2880787335826 86.82564857563483C634.8500787335826 90.22764857563482 641.0600787335826 92.41464857563483 646.5950787335826 95.8436485756348C649.6850787335825 85.1706485756348 644.8750787335825 73.79364857563479 635.0660787335826 68.57364857563482A97 97 0 0 1 632.0960787335825 77.99664857563482ZM633.0950787335826 85.20564857563483C634.2290787335826 81.37164857563482 635.7950787335826 77.64564857563482 636.9560787335826 73.8386485756348A20.52 20.52 0 0 1 644.1110787335825 90.6056485756348C640.4660787335825 88.71564857563482 636.6590787335825 87.17664857563483 633.0950787335826 85.20564857563483C633.6350787335825 83.23464857563482 633.2030787335825 85.20564857563483 633.0950787335826 85.20564857563483M631.6910787335826 163.88364857563482L629.3150787335826 159.1316485756348A26.2 26.2 0 0 0 618.5150787335825 171.68664857563482C623.5370787335826 170.60664857563484 628.6400787335825 169.9856485756348 633.5810787335826 168.52764857563483Q632.6090787335825 166.0166485756348 631.5830787335825 163.88364857563482C630.5570787335826 161.75064857563484 632.3390787335825 165.28764857563482 631.6910787335826 163.88364857563482M628.9910787335825 166.2326485756348C627.6680787335825 166.52964857563484 626.4530787335825 166.77264857563483 625.1030787335826 167.01564857563483A21.6 21.6 0 0 1 627.9920787335825 164.09964857563483Q628.5320787335826 165.15264857563483 629.0180787335826 166.2326485756348C628.7750787335826 166.2326485756348 628.9640787335826 165.9356485756348 629.0990787335826 166.2326485756348ZM630.3950787335825 102.86364857563478A27 27 0 0 0 635.9570787335825 110.9636485756348A86 86 0 0 0 642.6800787335826 102.86364857563478C638.1980787335825 100.1636485756348 633.2570787335826 98.11164857563477 628.5590787335825 95.6276485756348A29.7 29.7 0 0 0 630.3950787335825 102.86364857563478M633.6080787335825 102.10764857563481C634.5800787335826 102.56664857563482 636.4700787335826 103.48464857563482 637.6310787335826 104.1056485756348Q636.8210787335826 105.13164857563481 635.9300787335826 106.04964857563482A21.6 21.6 0 0 1 633.6080787335826 102.10764857563481C634.6070787335825 102.53964857563483 633.7970787335826 102.29664857563483 633.6080787335826 102.10764857563481M454.1930787335826 129.89064857563483A33.75 33.75 0 0 1 463.3190787335826 155.4056485756348A34.3 34.3 0 0 1 475.0100787335826 181.29864857563484A34.56 34.56 0 0 1 502.3610787335826 202.62864857563483A34.02 34.02 0 0 1 530.7380787335826 207.24564857563485A34.56 34.56 0 0 1 559.0070787335826 209.94564857563483A34.83 34.83 0 0 1 591.1370787335826 196.93164857563482A35.1 35.1 0 0 1 609.3350787335826 174.7376485756348A34.3 34.3 0 0 1 625.9130787335826 151.67964857563481A34.56 34.56 0 0 1 630.6650787335826 117.33564857563482A34.29 34.29 0 0 1 620.3510787335827 90.6056485756348A34.3 34.3 0 0 1 608.6600787335826 64.71264857563483A34.56 34.56 0 0 1 581.3090787335826 43.382648575634846A34.02 34.02 0 0 1 552.9320787335826 38.76564857563483A35.1 35.1 0 0 1 524.6630787335826 36.06564857563484A34.83 34.83 0 0 1 492.5330787335826 49.07964857563485A35.1 35.1 0 0 1 474.33507873358263 71.27364857563487A34.3 34.3 0 0 1 457.7570787335826 94.33164857563486A34.56 34.56 0 0 1 453.0050787335826 128.67564857563485ZM457.3520787335826 128.4056485756348A37.53 37.53 0 0 0 461.9150787335826 95.7356485756348A37.8 37.8 0 0 0 477.3590787335826 73.54164857563478A36.72 36.72 0 0 0 494.9090787335826 52.562648575634796A36.99 36.99 0 0 0 525.4730787335826 40.169648575634824A36.72 36.72 0 0 0 552.4730787335826 42.437648575634796A37.8 37.8 0 0 0 579.4730787335826 47.135648575634775A37.53 37.53 0 0 0 605.5010787335825 67.41264857563476A37.8 37.8 0 0 0 617.0030787335826 91.90164857563474A37.8 37.8 0 0 0 626.3180787335825 117.60564857563475A37.53 37.53 0 0 0 621.7550787335826 150.27564857563476A37.8 37.8 0 0 0 606.3110787335826 172.46964857563478A36.72 36.72 0 0 0 588.7610787335826 193.44864857563476A36.99 36.99 0 0 0 558.1970787335827 205.84164857563474A36.45 36.45 0 0 0 531.1970787335827 203.57364857563476A37.8 37.8 0 0 0 504.1970787335826 198.87564857563478A37.53 37.53 0 0 0 478.16907873358264 178.5986485756348A37.8 37.8 0 0 0 466.6670787335826 154.10964857563482A37.8 37.8 0 0 0 457.35207873358263 128.4056485756348C457.9460787335826 127.54164857563484 458.13507873358265 129.2696485756348 457.35207873358263 128.4056485756348M464.6960787335826 180.59664857563484H466.8290787335826A27 27 0 0 0 461.29407873358264 165.01764857563484C459.7550787335826 169.90464857563484 457.7300787335826 174.65664857563485 456.5420787335826 179.67864857563484A78 78 0 0 0 464.6960787335826 180.59664857563484M463.1300787335826 177.14064857563483L460.83507873358263 177.00564857563484L462.1310787335826 173.22564857563486A19 19 0 0 1 463.2110787335826 177.16764857563487C462.6710787335826 177.0056485756349 463.1030787335826 177.0056485756349 463.1300787335826 177.14064857563488M484.6220787335826 216.7766485756349A30 30 0 0 1 481.6250787335826 217.20864857563492A23.76 23.76 0 0 0 500.95707873358265 223.14864857563492A105 105 0 0 1 497.31207873358267 213.0506485756349A89 89 0 0 1 484.6220787335826 216.8036485756349ZM490.5350787335826 218.7746485756349Q492.8570787335826 218.0996485756349 495.12507873358265 217.28964857563489C495.4490787335826 218.2886485756349 495.7190787335826 219.0986485756349 496.0700787335826 219.98964857563487A18.9 18.9 0 0 1 490.5350787335826 218.7746485756349C491.6420787335826 218.47764857563487 490.75107873358263 218.85564857563492 490.5350787335826 218.7746485756349M479.7350787335826 209.1356485756349A56.7 56.7 0 0 0 494.5040787335826 205.32864857563487A25.92 25.92 0 0 0 474.57807873358263 189.66864857563485C474.09207873358264 196.09464857563484 473.3090787335826 202.92564857563485 475.7660787335826 209.08164857563486A19 19 0 0 0 479.7080787335826 209.08164857563486ZM482.4350787335826 205.46364857563486A24.3 24.3 0 0 1 478.3310787335826 205.84164857563485A37.8 37.8 0 0 1 477.71007873358263 193.77264857563483A22.14 22.14 0 0 1 489.8870787335826 203.41164857563484A59 59 0 0 1 482.4350787335826 205.49064857563485ZM647.9990787335826 109.69464857563486C646.1360787335826 112.12464857563486 644.0570787335826 114.36564857563485 642.0050787335826 116.63364857563488A67.5 67.5 0 0 1 653.4800787335826 128.1356485756349A23.49 23.49 0 0 0 648.9440787335826 108.39864857563487L647.9720787335826 109.69464857563486ZM647.9990787335826 115.09464857563484L648.7820787335827 114.20364857563482A16.2 16.2 0 0 1 650.4020787335826 119.6036485756348A76 76 0 0 0 646.8380787335826 116.36364857563478L647.9450787335827 114.9326485756348ZM466.10007873358256 202.5476485756348A89 89 0 0 1 466.5050787335826 188.91264857563482C462.9140787335826 188.6966485756348 459.2960787335826 188.53464857563483 455.7050787335826 187.96764857563483A23.49 23.49 0 0 0 466.5050787335826 205.5986485756348Q466.2350787335826 204.00564857563478 466.10007873358256 202.5476485756348M462.9140787335826 192.04464857563482C462.7520787335826 194.0696485756348 462.6980787335826 195.17664857563483 462.6440787335826 197.4446485756348A16.2 16.2 0 0 1 459.8090787335826 192.04464857563482L462.9140787335826 192.26064857563483C462.8330787335826 192.74664857563482 462.1850787335826 191.99064857563485 462.9140787335826 192.01764857563484ZM617.5970787335825 194.50164857563482V200.06364857563483C628.3550787335826 197.3556485756348 635.7800787335825 187.52664857563485 635.4440787335826 176.43864857563483C629.3150787335826 178.2206485756348 622.8080787335825 178.59864857563485 616.7330787335826 180.54264857563481C616.8950787335826 185.1056485756348 617.1380787335826 189.8846485756348 617.5970787335826 194.50164857563482M620.2970787335826 183.1076485756348C624.2120787335825 182.1896485756348 628.2080787335826 181.64964857563479 632.1230787335826 180.7856485756348A21.6 21.6 0 0 1 621.1070787335826 195.41964857563482C620.9450787335826 191.31564857563484 620.3780787335826 187.3196485756348 620.2970787335826 183.1076485756348C620.2970787335826 183.08064857563483 620.1350787335825 183.2426485756348 620.1350787335825 183.1076485756348ZM606.6350787335825 211.6196485756348A24 24 0 0 0 608.0660787335826 208.4876485756348A100 100 0 0 1 597.4820787335826 206.57064857563483A67.5 67.5 0 0 1 593.2700787335826 222.25764857563485A25.1 25.1 0 0 0 606.6350787335826 211.61964857563487M603.0170787335826 211.1066485756349A18.9 18.9 0 0 1 599.1290787335827 215.23764857563492Q599.6960787335827 212.91564857563492 600.1550787335826 210.53964857563494ZM603.9350787335826 199.63164857563487Q606.6350787335826 200.11764857563486 609.3350787335826 200.44164857563487C609.5240787335827 195.0416485756349 608.7680787335826 189.88464857563486 608.5250787335826 184.59264857563488A26.2 26.2 0 0 0 599.2100787335826 198.6326485756349ZM603.5300787335826 196.14864857563487A21.6 21.6 0 0 1 605.7980787335827 192.17964857563487Q606.0140787335827 194.39364857563487 606.0680787335826 196.60764857563487L603.5030787335827 196.12164857563488C603.7460787335826 195.93264857563486 603.9350787335826 196.22964857563488 603.6110787335826 196.14864857563487ZM542.0240787335827 231.03264857563488L542.4020787335826 230.7626485756349C537.8390787335826 226.3346485756349 533.7620787335826 221.3126485756349 529.4690787335826 216.64164857563492C523.6910787335826 219.61164857563494 518.6690787335826 224.03964857563494 513.0260787335826 227.1446485756349A23.65 23.65 0 0 0 542.0240787335827 231.03264857563488M536.8940787335825 229.87164857563488A21.6 21.6 0 0 1 518.7230787335826 227.65764857563488C522.1790787335826 225.44364857563488 525.4460787335827 222.9596485756349 528.9560787335827 220.79964857563488C531.6560787335826 223.6886485756349 534.1670787335827 226.9286485756349 536.8940787335825 229.87164857563488C536.1920787335825 230.24964857563486 536.7050787335826 229.8176485756349 536.8940787335825 230.00664857563487ZM570.2390787335826 217.5056485756349A78.3 78.3 0 0 0 583.3070787335826 223.22964857563488C586.8440787335826 218.4506485756349 588.3290787335826 211.0796485756349 589.4090787335826 205.11264857563486A26.46 26.46 0 0 0 565.8920787335826 214.53564857563487Q568.0520787335827 216.04764857563487 570.2390787335826 217.5056485756349M570.9680787335826 213.9956485756349A22.68 22.68 0 0 1 585.4670787335826 208.21764857563488A43.2 43.2 0 0 1 581.7680787335826 219.50364857563488A43.2 43.2 0 0 1 570.9680787335826 214.1036485756349S571.3190787335826 214.2116485756349 570.9680787335826 213.96864857563492ZM575.2070787335826 229.76364857563487L575.6390787335827 229.54764857563487A70.2 70.2 0 0 1 561.2210787335827 221.17764857563486C559.2500787335827 224.20164857563486 557.3060787335826 227.25264857563485 555.0380787335827 230.06064857563484A23.76 23.76 0 0 0 575.2340787335827 229.73664857563483ZM566.5400787335826 228.76464857563485A18.9 18.9 0 0 1 560.3570787335826 228.49464857563487Q561.2480787335826 227.22564857563486 562.1120787335826 225.79464857563488Q564.2720787335827 227.2796485756349 566.5400787335826 228.6566485756349C566.3780787335827 228.7646485756349 565.7030787335826 228.3056485756349 566.5670787335827 228.7646485756349ZM540.1340787335827 216.12864857563483C542.8340787335826 219.23364857563485 545.5340787335826 222.41964857563482 548.3960787335826 225.28164857563485A95 95 0 0 0 554.3090787335826 216.80364857563484A26.46 26.46 0 0 0 538.1090787335827 213.8336485756348ZC540.8630787335826 216.9926485756348 539.4050787335826 215.26464857563485 540.1340787335827 216.12864857563483M545.5340787335826 217.18164857563482A21.6 21.6 0 0 1 549.5030787335827 218.20764857563483L548.1530787335827 220.17864857563484Q546.6950787335827 218.7206485756348 545.4530787335826 217.18164857563482ZM508.65207873358264 220.20564857563483C513.3500787335827 217.74864857563483 517.5080787335826 214.45464857563485 521.9360787335827 211.59264857563483A26.2 26.2 0 0 0 505.0880787335826 210.37764857563485A92 92 0 0 0 508.65207873358264 220.20564857563483C510.29907873358263 219.44964857563485 507.84207873358264 218.55864857563483 508.65207873358264 220.20564857563483M509.4350787335826 213.10464857563483A19 19 0 0 1 513.9980787335826 213.10464857563483Q512.1620787335826 214.40064857563482 510.29907873358263 215.56164857563482Q509.8400787335826 214.37364857563483 509.46207873358264 213.1316485756348C510.2180787335826 212.96964857563484 509.4350787335826 213.42864857563484 509.4350787335826 213.10464857563483M633.9050787335826 147.54864857563484C639.4670787335826 144.84864857563485 645.4610787335826 142.14864857563487 649.3490787335827 137.18064857563485C646.6490787335827 131.21364857563486 641.5460787335826 126.97464857563483 636.7400787335827 122.84364857563486A26.19 26.19 0 0 0 633.1490787335827 147.92664857563489ZM634.6880787335826 138.61164857563483A21.6 21.6 0 0 1 637.3880787335827 127.81164857563482A37.8 37.8 0 0 1 645.3260787335826 136.50564857563484A37.8 37.8 0 0 1 635.2010787335826 143.09364857563486A19 19 0 0 1 634.6880787335826 138.61164857563483 "></path><path d="M418.7150787335826 116.49864857563477A32.4 32.4 0 0 1 421.7660787335826 107.21064857563476A35.1 35.1 0 0 1 422.3870787335826 91.01064857563478L425.7350787335826 91.9016485756348A32.4 32.4 0 0 0 425.4110787335826 107.7236485756348A31.86 31.86 0 0 0 430.5410787335826 145.01064857563478C424.1610787335826 161.0026485756348 431.7610787335826 179.15764857563477 447.6320787335826 185.8346485756348A31.86 31.86 0 0 0 470.3660787335826 216.23664857563477A31.86 31.86 0 0 0 505.2770787335826 230.5196485756348C515.9370787335826 244.0606485756348 535.4820787335825 246.5596485756348 549.2060787335826 236.13564857563478A31.86 31.86 0 0 0 587.0060787335826 231.62664857563476A31.86 31.86 0 0 0 616.7060787335826 208.54164857563478C633.6960787335826 206.07164857563475 645.6030787335826 190.4836485756348 643.5170787335826 173.44164857563476A31.86 31.86 0 0 0 658.4750787335826 138.34164857563474A31.86 31.86 0 0 0 653.3450787335826 101.05464857563476C659.7250787335826 85.06264857563474 652.1250787335825 66.90764857563477 636.2540787335826 60.230648575634746A31.86 31.86 0 0 0 613.5200787335825 29.82864857563476A31.86 31.86 0 0 0 578.6090787335826 15.545648575634743C567.9510787335826 1.9456485756347206 548.3430787335826 -0.5693514243652658 534.5990787335826 9.902648575634771A31.86 31.86 0 0 0 496.7990787335826 14.411648575634786A31.86 31.86 0 0 0 467.0990787335826 37.496648575634765C450.1090787335826 39.96664857563479 438.20207873358254 55.55464857563476 440.28807873358255 72.59664857563479A30.5 30.5 0 0 0 425.73507873358255 91.87464857563481L422.49507873358255 91.01064857563483A34.3 34.3 0 0 1 436.77807873358256 70.94964857563485C435.72807873358255 53.620648575634846 447.50207873358255 38.126648575634874 464.48007873358256 34.499648575634865A35.37 35.37 0 0 1 495.5030787335826 11.11764857563486A35.37 35.37 0 0 1 534.3290787335825 5.906648575634847C548.8440787335826 -3.6743514243651703 568.1860787335826 -1.1823514243651516 579.7970787335826 11.765648575634827A35.64 35.64 0 0 1 615.5720787335825 26.939648575634806A35.1 35.1 0 0 1 629.0720787335825 35.363648575634784A33.75 33.75 0 0 1 639.3860787335825 57.88164857563481C654.9280787335825 65.65964857563483 662.4380787335826 83.6416485756348 657.0440787335826 100.1636485756348A35.1 35.1 0 0 1 661.7960787335826 138.71964857563478A35.64 35.64 0 0 1 646.8920787335826 174.9806485756348C647.9840787335826 192.33964857563478 636.2000787335826 207.88064857563478 619.1900787335826 211.5116485756348A35.37 35.37 0 0 1 588.1670787335826 234.8936485756348A35.37 35.37 0 0 1 549.3140787335826 240.10464857563477C534.8050787335826 249.66964857563482 515.4810787335825 247.17864857563472 503.8730787335826 234.2456485756348A35.64 35.64 0 0 1 468.0980787335826 219.0716485756348A35.1 35.1 0 0 1 444.1760787335826 188.0216485756348C428.6460787335826 180.2446485756348 421.1390787335826 162.2806485756348 426.51807873358257 145.7666485756348A35.1 35.1 0 0 1 418.7150787335826 116.49864857563477 "></path><path d="M641.5730787335826 152.94864857563482L636.5510787335826 155.37864857563483C638.1710787335826 158.61864857563484 639.8180787335825 161.77764857563483 641.1410787335826 165.17964857563481A23.49 23.49 0 0 0 650.9960787335826 147.0626485756348A48.6 48.6 0 0 1 641.5730787335826 152.9756485756348ZM641.0870787335825 156.91764857563481Q643.4900787335825 155.7836485756348 645.8120787335827 154.5146485756348A18.9 18.9 0 0 1 642.4640787335826 159.7256485756348Q641.8160787335826 158.3216485756348 641.0870787335825 157.02564857563482C641.7350787335827 156.5936485756348 641.3840787335826 157.5386485756348 641.0600787335826 156.89064857563483ZM435.6710787335826 136.3436485756348C437.5340787335826 133.9136485756348 439.6130787335826 131.6726485756348 441.6650787335826 129.40464857563478A67.5 67.5 0 0 1 430.1900787335826 117.90264857563477A23.49 23.49 0 0 0 434.7260787335826 137.6396485756348ZM435.6710787335826 130.94364857563482L434.8880787335826 131.83464857563484A16.2 16.2 0 0 1 433.26807873358257 126.43464857563487C434.6450787335826 127.78464857563489 435.48207873358257 128.51364857563487 436.8320787335826 129.67464857563488L435.72507873358256 131.10564857563486ZM508.4360787335826 16.2476485756348L508.00407873358256 16.463648575634807A70.2 70.2 0 0 1 522.4220787335826 24.83364857563481C524.3930787335826 21.80964857563481 526.3370787335825 18.758648575634822 528.6050787335826 15.95064857563483A23.49 23.49 0 0 0 508.40907873358253 16.274648575634842ZM517.1030787335826 17.246648575634822A18.9 18.9 0 0 1 523.2860787335826 17.516648575634804Q522.3950787335825 18.78564857563481 521.5310787335826 20.216648575634792Q519.3710787335826 18.73164857563478 517.1030787335826 17.35464857563477C517.2650787335826 17.246648575634765 517.9400787335826 17.70564857563477 517.0760787335826 17.246648575634765ZM543.5630787335826 29.909648575634833C540.8630787335826 26.804648575634815 538.1630787335826 23.618648575634836 535.3010787335826 20.756648575634813A95 95 0 0 0 529.3880787335826 29.23464857563482A26.46 26.46 0 0 0 545.5880787335825 32.20464857563485ZM538.1630787335826 28.856648575634836A21.6 21.6 0 0 1 534.1940787335826 27.830648575634825L535.5440787335826 25.85964857563482Q536.9750787335826 27.31764857563485 538.2170787335826 28.856648575634836ZM575.0180787335826 25.805648575634848C570.3200787335826 28.26264857563484 566.1620787335826 31.556648575634824 561.7340787335826 34.41864857563485A26.2 26.2 0 0 0 578.5820787335826 35.63364857563482A92 92 0 0 0 575.0180787335826 25.805648575634848C573.3710787335826 26.56164857563482 575.8280787335826 27.45264857563484 575.0180787335826 25.805648575634848M574.2350787335827 32.90664857563485A19 19 0 0 1 569.6720787335826 32.90664857563485Q571.5080787335826 31.610648575634855 573.3710787335826 30.449648575634853Q573.8300787335827 31.63764857563484 574.2080787335826 32.87964857563486C573.4520787335827 33.04164857563484 574.2350787335827 32.582648575634835 574.2350787335827 32.90664857563485M599.0480787335825 29.261648575634865A30 30 0 0 1 602.0450787335826 28.82964857563485A23.76 23.76 0 0 0 582.7130787335826 22.88964857563485A105 105 0 0 1 586.3580787335826 32.987648575634864A89 89 0 0 1 599.0480787335827 29.23464857563488ZM593.1350787335825 27.263648575634875Q590.8130787335826 27.938648575634886 588.5450787335826 28.74864857563489A45 45 0 0 0 587.6000787335826 26.0486485756349A18.9 18.9 0 0 1 593.1620787335826 27.344648575634892C592.0280787335826 27.5606485756349 592.9190787335826 27.182648575634914 593.1350787335826 27.263648575634875M541.6460787335826 15.03264857563488L541.2680787335826 15.302648575634862C545.8310787335827 19.73064857563486 549.9080787335827 24.75264857563485 554.2010787335826 29.423648575634843C559.9790787335826 26.453648575634816 565.0010787335826 22.02564857563482 570.6440787335827 18.920648575634857A23.625 23.625 0 0 0 541.6460787335826 15.03264857563488M546.7760787335826 16.19364857563488A21.6 21.6 0 0 1 564.9470787335827 18.40764857563488C561.4910787335826 20.62164857563488 558.2240787335826 23.10564857563486 554.7140787335826 25.265648575634884C552.0140787335827 22.376648575634874 549.5030787335826 19.136648575634865 546.7760787335826 16.19364857563488C547.4780787335826 15.815648575634896 546.9650787335827 16.247648575634855 546.7760787335826 16.05864857563489ZM617.5700787335827 43.46364857563486A89 89 0 0 1 617.1650787335826 57.098648575634854C620.7560787335826 57.31464857563486 624.3740787335827 57.47664857563484 627.9650787335827 58.04364857563485A23.49 23.49 0 0 0 617.1650787335826 40.43964857563486Q617.4350787335827 42.00564857563484 617.5700787335827 43.46364857563486M620.7560787335826 53.96664857563485C620.9180787335827 51.94164857563487 620.9720787335826 50.834648575634844 621.0260787335826 48.56664857563487A16.2 16.2 0 0 1 623.8610787335826 53.96664857563485L620.7560787335826 53.75064857563484C620.8370787335826 53.26464857563485 621.4850787335827 54.02064857563482 620.7830787335827 53.993648575634836ZM618.9740787335827 65.44164857563487H616.8410787335827A27 27 0 0 0 622.3760787335826 81.02064857563488C623.9150787335826 76.13364857563488 625.9400787335826 71.38164857563487 627.1280787335827 66.35964857563488A78 78 0 0 0 618.9740787335827 65.44164857563487M620.5400787335826 68.89764857563489L622.8350787335826 69.03264857563488L621.5390787335826 72.81264857563485A19 19 0 0 1 620.4590787335826 68.87064857563485C620.9990787335826 69.03264857563482 620.5670787335827 69.03264857563482 620.5400787335826 68.89764857563483M603.9350787335826 36.90264857563483A56.7 56.7 0 0 0 589.1660787335826 40.709648575634844A25.92 25.92 0 0 0 609.0920787335826 56.36964857563487C609.5780787335826 49.94364857563488 610.3340787335826 43.112648575634864 607.9040787335827 36.95664857563486A19 19 0 0 0 603.9620787335826 36.95664857563486ZM601.2350787335827 40.57464857563485A24.3 24.3 0 0 1 605.3390787335827 40.19664857563487A37.8 37.8 0 0 1 605.9600787335827 52.265648575634884A22.14 22.14 0 0 1 593.7830787335827 42.626648575634874A59 59 0 0 1 601.2350787335827 40.54764857563487ZM451.9790787335826 82.18164857563482L454.3550787335826 86.90664857563485A26.2 26.2 0 0 0 465.15507873358257 74.35164857563484C460.1330787335826 75.43164857563482 455.03007873358257 76.05264857563486 450.0890787335826 77.51064857563483Q451.0610787335826 80.02164857563486 452.0870787335826 82.15464857563484C453.1130787335826 84.28764857563482 451.3310787335826 80.77764857563483 451.9790787335826 82.18164857563482M454.67907873358257 79.83264857563483A90 90 0 0 1 458.5670787335826 79.04964857563482A21.6 21.6 0 0 1 455.6780787335826 81.96564857563482Q455.1380787335826 80.91264857563482 454.6520787335826 79.83264857563483C454.8950787335826 79.83264857563483 454.7060787335826 80.12964857563486 454.5710787335826 79.83264857563483ZM449.7650787335826 98.46264857563483C444.2030787335826 101.16264857563482 438.2090787335826 103.86264857563481 434.32107873358257 108.83064857563483C437.0210787335826 114.79764857563481 442.12407873358256 119.03664857563484 446.9300787335826 123.16764857563481A26.19 26.19 0 0 0 450.52107873358256 98.08464857563479ZM448.98207873358257 107.39964857563484A21.6 21.6 0 0 1 446.2820787335826 118.19964857563485A37.8 37.8 0 0 1 438.3440787335826 109.50564857563484A37.8 37.8 0 0 1 448.4690787335826 102.91764857563481A19 19 0 0 1 448.98207873358257 107.39964857563484M451.6820787335826 168.01464857563485A86 86 0 0 0 454.3820787335826 159.18564857563484C448.8200787335826 155.78364857563486 442.6100787335826 153.59664857563484 437.0750787335826 150.16764857563487C433.9850787335826 160.84064857563487 438.7950787335826 172.21764857563488 448.6040787335826 177.43764857563485A97 97 0 0 1 451.5740787335826 168.01464857563485ZM450.5750787335826 160.80564857563485C449.4410787335826 164.63964857563485 447.8750787335826 168.36564857563485 446.7140787335826 172.17264857563487A20.79 20.79 0 0 1 439.55907873358257 155.40564857563487C443.2040787335826 157.29564857563486 447.01107873358256 158.83464857563484 450.5750787335826 160.80564857563485C450.03507873358257 162.77664857563485 450.4670787335826 160.80564857563485 450.5750787335826 160.80564857563485M442.0700787335826 93.08964857563484L447.0920787335826 90.65964857563483C445.4720787335826 87.41964857563482 443.8250787335826 84.26064857563483 442.5020787335826 80.85864857563485A22.14 22.14 0 0 0 433.4840787335826 93.98064857563486A27 27 0 0 0 432.6470787335826 98.97564857563486A48.6 48.6 0 0 1 442.0700787335826 93.06264857563485ZM442.5560787335826 89.12064857563485Q440.15307873358256 90.25464857563486 437.83107873358256 91.52364857563487A18.9 18.9 0 0 1 441.17907873358257 86.31264857563485Q441.8270787335826 87.71664857563485 442.5560787335826 89.01264857563484C441.90807873358256 89.44464857563486 442.2590787335826 88.49964857563486 442.58307873358257 89.14764857563483ZM513.4040787335825 28.505648575634837A78.3 78.3 0 0 0 500.3360787335826 22.781648575634847C496.79907873358263 27.560648575634843 495.3140787335826 34.931648575634824 494.2340787335826 40.898648575634866A26.46 26.46 0 0 0 517.7510787335826 31.475648575634864Q515.5910787335827 29.963648575634863 513.4040787335825 28.505648575634837M512.6750787335826 32.01564857563483A22.68 22.68 0 0 1 498.1760787335826 37.79364857563485A43.2 43.2 0 0 1 501.8750787335826 26.507648575634846A43.2 43.2 0 0 1 512.6750787335826 31.907648575634823S512.3240787335826 31.79964857563482 512.6750787335826 32.042648575634814ZM452.3030787335826 148.76364857563482L455.0030787335826 150.14064857563483A27 27 0 0 0 447.6050787335826 134.91264857563482A86 86 0 0 0 440.8820787335826 143.01264857563484A92 92 0 0 0 452.3030787335826 148.76364857563482M450.0350787335826 143.9036485756348C449.0630787335826 143.4446485756348 447.1730787335826 142.5266485756348 446.0120787335826 141.9056485756348Q446.8220787335826 140.9066485756348 447.7130787335826 139.9616485756348A21.6 21.6 0 0 1 450.0350787335826 143.9036485756348C449.0360787335826 143.4716485756348 449.8460787335826 143.71464857563478 450.0350787335826 143.9036485756348M477.0350787335826 34.41864857563479A24 24 0 0 0 475.6040787335826 37.550648575634796A100 100 0 0 1 486.18807873358264 39.46764857563477A67.5 67.5 0 0 1 490.40007873358263 23.780648575634757A25.1 25.1 0 0 0 477.0350787335826 34.418648575634734M480.6530787335826 34.93164857563471A18.9 18.9 0 0 1 484.5410787335826 30.800648575634682Q483.9740787335826 33.122648575634685 483.51507873358264 35.49864857563466L480.6530787335826 34.95864857563464ZM466.07307873358263 51.509648575634685V45.94764857563467C455.3150787335826 48.6556485756347 447.89007873358264 58.48464857563465 448.2260787335826 69.57264857563467C454.3550787335826 67.79064857563469 460.8620787335826 67.41264857563465 466.9370787335826 65.46864857563469A221 221 0 0 0 466.0730787335826 51.509648575634685M463.3730787335826 62.90364857563469C459.45807873358257 63.8216485756347 455.4620787335826 64.36164857563472 451.5470787335826 65.2256485756347A21.6 21.6 0 0 1 462.5630787335826 50.59164857563468C462.7250787335826 54.695648575634664 463.2920787335826 58.6916485756347 463.3730787335826 62.90364857563469C463.3730787335826 62.93064857563468 463.5350787335826 62.7686485756347 463.5350787335826 62.90364857563469ZM479.7350787335826 46.40664857563468Q477.03507873358257 45.92064857563469 474.3350787335826 45.596648575634674C474.1460787335826 50.99664857563465 474.9020787335826 56.15364857563469 475.1450787335826 61.445648575634664A26.2 26.2 0 0 0 484.4600787335826 47.40564857563464ZM480.1400787335826 49.88964857563468A21.6 21.6 0 0 1 477.8720787335826 53.858648575634675Q477.6560787335826 51.644648575634676 477.6020787335826 49.43064857563468ZC479.8970787335826 50.0786485756347 479.70807873358257 49.78164857563468 480.0320787335826 49.862648575634694Z "></path></g><rect width="404.883" height="33.9" x="178.37607873358252" y="-292.1543514243652" fill="none" rx="0" ry="0" transform="translate(522.94 481.31)"></rect><path d="M715.8280787335825 209.33564857563482Q715.8280787335825 211.2356485756348 714.8880787335826 212.57564857563483T712.2480787335826 214.62564857563484Q710.5480787335825 215.32564857563483 708.2480787335826 215.32564857563483Q707.0280787335826 215.32564857563483 705.9480787335826 215.20564857563483Q704.8580787335826 215.0956485756348 703.9480787335826 214.87564857563484Q703.0480787335825 214.6556485756348 702.3580787335826 214.32564857563483V211.94564857563483Q703.4580787335826 212.39564857563482 705.0380787335826 212.7856485756348T708.3480787335826 213.1756485756348Q709.9580787335826 213.1756485756348 711.0680787335826 212.7356485756348Q712.1880787335826 212.3056485756348 712.7680787335826 211.4956485756348Q713.3380787335826 210.6856485756348 713.3380787335826 209.5356485756348Q713.3380787335826 208.44564857563483 712.8580787335826 207.70564857563483T711.2580787335826 206.3556485756348T708.1980787335826 205.0556485756348Q706.8380787335825 204.57564857563477 705.7980787335825 203.9956485756348T704.0580787335825 202.6856485756348Q703.3480787335826 201.95564857563477 702.9980787335826 200.9856485756348Q702.6380787335826 200.01564857563477 702.6380787335826 198.77564857563482Q702.6380787335826 197.0556485756348 703.5080787335826 195.83564857563482T705.9180787335827 193.96564857563482Q707.4680787335826 193.3056485756348 709.4780787335826 193.3056485756348Q711.1880787335826 193.3056485756348 712.6480787335827 193.63564857563478Q714.1080787335826 193.95564857563477 715.3180787335826 194.4956485756348L714.5480787335827 196.63564857563478Q713.3880787335827 196.15564857563476 712.0880787335827 195.82564857563477Q710.7980787335827 195.50564857563478 709.4180787335827 195.50564857563478T707.0980787335827 195.90564857563476Q706.1480787335827 196.31564857563478 705.6480787335827 197.04564857563474Q705.1580787335827 197.77564857563476 705.1580787335827 198.78564857563475Q705.1580787335827 199.91564857563475 705.6280787335827 200.66564857563475Q706.1080787335827 201.40564857563476 707.1580787335827 201.98564857563474Q708.1980787335826 202.56564857563473 709.9280787335827 203.19564857563472Q711.8180787335826 203.88564857563472 713.1380787335827 204.6556485756347T715.1480787335827 206.5256485756347Q715.8280787335826 207.63564857563472 715.8280787335826 209.3356485756347M719.8280787335826 198.9756485756347H722.2680787335826V215.0356485756347H719.8280787335826ZM721.0780787335826 192.9756485756347Q721.6780787335827 192.9756485756347 722.1080787335826 193.36564857563468Q722.5380787335826 193.74564857563468 722.5380787335826 194.56564857563467Q722.5380787335826 195.37564857563467 722.1080787335826 195.76564857563466Q721.6780787335827 196.16564857563463 721.0780787335826 196.16564857563463Q720.4480787335826 196.16564857563463 720.0280787335826 195.76564857563466Q719.6080787335826 195.37564857563467 719.6080787335826 194.56564857563467Q719.6080787335826 193.74564857563468 720.0280787335826 193.36564857563468Q720.4480787335826 192.9756485756347 721.0780787335826 192.9756485756347M744.8380787335826 198.68564857563467Q747.4880787335826 198.68564857563467 748.8380787335826 200.06564857563467Q750.1880787335826 201.45564857563465 750.1880787335826 204.51564857563466V215.03564857563464H747.7780787335826V204.63564857563466Q747.7780787335826 202.68564857563467 746.9380787335826 201.70564857563465Q746.0980787335827 200.73564857563463 744.4380787335826 200.73564857563463Q742.1080787335827 200.73564857563463 741.0580787335826 202.08564857563465Q739.9980787335826 203.43564857563467 739.9980787335826 206.05564857563468V215.0356485756347H737.5880787335826V204.63564857563472Q737.5880787335826 203.32564857563472 737.2080787335826 202.4656485756347Q736.8380787335826 201.5956485756347 736.0980787335826 201.1656485756347T734.2280787335826 200.73564857563468Q732.6380787335827 200.73564857563468 731.6680787335827 201.3956485756347T730.2680787335826 203.3556485756347Q729.8380787335826 204.6456485756347 729.8380787335826 206.5356485756347V215.0356485756347H727.4080787335827V198.9756485756347H729.3680787335826L729.7380787335826 201.24564857563468H729.8680787335826Q730.3480787335826 200.4156485756347 731.0780787335825 199.8456485756347Q731.8180787335825 199.2756485756347 732.7180787335826 198.9756485756347Q733.6280787335826 198.68564857563467 734.6580787335826 198.68564857563467Q736.4880787335826 198.68564857563467 737.7280787335826 199.36564857563468Q738.9580787335826 200.0456485756347 739.5180787335826 201.43564857563467H739.6480787335826Q740.4380787335826 200.0456485756347 741.8180787335825 199.36564857563468T744.8380787335825 198.68564857563467M762.7180787335826 198.68564857563467Q765.7280787335826 198.68564857563467 767.5080787335826 200.75564857563467Q769.2980787335825 202.81564857563467 769.2980787335825 206.96564857563465Q769.2980787335825 209.70564857563465 768.4780787335826 211.56564857563467T766.1680787335827 214.37564857563467Q764.6880787335826 215.32564857563466 762.6680787335827 215.32564857563466Q761.3880787335827 215.32564857563466 760.4180787335827 214.98564857563468Q759.4580787335826 214.6556485756347 758.7680787335826 214.0856485756347Q758.0780787335826 213.50564857563472 757.6280787335827 212.8356485756347H757.4480787335826Q757.4880787335826 213.4056485756347 757.5580787335826 214.2156485756347Q757.6280787335827 215.0156485756347 757.6280787335827 215.61564857563468V222.2156485756347H755.1780787335827V198.9756485756347H757.1880787335826L757.5080787335826 201.3556485756347H757.6280787335827Q758.0980787335827 200.61564857563468 758.7680787335826 200.0156485756347Q759.4380787335826 199.4056485756347 760.4180787335827 199.0456485756347Q761.3880787335827 198.68564857563467 762.7180787335826 198.68564857563467M762.2980787335825 200.73564857563468Q760.6280787335826 200.73564857563468 759.6080787335826 201.38564857563466Q758.5880787335826 202.02564857563465 758.1180787335826 203.30564857563468Q757.6580787335827 204.58564857563465 757.6280787335826 206.5256485756347V206.99564857563473Q757.6280787335826 209.0256485756347 758.0680787335825 210.43564857563473Q758.5180787335826 211.8356485756347 759.5480787335825 212.57564857563472Q760.5880787335826 213.30564857563473 762.3280787335825 213.30564857563473Q763.8180787335825 213.30564857563473 764.8180787335825 212.49564857563473Q765.8180787335825 211.69564857563472 766.3080787335825 210.24564857563473Q766.7980787335825 208.80564857563473 766.7980787335825 206.93564857563473Q766.7980787335825 204.09564857563475 765.6880787335826 202.41564857563475T762.2980787335825 200.73564857563474M775.9680787335826 192.23564857563474V215.03564857563475H773.5180787335826V192.23564857563474ZM781.1080787335826 198.97564857563475H783.5380787335826V215.03564857563475H781.1080787335826ZM782.3480787335826 192.97564857563475Q782.9480787335826 192.97564857563475 783.3880787335827 193.36564857563474Q783.8180787335826 193.74564857563473 783.8180787335826 194.56564857563473Q783.8180787335826 195.37564857563473 783.3880787335827 195.7656485756347Q782.9480787335826 196.1656485756347 782.3480787335826 196.1656485756347Q781.7180787335826 196.1656485756347 781.3080787335825 195.7656485756347Q780.8880787335826 195.37564857563473 780.8880787335826 194.56564857563473Q780.8880787335826 193.74564857563473 781.3080787335825 193.36564857563474Q781.7180787335826 192.97564857563475 782.3480787335826 192.97564857563475M795.8180787335826 198.97564857563475V200.88564857563478H791.8180787335826V215.03564857563475H789.3880787335827V200.88564857563478H786.5480787335827V199.71564857563476L789.3880787335827 198.90564857563476V197.83564857563476Q789.3880787335827 195.81564857563478 789.9880787335826 194.54564857563474T791.7280787335826 192.67564857563474Q792.8780787335827 192.07564857563472 794.5180787335827 192.07564857563472Q795.4380787335826 192.07564857563472 796.2080787335826 192.23564857563474Q796.9780787335826 192.40564857563476 797.5580787335828 192.60564857563475L796.9280787335827 194.52564857563476Q796.4380787335826 194.36564857563474 795.8080787335828 194.22564857563475Q795.1880787335826 194.08564857563476 794.5480787335828 194.08564857563476Q793.1480787335827 194.08564857563476 792.4880787335827 194.98564857563474Q791.8180787335828 195.88564857563472 791.8180787335828 197.80564857563473V198.97564857563475ZM802.6680787335827 215.06564857563473L796.2380787335826 198.97564857563475H798.8480787335827L802.3880787335827 208.29564857563474Q802.6980787335826 209.11564857563474 802.9580787335826 209.86564857563474Q803.2280787335826 210.62564857563473 803.4280787335827 211.31564857563473Q803.6380787335827 212.00564857563472 803.7480787335827 212.6456485756347H803.8580787335827Q804.0580787335828 211.9156485756347 804.4380787335826 210.7156485756347Q804.8180787335828 209.5256485756347 805.2580787335827 208.2756485756347L808.6180787335827 198.9756485756347H811.2380787335827L804.2480787335827 217.3956485756347Q803.6980787335826 218.87564857563473 802.9580787335826 219.9656485756347Q802.2180787335826 221.06564857563473 801.1580787335827 221.6656485756347Q800.1080787335827 222.25564857563467 798.6080787335827 222.25564857563467Q797.9180787335827 222.25564857563467 797.3980787335827 222.17564857563468Q796.8680787335827 222.0956485756347 796.4880787335826 221.99564857563468V220.0456485756347Q796.8080787335826 220.11564857563468 797.2680787335826 220.17564857563468T798.2280787335826 220.23564857563468Q799.1380787335827 220.23564857563468 799.8080787335825 219.88564857563466Q800.4680787335826 219.5456485756347 800.9580787335826 218.88564857563466Q801.4380787335826 218.22564857563464 801.7880787335826 217.31564857563467ZM813.9780787335826 211.53564857563475H816.5880787335827L816.7780787335827 211.87564857563473Q816.5080787335827 212.94564857563472 816.1080787335827 214.1556485756347Q815.7080787335826 215.37564857563473 815.2280787335826 216.5956485756347Q814.7580787335826 217.82564857563472 814.2680787335827 218.88564857563472H812.4580787335826Q812.7580787335827 217.7156485756347 813.0580787335828 216.42564857563474Q813.3480787335827 215.12564857563473 813.5880787335827 213.85564857563475Q813.8280787335827 212.59564857563475 813.9780787335826 211.53564857563475M841.1780787335827 215.03564857563475H839.1480787335827L831.9480787335826 196.07564857563477H831.8380787335827Q831.8880787335827 196.6756485756348 831.9380787335826 197.5456485756348Q831.9780787335827 198.4056485756348 832.0080787335827 199.4256485756348T832.0380787335827 201.4956485756348V215.0356485756348H829.7280787335826V193.6156485756348H833.4180787335827L840.1980787335826 211.4256485756348H840.2980787335827L847.1880787335826 193.6156485756348H850.8480787335827V215.0356485756348H848.3880787335827V201.32564857563483Q848.3880787335827 200.36564857563485 848.4180787335827 199.4056485756348Q848.4480787335826 198.45564857563483 848.4880787335826 197.5956485756348T848.5780787335826 196.1056485756348H848.4580787335826ZM862.3480787335827 198.70564857563477Q865.2180787335826 198.70564857563477 866.6080787335827 199.9956485756348T867.9980787335826 204.1056485756348V215.02564857563482H866.2280787335826L865.7580787335826 212.64564857563482H865.6380787335827Q864.9680787335826 213.52564857563482 864.2380787335826 214.12564857563484Q863.5080787335826 214.71564857563482 862.5480787335827 215.01564857563483T860.1980787335826 215.31564857563484Q858.7280787335826 215.31564857563484 857.5880787335826 214.80564857563485Q856.4580787335826 214.28564857563487 855.8080787335826 213.24564857563485T855.1580787335827 210.61564857563485Q855.1580787335827 208.21564857563487 857.0580787335826 206.92564857563485T862.8580787335827 205.51564857563483L865.6280787335827 205.39564857563482V204.4156485756348Q865.6280787335827 202.33564857563482 864.7380787335826 201.50564857563478Q863.8380787335827 200.6656485756348 862.2180787335826 200.6656485756348Q860.9580787335826 200.6656485756348 859.8080787335826 201.0356485756348Q858.6680787335827 201.39564857563482 857.6480787335827 201.89564857563482L856.8980787335827 200.05564857563485Q857.9780787335826 199.49564857563485 859.3880787335827 199.09564857563487Q860.7980787335827 198.70564857563488 862.3480787335826 198.70564857563488M865.5980787335826 208.59564857563487V207.11564857563485L863.1480787335827 207.21564857563487Q860.1480787335827 207.33564857563488 858.9180787335827 208.1956485756349Q857.6880787335826 209.0656485756349 857.6880787335826 210.64564857563488Q857.6880787335826 212.01564857563488 858.5280787335826 212.67564857563485Q859.3580787335825 213.33564857563488 860.7380787335826 213.33564857563488Q862.8780787335825 213.33564857563488 864.2380787335826 212.15564857563487Q865.5980787335825 210.96564857563487 865.5980787335825 208.59564857563487M880.6080787335825 198.68564857563484Q883.4680787335826 198.68564857563484 884.9380787335825 200.08564857563482Q886.3980787335825 201.4856485756348 886.3980787335825 204.57564857563483V215.0356485756348H883.9980787335826V204.7356485756348Q883.9980787335826 202.7256485756348 883.0780787335825 201.7356485756348Q882.1680787335824 200.7356485756348 880.2780787335826 200.7356485756348Q877.6080787335825 200.7356485756348 876.5280787335826 202.2456485756348Q875.4380787335825 203.75564857563478 875.4380787335825 206.62564857563478V215.0356485756348H873.0080787335826V198.9756485756348H874.9780787335826L875.3380787335825 201.2956485756348H875.4680787335826Q875.9880787335826 200.44564857563478 876.7780787335826 199.8656485756348T878.5480787335825 198.9856485756348T880.6080787335825 198.6856485756348M897.4080787335824 198.70564857563477Q900.2780787335826 198.70564857563477 901.6680787335824 199.9956485756348T903.0580787335825 204.1056485756348V215.02564857563482H901.2880787335826L900.8180787335825 212.64564857563482H900.6980787335824Q900.0280787335826 213.52564857563482 899.2980787335825 214.12564857563484Q898.5580787335825 214.71564857563482 897.5980787335825 215.01564857563483T895.2480787335824 215.31564857563484Q893.7880787335823 215.31564857563484 892.6480787335825 214.80564857563485Q891.5180787335823 214.28564857563487 890.8680787335825 213.24564857563485Q890.2080787335824 212.20564857563483 890.2080787335824 210.61564857563485Q890.2080787335824 208.21564857563487 892.1180787335825 206.92564857563485Q894.0180787335823 205.63564857563483 897.9180787335824 205.51564857563483L900.6880787335824 205.39564857563482V204.4156485756348Q900.6880787335824 202.33564857563482 899.7880787335823 201.50564857563478Q898.8980787335825 200.6656485756348 897.2680787335823 200.6656485756348Q896.0180787335823 200.6656485756348 894.8680787335825 201.0356485756348Q893.7280787335824 201.39564857563482 892.6980787335824 201.89564857563482L891.9580787335824 200.05564857563485Q893.0380787335823 199.49564857563485 894.4480787335824 199.09564857563487Q895.8480787335823 198.70564857563488 897.4080787335824 198.70564857563488M900.6580787335824 208.59564857563487V207.11564857563485L898.2080787335824 207.21564857563487Q895.2080787335824 207.33564857563488 893.9780787335824 208.1956485756349Q892.7480787335824 209.0656485756349 892.7480787335824 210.64564857563488Q892.7480787335824 212.01564857563488 893.5780787335823 212.67564857563485Q894.4180787335824 213.33564857563488 895.7980787335823 213.33564857563488Q897.9280787335824 213.33564857563488 899.2980787335823 212.15564857563487Q900.6580787335824 210.96564857563487 900.6580787335824 208.59564857563487M912.5580787335823 222.23564857563485Q909.3980787335825 222.23564857563485 907.6880787335824 221.06564857563484Q905.9680787335824 219.88564857563483 905.9680787335824 217.75564857563484Q905.9680787335824 216.24564857563485 906.9280787335824 215.17564857563485T909.5880787335823 213.75564857563484Q908.9580787335824 213.46564857563482 908.5080787335824 212.87564857563484Q908.0680787335823 212.29564857563486 908.0680787335823 211.53564857563487Q908.0680787335823 210.65564857563487 908.5580787335823 209.98564857563485T910.0580787335823 208.70564857563488Q908.7980787335823 208.1956485756349 908.0080787335824 206.96564857563487Q907.2280787335824 205.74564857563485 907.2280787335824 204.11564857563485Q907.2280787335824 202.39564857563482 907.9480787335824 201.16564857563486Q908.6680787335824 199.94564857563483 910.0280787335823 199.29564857563486Q911.3880787335825 198.65564857563487 913.3180787335823 198.65564857563487Q913.7480787335824 198.65564857563487 914.1780787335824 198.6956485756349Q914.6080787335823 198.72564857563486 915.0080787335824 198.7956485756349Q915.3980787335825 198.8656485756349 915.6980787335824 198.9456485756349H921.2080787335824V200.51564857563488L918.2480787335824 200.8856485756349Q918.6880787335824 201.45564857563488 918.9780787335824 202.2556485756349Q919.2680787335823 203.0656485756349 919.2680787335823 204.0456485756349Q919.2680787335823 206.4456485756349 917.6480787335825 207.8656485756349Q916.0180787335823 209.27564857563493 913.1780787335824 209.27564857563493Q912.4980787335824 209.27564857563493 911.7980787335823 209.15564857563493Q911.0780787335823 209.5556485756349 910.7080787335824 210.03564857563492Q910.3380787335823 210.52564857563493 910.3380787335823 211.15564857563493Q910.3380787335823 211.6156485756349 910.6180787335823 211.89564857563494Q910.9080787335822 212.1756485756349 911.4480787335824 212.30564857563496Q911.9880787335824 212.42564857563497 912.7480787335824 212.42564857563497H915.5780787335823Q918.1980787335824 212.42564857563497 919.5980787335823 213.525648575635T920.9980787335824 216.73564857563497Q920.9980787335824 219.395648575635 918.8280787335823 220.81564857563495T912.5580787335823 222.23564857563497M912.6380787335825 220.335648575635Q914.6280787335825 220.335648575635 915.9380787335824 219.935648575635Q917.2480787335824 219.525648575635 917.8980787335825 218.775648575635T918.5480787335823 216.98564857563497Q918.5480787335823 216.01564857563494 918.1080787335823 215.525648575635Q917.6780787335824 215.03564857563498 916.8280787335823 214.86564857563496T914.7480787335824 214.69564857563495H911.9580787335824Q910.8780787335822 214.69564857563495 910.0680787335823 215.03564857563492Q909.2680787335823 215.3656485756349 908.8380787335823 216.02564857563493Q908.3980787335822 216.68564857563496 908.3980787335822 217.66564857563492Q908.3980787335822 218.97564857563492 909.4980787335824 219.65564857563493T912.6380787335822 220.33564857563493M913.2680787335823 207.50564857563495Q915.0080787335824 207.50564857563495 915.8880787335822 206.62564857563495T916.7680787335823 204.06564857563495Q916.7680787335823 202.25564857563495 915.8680787335823 201.35564857563497Q914.9780787335824 200.455648575635 913.2380787335824 200.455648575635Q911.5680787335823 200.455648575635 910.6680787335822 201.385648575635T909.7680787335823 204.10564857563503Q909.7680787335823 205.74564857563502 910.6680787335822 206.625648575635Q911.5780787335823 207.505648575635 913.2680787335823 207.505648575635M930.5480787335823 198.685648575635Q932.5980787335823 198.685648575635 934.0680787335823 199.59564857563504Q935.5280787335823 200.50564857563506 936.3080787335823 202.13564857563506Q937.0780787335823 203.76564857563505 937.0780787335823 205.95564857563505V207.45564857563505H925.9980787335821Q926.0380787335821 210.28564857563504 927.3980787335822 211.76564857563505T931.2380787335821 213.24564857563507Q932.7580787335821 213.24564857563507 933.9380787335822 212.9656485756351Q935.1080787335823 212.68564857563513 936.3680787335823 212.1456485756351V214.2856485756351Q935.1480787335822 214.8256485756351 933.9580787335822 215.0756485756351Q932.7580787335821 215.3256485756351 931.1380787335822 215.3256485756351Q928.8180787335821 215.3256485756351 927.0980787335823 214.38564857563512Q925.3780787335822 213.43564857563513 924.4280787335822 211.60564857563514T923.4780787335822 207.12564857563513Q923.4780787335822 204.5256485756351 924.3480787335823 202.63564857563512Q925.2180787335822 200.73564857563514 926.8080787335823 199.7156485756351Q928.3980787335822 198.68564857563513 930.5480787335823 198.68564857563513M930.5180787335823 200.67564857563514Q928.5680787335823 200.67564857563514 927.4180787335822 201.9556485756351Q926.2580787335824 203.2256485756351 926.0380787335823 205.5156485756351H934.5380787335823Q934.5180787335823 204.0756485756351 934.0880787335823 202.98564857563514T932.7780787335823 201.28564857563515T930.5180787335823 200.67564857563514M941.3880787335822 211.53564857563515H943.9980787335824L944.1880787335824 211.87564857563513Q943.9280787335824 212.94564857563512 943.5180787335823 214.1556485756351Q943.1180787335825 215.37564857563513 942.6380787335825 216.5956485756351Q942.1680787335824 217.8256485756351 941.6780787335824 218.88564857563512H939.8680787335825Q940.1780787335824 217.7156485756351 940.4680787335824 216.42564857563514Q940.7580787335824 215.12564857563513 940.9980787335824 213.85564857563514Q941.2380787335824 212.59564857563515 941.3880787335825 211.53564857563515M957.1380787335825 193.61564857563513H962.7280787335824Q966.8780787335825 193.61564857563513 968.7880787335823 195.23564857563514T970.6980787335824 199.87564857563513Q970.6980787335824 201.23564857563514 970.2580787335824 202.4556485756351Q969.8080787335823 203.67564857563514 968.8080787335823 204.61564857563513Q967.8180787335823 205.54564857563514 966.1980787335822 206.0756485756351T962.2380787335821 206.6056485756351H959.6280787335822V215.0356485756351H957.1380787335822ZM962.4980787335824 195.74564857563513H959.6280787335825V204.47564857563515H961.9580787335824Q964.0080787335824 204.47564857563515 965.3780787335825 204.03564857563515T967.4380787335824 202.60564857563514Q968.1180787335823 201.61564857563513 968.1180787335823 199.97564857563515Q968.1180787335823 197.83564857563516 966.7580787335824 196.78564857563515Q965.3980787335822 195.74564857563513 962.4980787335824 195.74564857563513M982.1080787335823 198.68564857563513Q982.5980787335823 198.68564857563513 983.1180787335823 198.73564857563514Q983.6480787335822 198.78564857563515 984.0580787335823 198.87564857563513L983.7480787335824 201.13564857563512Q983.3580787335825 201.0256485756351 982.8780787335825 200.9656485756351Q982.3880787335825 200.9156485756351 981.9680787335824 200.9156485756351Q980.9980787335824 200.9156485756351 980.1380787335825 201.29564857563508Q979.2880787335823 201.68564857563507 978.6380787335825 202.4156485756351Q977.9980787335824 203.13564857563512 977.6280787335825 204.1556485756351Q977.2680787335823 205.17564857563508 977.2680787335823 206.4156485756351V215.0356485756351H974.8180787335825V198.9756485756351H976.8380787335825L977.0980787335825 201.93564857563507H977.2080787335826Q977.6980787335826 201.04564857563508 978.4080787335827 200.30564857563508Q979.1080787335827 199.56564857563507 980.0380787335826 199.12564857563507T982.1080787335827 198.68564857563507M1000.9080787335827 206.9756485756351Q1000.9080787335827 208.9556485756351 1000.3980787335827 210.50564857563506T998.9180787335827 213.12564857563507T996.5780787335825 214.76564857563505Q995.2080787335826 215.32564857563506 993.4880787335826 215.32564857563506Q991.8680787335825 215.32564857563506 990.5280787335826 214.76564857563505Q989.1880787335824 214.19564857563506 988.2180787335826 213.12564857563507T986.7080787335826 210.50564857563506Q986.1780787335827 208.95564857563505 986.1780787335827 206.9756485756351Q986.1780787335827 204.3356485756351 987.0680787335825 202.48564857563508T989.6280787335825 199.6556485756351Q991.2880787335826 198.68564857563507 993.5880787335825 198.68564857563507Q995.7880787335826 198.68564857563507 997.4280787335827 199.6656485756351Q999.0780787335825 200.6456485756351 999.9980787335826 202.50564857563506Q1000.9080787335827 204.3556485756351 1000.9080787335827 206.9756485756351M988.6980787335826 206.9756485756351Q988.6980787335826 208.9056485756351 989.2080787335826 210.3356485756351Q989.7180787335826 211.75564857563512 990.7880787335826 212.5256485756351Q991.8580787335827 213.30564857563508 993.5380787335826 213.30564857563508Q995.2080787335826 213.30564857563508 996.2880787335826 212.5256485756351Q997.3680787335827 211.75564857563512 997.8780787335827 210.3356485756351Q998.3880787335827 208.9056485756351 998.3880787335827 206.9756485756351Q998.3880787335827 205.05564857563508 997.8780787335827 203.6556485756351T996.2980787335825 201.49564857563507T993.5280787335826 200.73564857563508Q991.0180787335826 200.73564857563508 989.8580787335827 202.3956485756351Q988.6980787335826 204.04564857563508 988.6980787335826 206.9756485756351M1015.5080787335826 210.63564857563512Q1015.5080787335826 212.17564857563514 1014.7380787335826 213.2256485756351T1012.5480787335825 214.79564857563508Q1011.1180787335827 215.32564857563506 1009.1380787335827 215.32564857563506Q1007.4580787335826 215.32564857563506 1006.2280787335826 215.06564857563507Q1004.9880787335826 214.79564857563508 1004.0680787335828 214.31564857563507V212.07564857563506Q1005.0480787335828 212.55564857563508 1006.4180787335827 212.95564857563505Q1007.7780787335828 213.34564857563504 1009.1980787335826 213.34564857563504Q1011.2780787335828 213.34564857563504 1012.2180787335826 212.67564857563502Q1013.1480787335827 212.005648575635 1013.1480787335827 210.84564857563504Q1013.1480787335827 210.185648575635 1012.7780787335826 209.67564857563502Q1012.4080787335827 209.17564857563502 1011.5280787335826 208.695648575635Q1010.6480787335827 208.22564857563498 1009.0980787335827 207.645648575635Q1007.5580787335828 207.065648575635 1006.4380787335826 206.48564857563497T1004.7080787335826 205.07564857563494Q1004.0980787335827 204.23564857563497 1004.0980787335827 202.90564857563493Q1004.0980787335827 200.8656485756349 1005.7480787335826 199.77564857563493T1010.0780787335827 198.68564857563496Q1011.5280787335828 198.68564857563496 1012.7980787335828 198.97564857563498Q1014.0580787335828 199.25564857563495 1015.1580787335827 199.73564857563497L1014.3380787335827 201.68564857563496Q1013.3380787335827 201.26564857563494 1012.2180787335826 200.96564857563493Q1011.0880787335827 200.6756485756349 1009.9180787335827 200.6756485756349Q1008.2280787335826 200.6756485756349 1007.3280787335827 201.2356485756349T1006.4280787335827 202.7556485756349Q1006.4280787335827 203.5056485756349 1006.8480787335827 203.9856485756349Q1007.2680787335826 204.47564857563492 1008.1880787335826 204.89564857563494Q1009.1080787335827 205.32564857563494 1010.6180787335827 205.89564857563494Q1012.1280787335827 206.44564857563495 1013.2280787335826 207.0456485756349Q1014.3280787335827 207.6356485756349 1014.9180787335827 208.47564857563492T1015.5080787335828 210.63564857563495M1026.9680787335828 198.68564857563496Q1029.9680787335828 198.68564857563496 1031.7580787335828 200.75564857563495Q1033.5380787335828 202.81564857563495 1033.5380787335828 206.96564857563493Q1033.5380787335828 209.70564857563494 1032.7180787335826 211.56564857563495T1030.4180787335827 214.37564857563495Q1028.9280787335827 215.32564857563494 1026.9080787335827 215.32564857563494Q1025.6280787335827 215.32564857563494 1024.6680787335827 214.98564857563497Q1023.6980787335826 214.65564857563498 1023.0080787335828 214.085648575635Q1022.3180787335828 213.505648575635 1021.8680787335827 212.835648575635H1021.6880787335829Q1021.7380787335828 213.40564857563498 1021.7980787335828 214.215648575635Q1021.8680787335829 215.015648575635 1021.8680787335829 215.61564857563496V222.215648575635H1019.4180787335829V198.97564857563498H1021.4280787335829L1021.7480787335828 201.35564857563497H1021.8680787335829Q1022.338078733583 200.61564857563496 1023.0080787335828 200.015648575635Q1023.6880787335829 199.40564857563498 1024.658078733583 199.04564857563497T1026.9680787335828 198.68564857563496M1026.5380787335828 200.73564857563497Q1024.868078733583 200.73564857563497 1023.8480787335827 201.38564857563495Q1022.8380787335827 202.02564857563493 1022.3680787335827 203.30564857563496T1021.8680787335827 206.525648575635V206.99564857563502Q1021.8680787335827 209.025648575635 1022.3180787335828 210.435648575635Q1022.7580787335828 211.835648575635 1023.7980787335828 212.575648575635Q1024.8280787335827 213.30564857563502 1026.5680787335828 213.30564857563502Q1028.0680787335828 213.30564857563502 1029.0580787335828 212.49564857563502Q1030.0580787335828 211.695648575635 1030.5480787335828 210.24564857563502Q1031.0380787335828 208.80564857563502 1031.0380787335828 206.935648575635Q1031.0380787335828 204.09564857563504 1029.9280787335829 202.41564857563503Q1028.8280787335827 200.73564857563503 1026.5380787335828 200.73564857563503M1043.9480787335829 198.685648575635Q1045.9980787335828 198.685648575635 1047.4680787335828 199.59564857563504Q1048.9280787335829 200.50564857563506 1049.7080787335829 202.13564857563506Q1050.4780787335828 203.76564857563505 1050.4780787335828 205.95564857563505V207.45564857563505H1039.3880787335827Q1039.4380787335826 210.28564857563504 1040.7980787335828 211.76564857563505T1044.6380787335827 213.24564857563507Q1046.1580787335827 213.24564857563507 1047.3280787335827 212.9656485756351Q1048.5080787335828 212.68564857563513 1049.7680787335828 212.1456485756351V214.2856485756351Q1048.5480787335828 214.8256485756351 1047.358078733583 215.0756485756351Q1046.158078733583 215.3256485756351 1044.5380787335828 215.3256485756351Q1042.2180787335828 215.3256485756351 1040.4980787335828 214.38564857563512Q1038.7780787335828 213.43564857563513 1037.828078733583 211.60564857563514Q1036.868078733583 209.77564857563516 1036.868078733583 207.12564857563513Q1036.868078733583 204.5256485756351 1037.7480787335828 202.63564857563512Q1038.618078733583 200.73564857563514 1040.2080787335829 199.7156485756351Q1041.798078733583 198.68564857563513 1043.9480787335829 198.68564857563513M1043.918078733583 200.67564857563514Q1041.9680787335828 200.67564857563514 1040.808078733583 201.9556485756351Q1039.658078733583 203.2256485756351 1039.4380787335829 205.5156485756351H1047.9280787335829Q1047.918078733583 204.0756485756351 1047.4880787335828 202.98564857563514T1046.1780787335829 201.28564857563515T1043.918078733583 200.67564857563514M1061.918078733583 198.68564857563513Q1062.398078733583 198.68564857563513 1062.9280787335829 198.73564857563514T1063.868078733583 198.87564857563513L1063.558078733583 201.13564857563512Q1063.1580787335831 201.0256485756351 1062.678078733583 200.9656485756351Q1062.198078733583 200.9156485756351 1061.768078733583 200.9156485756351Q1060.808078733583 200.9156485756351 1059.948078733583 201.29564857563508Q1059.088078733583 201.68564857563507 1058.448078733583 202.4156485756351Q1057.798078733583 203.13564857563512 1057.438078733583 204.1556485756351Q1057.068078733583 205.17564857563508 1057.068078733583 206.4156485756351V215.0356485756351H1054.618078733583V198.9756485756351H1056.648078733583L1056.908078733583 201.93564857563507H1057.008078733583Q1057.508078733583 201.04564857563508 1058.208078733583 200.30564857563508Q1058.9180787335831 199.56564857563507 1059.848078733583 199.12564857563507T1061.9180787335831 198.68564857563507 "></path></g><rect width="688" height="246" x="406" y="0" id="space-saver" fill="transparent" stroke="transparent"></rect></g></svg>