<svg xmlns="http://www.w3.org/2000/svg" xml:space="preserve" width="1500" height="1500" viewBox="0 0 1500 1500" data-version="1" data-id="lg_387833ZPpXx4MXQqlr" x="0" y="0"><rect width="1500" height="1500" id="background" stroke="transparent" fill="#000000"></rect><g id="outer-wrapper" data-padding="20" transform="matrix(1.4534883720930232,0,0,1.4534883720930232,-340.1162790697674,-340.1162790697674)"><g id="inner-wrapper" transform="matrix(0.9709302325581395,0,0,0.9709302325581395,10,3.5755813953488484)"><path fill="#3d3d3d" d="M543.1580787335827 688.1091036654552A82.459 82.459 0 1 0 543.1580787335827 853.0271036654551A82.459 82.459 0 1 0 543.1580787335827 688.1091036654552 "></path><rect width="377.457" height="159.33" x="192.09007873358252" y="290.9031036654554" fill="none" rx="0" ry="0" transform="translate(491.77 399.56)"></rect><path fill="#3d3d3d" d="M735.3280787335825 816.8181036654552Q721.6480787335826 816.8181036654552 710.6480787335826 811.1781036654552Q699.6580787335826 805.5381036654552 693.2380787335826 794.5481036654552Q686.8180787335825 783.5481036654552 686.8180787335825 767.7581036654551Q686.8180787335825 755.9081036654552 690.6980787335825 746.7481036654551Q694.5780787335825 737.5781036654552 701.4180787335825 731.3081036654552Q708.2580787335826 725.0281036654552 717.1380787335826 721.8581036654552T736.0280787335826 718.6881036654552Q743.7880787335826 718.6881036654552 750.5580787335825 720.4481036654552Q757.3180787335825 722.2081036654552 763.5280787335826 725.5981036654551L764.0880787335825 744.0681036654552H760.2880787335826L754.3580787335825 732.9281036654552Q752.9480787335825 730.1081036654552 751.3280787335825 727.8481036654553Q749.7080787335826 725.5981036654553 747.1680787335825 724.6081036654552Q743.6480787335826 722.9181036654552 738.8480787335825 722.9181036654552Q730.5280787335826 722.9181036654552 723.6980787335826 727.1481036654552Q716.8580787335826 731.3781036654552 712.7680787335826 741.1781036654552T708.6780787335827 767.8981036654552Q708.6780787335827 784.6781036654552 712.5580787335825 794.5481036654552Q716.4280787335827 804.4181036654552 723.0580787335825 808.5781036654552T738.0080787335826 812.7381036654551Q741.8080787335825 812.7381036654551 744.2080787335826 812.1681036654552Q746.6080787335825 811.6081036654552 749.0080787335826 810.6181036654552Q751.8280787335825 809.4881036654551 753.3780787335826 807.3081036654552Q754.9280787335827 805.1181036654552 756.0580787335825 802.2981036654552L761.4080787335827 789.4681036654551H765.2180787335826L764.6580787335827 809.7681036654552Q758.5880787335826 813.1581036654552 751.2580787335826 814.9881036654552T735.3280787335826 816.8181036654553M804.9680787335826 814.4281036654552H772.1180787335826V811.7481036654552L774.2280787335826 811.1781036654552Q778.8880787335827 809.6281036654552 778.8880787335827 804.1281036654552Q778.8880787335827 799.3381036654553 778.9580787335826 794.4781036654553Q779.0280787335826 789.6081036654552 779.0280787335826 784.8181036654553V731.2381036654552Q779.0280787335826 728.2781036654553 778.0380787335826 726.7981036654553T774.2280787335826 724.6081036654552L772.1180787335826 724.0481036654553V721.3681036654552L796.7880787335826 715.4481036654552L798.6280787335826 716.7081036654552L798.0580787335825 736.5981036654553V804.1281036654552Q798.1980787335826 806.9481036654552 799.2580787335826 808.7181036654551Q800.3180787335825 810.4781036654551 802.9980787335826 811.1781036654552L804.9680787335826 811.7481036654551ZM831.7680787335826 816.3981036654552Q823.7380787335826 816.3981036654552 818.1680787335827 811.8181036654553T812.5980787335826 798.6381036654552Q812.5980787335826 791.8681036654552 819.1480787335827 786.1581036654552Q825.7080787335826 780.4481036654553 839.8080787335826 777.7681036654553Q842.2080787335826 777.1981036654553 845.3780787335827 776.7081036654553T851.6480787335827 775.6481036654552V765.6381036654552Q851.6480787335827 756.0481036654553 849.2580787335826 752.3881036654552Q846.8580787335827 748.7181036654553 841.6380787335827 748.7181036654553H841.2180787335826Q837.9780787335826 748.7181036654553 836.0680787335826 750.7681036654553Q834.1680787335827 752.8081036654553 833.6080787335827 757.4581036654553L833.1780787335827 759.2981036654553Q832.7580787335826 764.9381036654552 830.2180787335826 767.5381036654553Q827.6780787335827 770.1481036654552 823.8780787335827 770.1481036654552Q820.3480787335827 770.1481036654552 818.0180787335827 767.9681036654553Q815.6980787335826 765.7781036654553 815.6980787335826 762.2581036654553Q815.6980787335826 756.4781036654554 819.6480787335827 752.5281036654553Q823.5880787335827 748.5781036654553 830.1480787335827 746.6081036654552Q836.7080787335826 744.6281036654552 844.3180787335828 744.6281036654552Q856.8680787335827 744.6281036654552 863.4980787335827 750.6981036654552Q870.1180787335827 756.7581036654552 870.1180787335827 770.4381036654552V801.8781036654552Q870.1180787335827 807.9381036654552 875.9080787335827 807.9381036654552H879.1480787335827L880.5580787335828 809.4881036654552Q878.0180787335828 812.7381036654552 874.9180787335828 814.4981036654552T866.4580787335829 816.2581036654552Q860.3980787335828 816.2581036654552 856.7980787335828 813.3681036654552T852.0780787335827 805.6881036654552Q847.5580787335828 810.4781036654553 843.1880787335828 813.4381036654552T831.7680787335828 816.3981036654552M839.9480787335827 807.3781036654552Q842.7680787335828 807.3781036654552 845.3080787335828 806.1081036654552T851.6480787335827 801.8781036654552V779.3181036654553Q847.9880787335827 779.8781036654552 844.1780787335827 780.7281036654553Q838.1180787335827 782.1381036654552 834.3780787335827 785.9481036654553Q830.6380787335827 789.7481036654553 830.6380787335827 796.2381036654554Q830.6380787335827 801.8781036654552 833.2480787335827 804.6281036654552T839.9480787335826 807.3781036654552M919.0480787335828 814.4281036654553H883.7980787335828V811.7481036654553L885.9180787335827 811.0381036654553Q888.7380787335827 810.3381036654553 889.7880787335828 808.6481036654553Q890.8480787335827 806.9481036654554 890.8480787335827 804.1281036654553V762.8181036654553Q890.7080787335827 759.7181036654554 889.7180787335827 758.0981036654553Q888.7380787335827 756.4781036654554 885.9180787335827 755.9081036654553L883.7980787335828 755.3481036654553V752.8081036654553L906.7780787335828 744.6281036654552L908.4780787335828 746.1781036654553L909.7480787335828 758.5881036654553V759.5781036654553Q911.8580787335827 755.6281036654553 915.0980787335827 752.2481036654553Q918.3480787335827 748.8581036654554 922.1480787335827 746.7481036654553Q925.9580787335826 744.6281036654553 929.7680787335828 744.6281036654553Q935.1280787335827 744.6281036654553 937.7980787335828 747.4481036654554Q940.4780787335826 750.2681036654553 940.4780787335826 754.6381036654553Q940.4780787335826 759.4381036654554 937.7980787335828 761.8981036654553Q935.1280787335827 764.3681036654554 931.3180787335828 764.3681036654554Q925.6780787335827 764.3681036654554 921.5880787335827 759.2981036654553L921.3080787335828 759.0081036654553Q919.8980787335827 757.3181036654553 918.1280787335827 757.1081036654554Q916.3680787335827 756.8981036654554 914.6780787335827 758.8681036654554Q913.2680787335828 760.2781036654553 912.0680787335828 762.1881036654554Q910.8680787335827 764.0881036654553 909.8880787335827 766.6281036654553V803.5681036654552Q909.8880787335827 806.2481036654551 911.0080787335828 808.0081036654551Q912.1380787335827 809.7681036654551 914.8180787335828 810.4781036654551L919.0480787335828 811.7481036654551ZM961.4780787335826 736.8781036654552Q956.8280787335827 736.8781036654552 953.5880787335827 733.9181036654553Q950.3380787335827 730.9581036654554 950.3380787335827 726.4381036654553Q950.3380787335827 721.7881036654553 953.5880787335827 718.8981036654552Q956.8280787335827 716.0081036654553 961.4780787335826 716.0081036654553Q966.1380787335827 716.0081036654553 969.3780787335827 718.8981036654552T972.6180787335827 726.4381036654553Q972.6180787335827 730.9581036654553 969.3780787335827 733.9181036654553T961.4780787335826 736.8781036654552M977.5580787335828 814.4281036654553H945.2680787335828V811.7481036654553L947.3780787335827 811.1781036654553Q950.1980787335829 810.3381036654553 951.1880787335826 808.6481036654553Q952.1780787335827 806.9481036654554 952.3180787335828 804.1281036654553V770.0781036654553Q952.3180787335828 766.3481036654553 952.1780787335827 762.3981036654553Q952.1780787335827 759.5781036654553 951.1180787335827 757.9581036654554T947.2380787335828 755.7681036654553L945.2680787335828 755.3481036654553V752.8081036654553L969.9380787335826 744.6281036654552L971.6280787335827 746.1781036654553L971.2080787335829 766.2081036654553V804.2781036654553Q971.2080787335829 807.0981036654553 972.2680787335828 808.7881036654553T976.0080787335828 811.3281036654553L977.5580787335828 811.7481036654553ZM1020.2880787335828 814.4181036654553H983.9080787335827V811.7381036654554L986.0280787335828 811.1681036654553Q991.6680787335827 809.6181036654552 991.8080787335828 804.2681036654553Q991.8080787335828 799.3281036654553 991.8780787335827 794.4681036654554Q991.9480787335829 789.5981036654553 991.9480787335829 784.8081036654553V751.1081036654552H983.9080787335829V748.0081036654553L987.0080787335828 747.4381036654553Q989.828078733583 747.0181036654553 991.098078733583 745.3981036654552T992.9380787335829 740.8181036654553Q994.4880787335828 735.1781036654553 997.088078733583 731.0181036654553Q999.6980787335829 726.8581036654552 1003.3680787335829 723.3281036654553Q1008.588078733583 718.2581036654553 1014.5080787335828 716.2781036654553Q1020.4280787335829 714.3081036654553 1026.0680787335828 714.3081036654553Q1031.5680787335828 714.3081036654553 1036.148078733583 716.4881036654552Q1040.7280787335828 718.6781036654552 1040.7280787335828 723.8981036654552Q1040.7280787335828 727.5581036654553 1038.548078733583 729.7481036654553Q1036.358078733583 731.9281036654553 1032.268078733583 731.9281036654553Q1025.788078733583 731.9281036654553 1020.848078733583 724.3181036654553L1019.1580787335829 722.3381036654553Q1017.4680787335828 720.2281036654553 1015.778078733583 720.6481036654552Q1014.088078733583 721.0781036654553 1013.3780787335829 723.4681036654553Q1012.248078733583 727.9781036654553 1011.6180787335829 734.0481036654553Q1010.9780787335831 740.1081036654552 1010.838078733583 746.7381036654552H1027.058078733583V751.1081036654552H1010.838078733583V784.8081036654553Q1010.838078733583 789.5981036654553 1010.9080787335831 794.3181036654553Q1010.9780787335831 799.0481036654553 1010.9780787335831 803.8381036654553Q1010.9780787335831 809.4781036654551 1016.6180787335832 810.7481036654552L1020.288078733583 811.7381036654552Z "></path><path fill="#3d3d3d" d="M1048.1980787335824 736.8781036654555Q1043.5380787335826 736.8781036654555 1040.2980787335825 733.9181036654554T1037.0580787335825 726.4381036654554Q1037.0580787335825 721.7881036654554 1040.2980787335825 718.8981036654554T1048.1980787335824 716.0081036654553Q1052.8480787335825 716.0081036654553 1056.0880787335825 718.8981036654554Q1059.3380787335825 721.7881036654553 1059.3380787335825 726.4381036654554Q1059.3380787335825 730.9581036654554 1056.0880787335825 733.9181036654554Q1052.8480787335825 736.8781036654555 1048.1980787335824 736.8781036654555M1064.2680787335826 814.4281036654554H1031.9780787335826V811.7481036654553L1034.0980787335825 811.1781036654554Q1036.9180787335827 810.3381036654555 1037.8980787335827 808.6481036654554Q1038.8880787335825 806.9481036654554 1039.0280787335826 804.1281036654555V770.0781036654555Q1039.0280787335826 766.3481036654555 1038.8880787335825 762.3981036654554Q1038.8880787335825 759.5781036654555 1037.8280787335825 757.9581036654554Q1036.7780787335828 756.3381036654555 1033.9580787335826 755.7681036654554L1031.9780787335826 755.3481036654555V752.8081036654554L1056.6580787335824 744.6281036654555L1058.3480787335825 746.1781036654554L1057.9280787335827 766.2081036654554V804.2781036654553Q1057.9280787335827 807.0981036654554 1058.9780787335826 808.7881036654553Q1060.0380787335826 810.4781036654554 1062.7180787335826 811.3281036654554L1064.2680787335826 811.7481036654553Z "></path><g fill="#3d3d3d" paint-order="stroke"><path d="M631.9880787335826 723.7691036654552A86 86 0 0 0 629.2880787335826 732.5981036654553C634.8500787335826 736.0001036654552 641.0600787335826 738.1871036654552 646.5950787335826 741.6161036654552C649.6850787335825 730.9431036654552 644.8750787335825 719.5661036654551 635.0660787335826 714.3461036654552A97 97 0 0 1 632.0960787335825 723.7691036654552ZM633.0950787335826 730.9781036654551C634.2290787335826 727.1441036654552 635.7950787335826 723.4181036654552 636.9560787335826 719.6111036654552A20.52 20.52 0 0 1 644.1110787335825 736.3781036654552C640.4660787335825 734.4881036654551 636.6590787335825 732.9491036654551 633.0950787335826 730.9781036654551C633.6350787335825 729.0071036654551 633.2030787335825 730.9781036654551 633.0950787335826 730.9781036654551M631.6910787335826 809.6561036654552L629.3150787335826 804.9041036654552A26.2 26.2 0 0 0 618.5150787335825 817.4591036654551C623.5370787335826 816.3791036654552 628.6400787335825 815.7581036654551 633.5810787335826 814.3001036654553Q632.6090787335825 811.7891036654552 631.5830787335825 809.6561036654552C630.5570787335826 807.5231036654552 632.3390787335825 811.0601036654552 631.6910787335826 809.6561036654552M628.9910787335825 812.0051036654552C627.6680787335825 812.3021036654552 626.4530787335825 812.5451036654551 625.1030787335826 812.7881036654552A21.6 21.6 0 0 1 627.9920787335825 809.8721036654551Q628.5320787335826 810.9251036654553 629.0180787335826 812.0051036654552C628.7750787335826 812.0051036654552 628.9640787335826 811.7081036654552 629.0990787335826 812.0051036654552ZM630.3950787335825 748.6361036654552A27 27 0 0 0 635.9570787335825 756.7361036654552A86 86 0 0 0 642.6800787335826 748.6361036654552C638.1980787335825 745.9361036654552 633.2570787335826 743.8841036654551 628.5590787335825 741.4001036654552A29.7 29.7 0 0 0 630.3950787335825 748.6361036654552M633.6080787335825 747.8801036654552C634.5800787335826 748.3391036654552 636.4700787335826 749.2571036654551 637.6310787335826 749.8781036654552Q636.8210787335826 750.9041036654552 635.9300787335826 751.8221036654552A21.6 21.6 0 0 1 633.6080787335826 747.8801036654552C634.6070787335825 748.3121036654552 633.7970787335826 748.0691036654553 633.6080787335826 747.8801036654552M454.1930787335826 775.6631036654552A33.75 33.75 0 0 1 463.3190787335826 801.1781036654552A34.3 34.3 0 0 1 475.0100787335826 827.0711036654552A34.56 34.56 0 0 1 502.3610787335826 848.4011036654551A34.02 34.02 0 0 1 530.7380787335826 853.0181036654552A34.56 34.56 0 0 1 559.0070787335826 855.7181036654551A34.83 34.83 0 0 1 591.1370787335826 842.7041036654552A35.1 35.1 0 0 1 609.3350787335826 820.5101036654552A34.3 34.3 0 0 1 625.9130787335826 797.4521036654552A34.56 34.56 0 0 1 630.6650787335826 763.1081036654552A34.29 34.29 0 0 1 620.3510787335827 736.3781036654552A34.3 34.3 0 0 1 608.6600787335826 710.4851036654552A34.56 34.56 0 0 1 581.3090787335826 689.1551036654553A34.02 34.02 0 0 1 552.9320787335826 684.5381036654552A35.1 35.1 0 0 1 524.6630787335826 681.8381036654553A34.83 34.83 0 0 1 492.5330787335826 694.8521036654552A35.1 35.1 0 0 1 474.33507873358263 717.0461036654552A34.3 34.3 0 0 1 457.7570787335826 740.1041036654552A34.56 34.56 0 0 1 453.0050787335826 774.4481036654552ZM457.3520787335826 774.1781036654552A37.53 37.53 0 0 0 461.9150787335826 741.5081036654551A37.8 37.8 0 0 0 477.3590787335826 719.3141036654551A36.72 36.72 0 0 0 494.9090787335826 698.3351036654551A36.99 36.99 0 0 0 525.4730787335826 685.9421036654552A36.72 36.72 0 0 0 552.4730787335826 688.2101036654551A37.8 37.8 0 0 0 579.4730787335826 692.9081036654552A37.53 37.53 0 0 0 605.5010787335825 713.1851036654551A37.8 37.8 0 0 0 617.0030787335826 737.674103665455A37.8 37.8 0 0 0 626.3180787335825 763.3781036654551A37.53 37.53 0 0 0 621.7550787335826 796.0481036654551A37.8 37.8 0 0 0 606.3110787335826 818.2421036654551A36.72 36.72 0 0 0 588.7610787335826 839.2211036654551A36.99 36.99 0 0 0 558.1970787335827 851.6141036654551A36.45 36.45 0 0 0 531.1970787335827 849.3461036654551A37.8 37.8 0 0 0 504.1970787335826 844.6481036654552A37.53 37.53 0 0 0 478.16907873358264 824.3711036654552A37.8 37.8 0 0 0 466.6670787335826 799.8821036654551A37.8 37.8 0 0 0 457.35207873358263 774.1781036654552C457.9460787335826 773.3141036654551 458.13507873358265 775.0421036654552 457.35207873358263 774.1781036654552M464.6960787335826 826.3691036654552H466.8290787335826A27 27 0 0 0 461.29407873358264 810.7901036654553C459.7550787335826 815.6771036654552 457.7300787335826 820.4291036654552 456.5420787335826 825.4511036654552A78 78 0 0 0 464.6960787335826 826.3691036654552M463.1300787335826 822.9131036654552L460.83507873358263 822.7781036654552L462.1310787335826 818.9981036654552A19 19 0 0 1 463.2110787335826 822.9401036654552C462.6710787335826 822.7781036654553 463.1030787335826 822.7781036654553 463.1300787335826 822.9131036654553M484.6220787335826 862.5491036654553A30 30 0 0 1 481.6250787335826 862.9811036654553A23.76 23.76 0 0 0 500.95707873358265 868.9211036654553A105 105 0 0 1 497.31207873358267 858.8231036654553A89 89 0 0 1 484.6220787335826 862.5761036654553ZM490.5350787335826 864.5471036654553Q492.8570787335826 863.8721036654553 495.12507873358265 863.0621036654552C495.4490787335826 864.0611036654552 495.7190787335826 864.8711036654553 496.0700787335826 865.7621036654552A18.9 18.9 0 0 1 490.5350787335826 864.5471036654553C491.6420787335826 864.2501036654553 490.75107873358263 864.6281036654552 490.5350787335826 864.5471036654553M479.7350787335826 854.9081036654552A56.7 56.7 0 0 0 494.5040787335826 851.1011036654552A25.92 25.92 0 0 0 474.57807873358263 835.4411036654552C474.09207873358264 841.8671036654553 473.3090787335826 848.6981036654552 475.7660787335826 854.8541036654552A19 19 0 0 0 479.7080787335826 854.8541036654552ZM482.4350787335826 851.2361036654552A24.3 24.3 0 0 1 478.3310787335826 851.6141036654552A37.8 37.8 0 0 1 477.71007873358263 839.5451036654551A22.14 22.14 0 0 1 489.8870787335826 849.1841036654553A59 59 0 0 1 482.4350787335826 851.2631036654552ZM647.9990787335826 755.4671036654552C646.1360787335826 757.8971036654552 644.0570787335826 760.1381036654552 642.0050787335826 762.4061036654552A67.5 67.5 0 0 1 653.4800787335826 773.9081036654552A23.49 23.49 0 0 0 648.9440787335826 754.1711036654552L647.9720787335826 755.4671036654552ZM647.9990787335826 760.8671036654553L648.7820787335827 759.9761036654552A16.2 16.2 0 0 1 650.4020787335826 765.3761036654552A76 76 0 0 0 646.8380787335826 762.1361036654552L647.9450787335827 760.7051036654552ZM466.10007873358256 848.3201036654552A89 89 0 0 1 466.5050787335826 834.6851036654552C462.9140787335826 834.4691036654551 459.2960787335826 834.3071036654552 455.7050787335826 833.7401036654552A23.49 23.49 0 0 0 466.5050787335826 851.3711036654552Q466.2350787335826 849.7781036654551 466.10007873358256 848.3201036654552M462.9140787335826 837.8171036654552C462.7520787335826 839.8421036654552 462.6980787335826 840.9491036654551 462.6440787335826 843.2171036654552A16.2 16.2 0 0 1 459.8090787335826 837.8171036654552L462.9140787335826 838.0331036654552C462.8330787335826 838.5191036654552 462.1850787335826 837.7631036654552 462.9140787335826 837.7901036654553ZM617.5970787335825 840.2741036654552V845.8361036654552C628.3550787335826 843.1281036654552 635.7800787335825 833.2991036654553 635.4440787335826 822.2111036654552C629.3150787335826 823.9931036654552 622.8080787335825 824.3711036654552 616.7330787335826 826.3151036654551C616.8950787335826 830.8781036654552 617.1380787335826 835.6571036654552 617.5970787335826 840.2741036654552M620.2970787335826 828.8801036654552C624.2120787335825 827.9621036654552 628.2080787335826 827.4221036654551 632.1230787335826 826.5581036654552A21.6 21.6 0 0 1 621.1070787335826 841.1921036654552C620.9450787335826 837.0881036654553 620.3780787335826 833.0921036654552 620.2970787335826 828.8801036654552C620.2970787335826 828.8531036654551 620.1350787335825 829.0151036654552 620.1350787335825 828.8801036654552ZM606.6350787335825 857.3921036654551A24 24 0 0 0 608.0660787335826 854.2601036654552A100 100 0 0 1 597.4820787335826 852.3431036654551A67.5 67.5 0 0 1 593.2700787335826 868.0301036654553A25.1 25.1 0 0 0 606.6350787335826 857.3921036654552M603.0170787335826 856.8791036654552A18.9 18.9 0 0 1 599.1290787335827 861.0101036654553Q599.6960787335827 858.6881036654553 600.1550787335826 856.3121036654553ZM603.9350787335826 845.4041036654553Q606.6350787335826 845.8901036654552 609.3350787335826 846.2141036654552C609.5240787335827 840.8141036654553 608.7680787335826 835.6571036654552 608.5250787335826 830.3651036654553A26.2 26.2 0 0 0 599.2100787335826 844.4051036654553ZM603.5300787335826 841.9211036654552A21.6 21.6 0 0 1 605.7980787335827 837.9521036654553Q606.0140787335827 840.1661036654552 606.0680787335826 842.3801036654552L603.5030787335827 841.8941036654553C603.7460787335826 841.7051036654552 603.9350787335826 842.0021036654553 603.6110787335826 841.9211036654552ZM542.0240787335827 876.8051036654552L542.4020787335826 876.5351036654553C537.8390787335826 872.1071036654553 533.7620787335826 867.0851036654553 529.4690787335826 862.4141036654553C523.6910787335826 865.3841036654553 518.6690787335826 869.8121036654553 513.0260787335826 872.9171036654552A23.65 23.65 0 0 0 542.0240787335827 876.8051036654552M536.8940787335825 875.6441036654553A21.6 21.6 0 0 1 518.7230787335826 873.4301036654552C522.1790787335826 871.2161036654552 525.4460787335827 868.7321036654553 528.9560787335827 866.5721036654552C531.6560787335826 869.4611036654553 534.1670787335827 872.7011036654553 536.8940787335825 875.6441036654553C536.1920787335825 876.0221036654552 536.7050787335826 875.5901036654552 536.8940787335825 875.7791036654553ZM570.2390787335826 863.2781036654553A78.3 78.3 0 0 0 583.3070787335826 869.0021036654553C586.8440787335826 864.2231036654553 588.3290787335826 856.8521036654553 589.4090787335826 850.8851036654553A26.46 26.46 0 0 0 565.8920787335826 860.3081036654553Q568.0520787335827 861.8201036654552 570.2390787335826 863.2781036654553M570.9680787335826 859.7681036654553A22.68 22.68 0 0 1 585.4670787335826 853.9901036654553A43.2 43.2 0 0 1 581.7680787335826 865.2761036654553A43.2 43.2 0 0 1 570.9680787335826 859.8761036654553S571.3190787335826 859.9841036654552 570.9680787335826 859.7411036654553ZM575.2070787335826 875.5361036654552L575.6390787335827 875.3201036654552A70.2 70.2 0 0 1 561.2210787335827 866.9501036654552C559.2500787335827 869.9741036654552 557.3060787335826 873.0251036654552 555.0380787335827 875.8331036654552A23.76 23.76 0 0 0 575.2340787335827 875.5091036654552ZM566.5400787335826 874.5371036654552A18.9 18.9 0 0 1 560.3570787335826 874.2671036654552Q561.2480787335826 872.9981036654552 562.1120787335826 871.5671036654553Q564.2720787335827 873.0521036654552 566.5400787335826 874.4291036654553C566.3780787335827 874.5371036654553 565.7030787335826 874.0781036654553 566.5670787335827 874.5371036654553ZM540.1340787335827 861.9011036654551C542.8340787335826 865.0061036654552 545.5340787335826 868.1921036654552 548.3960787335826 871.0541036654552A95 95 0 0 0 554.3090787335826 862.5761036654552A26.46 26.46 0 0 0 538.1090787335827 859.6061036654552ZC540.8630787335826 862.7651036654552 539.4050787335826 861.0371036654552 540.1340787335827 861.9011036654551M545.5340787335826 862.9541036654552A21.6 21.6 0 0 1 549.5030787335827 863.9801036654552L548.1530787335827 865.9511036654552Q546.6950787335827 864.4931036654552 545.4530787335826 862.9541036654552ZM508.65207873358264 865.9781036654551C513.3500787335827 863.5211036654553 517.5080787335826 860.2271036654552 521.9360787335827 857.3651036654552A26.2 26.2 0 0 0 505.0880787335826 856.1501036654552A92 92 0 0 0 508.65207873358264 865.9781036654551C510.29907873358263 865.2221036654553 507.84207873358264 864.3311036654552 508.65207873358264 865.9781036654551M509.4350787335826 858.8771036654553A19 19 0 0 1 513.9980787335826 858.8771036654553Q512.1620787335826 860.1731036654552 510.29907873358263 861.3341036654551Q509.8400787335826 860.1461036654553 509.46207873358264 858.9041036654552C510.2180787335826 858.7421036654553 509.4350787335826 859.2011036654552 509.4350787335826 858.8771036654553M633.9050787335826 793.3211036654552C639.4670787335826 790.6211036654552 645.4610787335826 787.9211036654552 649.3490787335827 782.9531036654553C646.6490787335827 776.9861036654552 641.5460787335826 772.7471036654551 636.7400787335827 768.6161036654553A26.19 26.19 0 0 0 633.1490787335827 793.6991036654553ZM634.6880787335826 784.3841036654552A21.6 21.6 0 0 1 637.3880787335827 773.5841036654551A37.8 37.8 0 0 1 645.3260787335826 782.2781036654552A37.8 37.8 0 0 1 635.2010787335826 788.8661036654553A19 19 0 0 1 634.6880787335826 784.3841036654552 "></path><path d="M418.7150787335826 762.2711036654553A32.4 32.4 0 0 1 421.7660787335826 752.9831036654552A35.1 35.1 0 0 1 422.3870787335826 736.7831036654552L425.7350787335826 737.6741036654553A32.4 32.4 0 0 0 425.4110787335826 753.4961036654553A31.86 31.86 0 0 0 430.5410787335826 790.7831036654552C424.1610787335826 806.7751036654553 431.7610787335826 824.9301036654552 447.6320787335826 831.6071036654553A31.86 31.86 0 0 0 470.3660787335826 862.0091036654553A31.86 31.86 0 0 0 505.2770787335826 876.2921036654552C515.9370787335826 889.8331036654553 535.4820787335825 892.3321036654553 549.2060787335826 881.9081036654552A31.86 31.86 0 0 0 587.0060787335826 877.3991036654552A31.86 31.86 0 0 0 616.7060787335826 854.3141036654553C633.6960787335826 851.8441036654552 645.6030787335826 836.2561036654553 643.5170787335826 819.2141036654552A31.86 31.86 0 0 0 658.4750787335826 784.1141036654552A31.86 31.86 0 0 0 653.3450787335826 746.8271036654553C659.7250787335826 730.8351036654552 652.1250787335825 712.6801036654552 636.2540787335826 706.0031036654552A31.86 31.86 0 0 0 613.5200787335825 675.6011036654552A31.86 31.86 0 0 0 578.6090787335826 661.3181036654553C567.9510787335826 647.7181036654551 548.3430787335826 645.2031036654553 534.5990787335826 655.6751036654553A31.86 31.86 0 0 0 496.7990787335826 660.1841036654553A31.86 31.86 0 0 0 467.0990787335826 683.2691036654553C450.1090787335826 685.7391036654553 438.20207873358254 701.3271036654553 440.28807873358255 718.3691036654552A30.5 30.5 0 0 0 425.73507873358255 737.6471036654552L422.49507873358255 736.7831036654553A34.3 34.3 0 0 1 436.77807873358256 716.7221036654553C435.72807873358255 699.3931036654553 447.50207873358255 683.8991036654554 464.48007873358256 680.2721036654553A35.37 35.37 0 0 1 495.5030787335826 656.8901036654554A35.37 35.37 0 0 1 534.3290787335825 651.6791036654554C548.8440787335826 642.0981036654553 568.1860787335826 644.5901036654553 579.7970787335826 657.5381036654553A35.64 35.64 0 0 1 615.5720787335825 672.7121036654553A35.1 35.1 0 0 1 629.0720787335825 681.1361036654553A33.75 33.75 0 0 1 639.3860787335825 703.6541036654553C654.9280787335825 711.4321036654553 662.4380787335826 729.4141036654553 657.0440787335826 745.9361036654552A35.1 35.1 0 0 1 661.7960787335826 784.4921036654553A35.64 35.64 0 0 1 646.8920787335826 820.7531036654552C647.9840787335826 838.1121036654553 636.2000787335826 853.6531036654553 619.1900787335826 857.2841036654553A35.37 35.37 0 0 1 588.1670787335826 880.6661036654552A35.37 35.37 0 0 1 549.3140787335826 885.8771036654553C534.8050787335826 895.4421036654553 515.4810787335825 892.9511036654552 503.8730787335826 880.0181036654553A35.64 35.64 0 0 1 468.0980787335826 864.8441036654553A35.1 35.1 0 0 1 444.1760787335826 833.7941036654553C428.6460787335826 826.0171036654554 421.1390787335826 808.0531036654553 426.51807873358257 791.5391036654553A35.1 35.1 0 0 1 418.7150787335826 762.2711036654553 "></path><path d="M641.5730787335826 798.7211036654553L636.5510787335826 801.1511036654554C638.1710787335826 804.3911036654554 639.8180787335825 807.5501036654553 641.1410787335826 810.9521036654553A23.49 23.49 0 0 0 650.9960787335826 792.8351036654553A48.6 48.6 0 0 1 641.5730787335826 798.7481036654553ZM641.0870787335825 802.6901036654554Q643.4900787335825 801.5561036654553 645.8120787335827 800.2871036654553A18.9 18.9 0 0 1 642.4640787335826 805.4981036654553Q641.8160787335826 804.0941036654553 641.0870787335825 802.7981036654553C641.7350787335827 802.3661036654553 641.3840787335826 803.3111036654552 641.0600787335826 802.6631036654553ZM435.6710787335826 782.1161036654553C437.5340787335826 779.6861036654552 439.6130787335826 777.4451036654552 441.6650787335826 775.1771036654552A67.5 67.5 0 0 1 430.1900787335826 763.6751036654553A23.49 23.49 0 0 0 434.7260787335826 783.4121036654553ZM435.6710787335826 776.7161036654553L434.8880787335826 777.6071036654553A16.2 16.2 0 0 1 433.26807873358257 772.2071036654554C434.6450787335826 773.5571036654553 435.48207873358257 774.2861036654554 436.8320787335826 775.4471036654554L435.72507873358256 776.8781036654553ZM508.4360787335826 662.0201036654553L508.00407873358256 662.2361036654553A70.2 70.2 0 0 1 522.4220787335826 670.6061036654553C524.3930787335826 667.5821036654553 526.3370787335825 664.5311036654552 528.6050787335826 661.7231036654553A23.49 23.49 0 0 0 508.40907873358253 662.0471036654553ZM517.1030787335826 663.0191036654553A18.9 18.9 0 0 1 523.2860787335826 663.2891036654553Q522.3950787335825 664.5581036654553 521.5310787335826 665.9891036654553Q519.3710787335826 664.5041036654552 517.1030787335826 663.1271036654553C517.2650787335826 663.0191036654553 517.9400787335826 663.4781036654553 517.0760787335826 663.0191036654553ZM543.5630787335826 675.6821036654553C540.8630787335826 672.5771036654553 538.1630787335826 669.3911036654554 535.3010787335826 666.5291036654553A95 95 0 0 0 529.3880787335826 675.0071036654554A26.46 26.46 0 0 0 545.5880787335825 677.9771036654554ZM538.1630787335826 674.6291036654553A21.6 21.6 0 0 1 534.1940787335826 673.6031036654554L535.5440787335826 671.6321036654554Q536.9750787335826 673.0901036654553 538.2170787335826 674.6291036654553ZM575.0180787335826 671.5781036654553C570.3200787335826 674.0351036654554 566.1620787335826 677.3291036654552 561.7340787335826 680.1911036654553A26.2 26.2 0 0 0 578.5820787335826 681.4061036654552A92 92 0 0 0 575.0180787335826 671.5781036654553C573.3710787335826 672.3341036654554 575.8280787335826 673.2251036654553 575.0180787335826 671.5781036654553M574.2350787335827 678.6791036654554A19 19 0 0 1 569.6720787335826 678.6791036654554Q571.5080787335826 677.3831036654553 573.3710787335826 676.2221036654553Q573.8300787335827 677.4101036654554 574.2080787335826 678.6521036654553C573.4520787335827 678.8141036654554 574.2350787335827 678.3551036654553 574.2350787335827 678.6791036654554M599.0480787335825 675.0341036654554A30 30 0 0 1 602.0450787335826 674.6021036654554A23.76 23.76 0 0 0 582.7130787335826 668.6621036654553A105 105 0 0 1 586.3580787335826 678.7601036654553A89 89 0 0 1 599.0480787335827 675.0071036654554ZM593.1350787335825 673.0361036654554Q590.8130787335826 673.7111036654553 588.5450787335826 674.5211036654554A45 45 0 0 0 587.6000787335826 671.8211036654554A18.9 18.9 0 0 1 593.1620787335826 673.1171036654554C592.0280787335826 673.3331036654554 592.9190787335826 672.9551036654555 593.1350787335826 673.0361036654554M541.6460787335826 660.8051036654554L541.2680787335826 661.0751036654553C545.8310787335827 665.5031036654553 549.9080787335827 670.5251036654554 554.2010787335826 675.1961036654553C559.9790787335826 672.2261036654553 565.0010787335826 667.7981036654553 570.6440787335827 664.6931036654553A23.625 23.625 0 0 0 541.6460787335826 660.8051036654554M546.7760787335826 661.9661036654554A21.6 21.6 0 0 1 564.9470787335827 664.1801036654554C561.4910787335826 666.3941036654553 558.2240787335826 668.8781036654553 554.7140787335826 671.0381036654553C552.0140787335827 668.1491036654554 549.5030787335826 664.9091036654554 546.7760787335826 661.9661036654554C547.4780787335826 661.5881036654554 546.9650787335827 662.0201036654553 546.7760787335826 661.8311036654554ZM617.5700787335827 689.2361036654554A89 89 0 0 1 617.1650787335826 702.8711036654554C620.7560787335826 703.0871036654553 624.3740787335827 703.2491036654553 627.9650787335827 703.8161036654553A23.49 23.49 0 0 0 617.1650787335826 686.2121036654553Q617.4350787335827 687.7781036654553 617.5700787335827 689.2361036654554M620.7560787335826 699.7391036654553C620.9180787335827 697.7141036654554 620.9720787335826 696.6071036654553 621.0260787335826 694.3391036654554A16.2 16.2 0 0 1 623.8610787335826 699.7391036654553L620.7560787335826 699.5231036654553C620.8370787335826 699.0371036654553 621.4850787335827 699.7931036654553 620.7830787335827 699.7661036654554ZM618.9740787335827 711.2141036654554H616.8410787335827A27 27 0 0 0 622.3760787335826 726.7931036654554C623.9150787335826 721.9061036654554 625.9400787335826 717.1541036654553 627.1280787335827 712.1321036654554A78 78 0 0 0 618.9740787335827 711.2141036654554M620.5400787335826 714.6701036654554L622.8350787335826 714.8051036654554L621.5390787335826 718.5851036654553A19 19 0 0 1 620.4590787335826 714.6431036654553C620.9990787335826 714.8051036654554 620.5670787335827 714.8051036654554 620.5400787335826 714.6701036654554M603.9350787335826 682.6751036654553A56.7 56.7 0 0 0 589.1660787335826 686.4821036654553A25.92 25.92 0 0 0 609.0920787335826 702.1421036654554C609.5780787335826 695.7161036654554 610.3340787335826 688.8851036654553 607.9040787335827 682.7291036654553A19 19 0 0 0 603.9620787335826 682.7291036654553ZM601.2350787335827 686.3471036654553A24.3 24.3 0 0 1 605.3390787335827 685.9691036654553A37.8 37.8 0 0 1 605.9600787335827 698.0381036654553A22.14 22.14 0 0 1 593.7830787335827 688.3991036654554A59 59 0 0 1 601.2350787335827 686.3201036654553ZM451.9790787335826 727.9541036654552L454.3550787335826 732.6791036654554A26.2 26.2 0 0 0 465.15507873358257 720.1241036654553C460.1330787335826 721.2041036654552 455.03007873358257 721.8251036654553 450.0890787335826 723.2831036654553Q451.0610787335826 725.7941036654554 452.0870787335826 727.9271036654553C453.1130787335826 730.0601036654552 451.3310787335826 726.5501036654553 451.9790787335826 727.9541036654552M454.67907873358257 725.6051036654553A90 90 0 0 1 458.5670787335826 724.8221036654553A21.6 21.6 0 0 1 455.6780787335826 727.7381036654554Q455.1380787335826 726.6851036654552 454.6520787335826 725.6051036654553C454.8950787335826 725.6051036654553 454.7060787335826 725.9021036654553 454.5710787335826 725.6051036654553ZM449.7650787335826 744.2351036654553C444.2030787335826 746.9351036654552 438.2090787335826 749.6351036654553 434.32107873358257 754.6031036654554C437.0210787335826 760.5701036654552 442.12407873358256 764.8091036654553 446.9300787335826 768.9401036654554A26.19 26.19 0 0 0 450.52107873358256 743.8571036654553ZM448.98207873358257 753.1721036654553A21.6 21.6 0 0 1 446.2820787335826 763.9721036654553A37.8 37.8 0 0 1 438.3440787335826 755.2781036654553A37.8 37.8 0 0 1 448.4690787335826 748.6901036654554A19 19 0 0 1 448.98207873358257 753.1721036654553M451.6820787335826 813.7871036654553A86 86 0 0 0 454.3820787335826 804.9581036654554C448.8200787335826 801.5561036654553 442.6100787335826 799.3691036654553 437.0750787335826 795.9401036654554C433.9850787335826 806.6131036654554 438.7950787335826 817.9901036654553 448.6040787335826 823.2101036654553A97 97 0 0 1 451.5740787335826 813.7871036654553ZM450.5750787335826 806.5781036654553C449.4410787335826 810.4121036654553 447.8750787335826 814.1381036654553 446.7140787335826 817.9451036654553A20.79 20.79 0 0 1 439.55907873358257 801.1781036654554C443.2040787335826 803.0681036654553 447.01107873358256 804.6071036654553 450.5750787335826 806.5781036654553C450.03507873358257 808.5491036654553 450.4670787335826 806.5781036654553 450.5750787335826 806.5781036654553M442.0700787335826 738.8621036654554L447.0920787335826 736.4321036654553C445.4720787335826 733.1921036654553 443.8250787335826 730.0331036654553 442.5020787335826 726.6311036654554A22.14 22.14 0 0 0 433.4840787335826 739.7531036654553A27 27 0 0 0 432.6470787335826 744.7481036654553A48.6 48.6 0 0 1 442.0700787335826 738.8351036654553ZM442.5560787335826 734.8931036654553Q440.15307873358256 736.0271036654553 437.83107873358256 737.2961036654553A18.9 18.9 0 0 1 441.17907873358257 732.0851036654553Q441.8270787335826 733.4891036654553 442.5560787335826 734.7851036654554C441.90807873358256 735.2171036654554 442.2590787335826 734.2721036654553 442.58307873358257 734.9201036654554ZM513.4040787335825 674.2781036654553A78.3 78.3 0 0 0 500.3360787335826 668.5541036654554C496.79907873358263 673.3331036654554 495.3140787335826 680.7041036654552 494.2340787335826 686.6711036654553A26.46 26.46 0 0 0 517.7510787335826 677.2481036654553Q515.5910787335827 675.7361036654554 513.4040787335825 674.2781036654553M512.6750787335826 677.7881036654553A22.68 22.68 0 0 1 498.1760787335826 683.5661036654553A43.2 43.2 0 0 1 501.8750787335826 672.2801036654553A43.2 43.2 0 0 1 512.6750787335826 677.6801036654554S512.3240787335826 677.5721036654553 512.6750787335826 677.8151036654554ZM452.3030787335826 794.5361036654554L455.0030787335826 795.9131036654553A27 27 0 0 0 447.6050787335826 780.6851036654552A86 86 0 0 0 440.8820787335826 788.7851036654554A92 92 0 0 0 452.3030787335826 794.5361036654554M450.0350787335826 789.6761036654552C449.0630787335826 789.2171036654553 447.1730787335826 788.2991036654553 446.0120787335826 787.6781036654553Q446.8220787335826 786.6791036654553 447.7130787335826 785.7341036654552A21.6 21.6 0 0 1 450.0350787335826 789.6761036654552C449.0360787335826 789.2441036654552 449.8460787335826 789.4871036654553 450.0350787335826 789.6761036654552M477.0350787335826 680.1911036654553A24 24 0 0 0 475.6040787335826 683.3231036654553A100 100 0 0 1 486.18807873358264 685.2401036654553A67.5 67.5 0 0 1 490.40007873358263 669.5531036654552A25.1 25.1 0 0 0 477.0350787335826 680.1911036654552M480.6530787335826 680.7041036654552A18.9 18.9 0 0 1 484.5410787335826 676.5731036654552Q483.9740787335826 678.8951036654552 483.51507873358264 681.2711036654551L480.6530787335826 680.7311036654551ZM466.07307873358263 697.2821036654552V691.7201036654551C455.3150787335826 694.4281036654552 447.89007873358264 704.2571036654551 448.2260787335826 715.3451036654551C454.3550787335826 713.5631036654552 460.8620787335826 713.1851036654551 466.9370787335826 711.2411036654552A221 221 0 0 0 466.0730787335826 697.2821036654552M463.3730787335826 708.6761036654552C459.45807873358257 709.5941036654551 455.4620787335826 710.1341036654552 451.5470787335826 710.9981036654551A21.6 21.6 0 0 1 462.5630787335826 696.3641036654551C462.7250787335826 700.4681036654551 463.2920787335826 704.4641036654552 463.3730787335826 708.6761036654552C463.3730787335826 708.7031036654552 463.5350787335826 708.5411036654552 463.5350787335826 708.6761036654552ZM479.7350787335826 692.1791036654552Q477.03507873358257 691.6931036654552 474.3350787335826 691.3691036654552C474.1460787335826 696.7691036654551 474.9020787335826 701.9261036654552 475.1450787335826 707.2181036654551A26.2 26.2 0 0 0 484.4600787335826 693.1781036654552ZM480.1400787335826 695.6621036654551A21.6 21.6 0 0 1 477.8720787335826 699.6311036654552Q477.6560787335826 697.4171036654552 477.6020787335826 695.2031036654552ZC479.8970787335826 695.8511036654552 479.70807873358257 695.5541036654552 480.0320787335826 695.6351036654552Z "></path></g><rect width="404.883" height="33.9" x="178.37607873358252" y="353.6181036654554" fill="none" rx="0" ry="0" transform="translate(522.94 481.31)"></rect><path d="M715.8280787335825 855.1081036654555Q715.8280787335825 857.0081036654553 714.8880787335826 858.3481036654555T712.2480787335826 860.3981036654554Q710.5480787335825 861.0981036654555 708.2480787335826 861.0981036654555Q707.0280787335826 861.0981036654555 705.9480787335826 860.9781036654554Q704.8580787335826 860.8681036654555 703.9480787335826 860.6481036654554Q703.0480787335825 860.4281036654554 702.3580787335826 860.0981036654555V857.7181036654554Q703.4580787335826 858.1681036654554 705.0380787335826 858.5581036654554T708.3480787335826 858.9481036654554Q709.9580787335826 858.9481036654554 711.0680787335826 858.5081036654553Q712.1880787335826 858.0781036654554 712.7680787335826 857.2681036654553Q713.3380787335826 856.4581036654554 713.3380787335826 855.3081036654554Q713.3380787335826 854.2181036654554 712.8580787335826 853.4781036654554T711.2580787335826 852.1281036654555T708.1980787335826 850.8281036654554Q706.8380787335825 850.3481036654554 705.7980787335825 849.7681036654553T704.0580787335825 848.4581036654554Q703.3480787335826 847.7281036654554 702.9980787335826 846.7581036654553Q702.6380787335826 845.7881036654553 702.6380787335826 844.5481036654554Q702.6380787335826 842.8281036654554 703.5080787335826 841.6081036654555T705.9180787335827 839.7381036654554Q707.4680787335826 839.0781036654554 709.4780787335826 839.0781036654554Q711.1880787335826 839.0781036654554 712.6480787335827 839.4081036654554Q714.1080787335826 839.7281036654554 715.3180787335826 840.2681036654553L714.5480787335827 842.4081036654554Q713.3880787335827 841.9281036654554 712.0880787335827 841.5981036654554Q710.7980787335827 841.2781036654553 709.4180787335827 841.2781036654553T707.0980787335827 841.6781036654554Q706.1480787335827 842.0881036654554 705.6480787335827 842.8181036654553Q705.1580787335827 843.5481036654553 705.1580787335827 844.5581036654553Q705.1580787335827 845.6881036654554 705.6280787335827 846.4381036654554Q706.1080787335827 847.1781036654554 707.1580787335827 847.7581036654553Q708.1980787335826 848.3381036654553 709.9280787335827 848.9681036654554Q711.8180787335826 849.6581036654553 713.1380787335827 850.4281036654553T715.1480787335827 852.2981036654553Q715.8280787335826 853.4081036654553 715.8280787335826 855.1081036654552M719.8280787335826 844.7481036654553H722.2680787335826V860.8081036654553H719.8280787335826ZM721.0780787335826 838.7481036654553Q721.6780787335827 838.7481036654553 722.1080787335826 839.1381036654552Q722.5380787335826 839.5181036654553 722.5380787335826 840.3381036654553Q722.5380787335826 841.1481036654552 722.1080787335826 841.5381036654553Q721.6780787335827 841.9381036654552 721.0780787335826 841.9381036654552Q720.4480787335826 841.9381036654552 720.0280787335826 841.5381036654553Q719.6080787335826 841.1481036654552 719.6080787335826 840.3381036654553Q719.6080787335826 839.5181036654553 720.0280787335826 839.1381036654552Q720.4480787335826 838.7481036654553 721.0780787335826 838.7481036654553M744.8380787335826 844.4581036654553Q747.4880787335826 844.4581036654553 748.8380787335826 845.8381036654553Q750.1880787335826 847.2281036654553 750.1880787335826 850.2881036654553V860.8081036654553H747.7780787335826V850.4081036654552Q747.7780787335826 848.4581036654553 746.9380787335826 847.4781036654553Q746.0980787335827 846.5081036654552 744.4380787335826 846.5081036654552Q742.1080787335827 846.5081036654552 741.0580787335826 847.8581036654552Q739.9980787335826 849.2081036654553 739.9980787335826 851.8281036654553V860.8081036654553H737.5880787335826V850.4081036654553Q737.5880787335826 849.0981036654553 737.2080787335826 848.2381036654554Q736.8380787335826 847.3681036654552 736.0980787335826 846.9381036654553T734.2280787335826 846.5081036654553Q732.6380787335827 846.5081036654553 731.6680787335827 847.1681036654553T730.2680787335826 849.1281036654552Q729.8380787335826 850.4181036654553 729.8380787335826 852.3081036654553V860.8081036654553H727.4080787335827V844.7481036654553H729.3680787335826L729.7380787335826 847.0181036654553H729.8680787335826Q730.3480787335826 846.1881036654553 731.0780787335825 845.6181036654552Q731.8180787335825 845.0481036654553 732.7180787335826 844.7481036654553Q733.6280787335826 844.4581036654553 734.6580787335826 844.4581036654553Q736.4880787335826 844.4581036654553 737.7280787335826 845.1381036654552Q738.9580787335826 845.8181036654553 739.5180787335826 847.2081036654553H739.6480787335826Q740.4380787335826 845.8181036654553 741.8180787335825 845.1381036654552T744.8380787335825 844.4581036654553M762.7180787335826 844.4581036654553Q765.7280787335826 844.4581036654553 767.5080787335826 846.5281036654553Q769.2980787335825 848.5881036654553 769.2980787335825 852.7381036654552Q769.2980787335825 855.4781036654553 768.4780787335826 857.3381036654553T766.1680787335827 860.1481036654552Q764.6880787335826 861.0981036654553 762.6680787335827 861.0981036654553Q761.3880787335827 861.0981036654553 760.4180787335827 860.7581036654553Q759.4580787335826 860.4281036654553 758.7680787335826 859.8581036654552Q758.0780787335826 859.2781036654553 757.6280787335827 858.6081036654552H757.4480787335826Q757.4880787335826 859.1781036654553 757.5580787335826 859.9881036654554Q757.6280787335827 860.7881036654553 757.6280787335827 861.3881036654552V867.9881036654554H755.1780787335827V844.7481036654553H757.1880787335826L757.5080787335826 847.1281036654552H757.6280787335827Q758.0980787335827 846.3881036654552 758.7680787335826 845.7881036654553Q759.4380787335826 845.1781036654553 760.4180787335827 844.8181036654553Q761.3880787335827 844.4581036654553 762.7180787335826 844.4581036654553M762.2980787335825 846.5081036654553Q760.6280787335826 846.5081036654553 759.6080787335826 847.1581036654552Q758.5880787335826 847.7981036654553 758.1180787335826 849.0781036654553Q757.6580787335827 850.3581036654552 757.6280787335826 852.2981036654553V852.7681036654553Q757.6280787335826 854.7981036654553 758.0680787335825 856.2081036654554Q758.5180787335826 857.6081036654552 759.5480787335825 858.3481036654553Q760.5880787335826 859.0781036654553 762.3280787335825 859.0781036654553Q763.8180787335825 859.0781036654553 764.8180787335825 858.2681036654553Q765.8180787335825 857.4681036654554 766.3080787335825 856.0181036654553Q766.7980787335825 854.5781036654553 766.7980787335825 852.7081036654554Q766.7980787335825 849.8681036654554 765.6880787335826 848.1881036654554T762.2980787335825 846.5081036654553M775.9680787335826 838.0081036654553V860.8081036654553H773.5180787335826V838.0081036654553ZM781.1080787335826 844.7481036654553H783.5380787335826V860.8081036654553H781.1080787335826ZM782.3480787335826 838.7481036654553Q782.9480787335826 838.7481036654553 783.3880787335827 839.1381036654553Q783.8180787335826 839.5181036654553 783.8180787335826 840.3381036654553Q783.8180787335826 841.1481036654553 783.3880787335827 841.5381036654553Q782.9480787335826 841.9381036654553 782.3480787335826 841.9381036654553Q781.7180787335826 841.9381036654553 781.3080787335825 841.5381036654553Q780.8880787335826 841.1481036654553 780.8880787335826 840.3381036654553Q780.8880787335826 839.5181036654553 781.3080787335825 839.1381036654553Q781.7180787335826 838.7481036654553 782.3480787335826 838.7481036654553M795.8180787335826 844.7481036654553V846.6581036654554H791.8180787335826V860.8081036654553H789.3880787335827V846.6581036654554H786.5480787335827V845.4881036654554L789.3880787335827 844.6781036654554V843.6081036654554Q789.3880787335827 841.5881036654554 789.9880787335826 840.3181036654553T791.7280787335826 838.4481036654554Q792.8780787335827 837.8481036654553 794.5180787335827 837.8481036654553Q795.4380787335826 837.8481036654553 796.2080787335826 838.0081036654553Q796.9780787335826 838.1781036654554 797.5580787335828 838.3781036654553L796.9280787335827 840.2981036654553Q796.4380787335826 840.1381036654553 795.8080787335828 839.9981036654553Q795.1880787335826 839.8581036654554 794.5480787335828 839.8581036654554Q793.1480787335827 839.8581036654554 792.4880787335827 840.7581036654553Q791.8180787335828 841.6581036654553 791.8180787335828 843.5781036654553V844.7481036654553ZM802.6680787335827 860.8381036654553L796.2380787335826 844.7481036654553H798.8480787335827L802.3880787335827 854.0681036654553Q802.6980787335826 854.8881036654553 802.9580787335826 855.6381036654553Q803.2280787335826 856.3981036654553 803.4280787335827 857.0881036654553Q803.6380787335827 857.7781036654553 803.7480787335827 858.4181036654553H803.8580787335827Q804.0580787335828 857.6881036654553 804.4380787335826 856.4881036654554Q804.8180787335828 855.2981036654553 805.2580787335827 854.0481036654553L808.6180787335827 844.7481036654553H811.2380787335827L804.2480787335827 863.1681036654553Q803.6980787335826 864.6481036654553 802.9580787335826 865.7381036654554Q802.2180787335826 866.8381036654553 801.1580787335827 867.4381036654553Q800.1080787335827 868.0281036654553 798.6080787335827 868.0281036654553Q797.9180787335827 868.0281036654553 797.3980787335827 867.9481036654553Q796.8680787335827 867.8681036654552 796.4880787335826 867.7681036654553V865.8181036654553Q796.8080787335826 865.8881036654552 797.2680787335826 865.9481036654553T798.2280787335826 866.0081036654553Q799.1380787335827 866.0081036654553 799.8080787335825 865.6581036654552Q800.4680787335826 865.3181036654553 800.9580787335826 864.6581036654552Q801.4380787335826 863.9981036654552 801.7880787335826 863.0881036654553ZM813.9780787335826 857.3081036654553H816.5880787335827L816.7780787335827 857.6481036654553Q816.5080787335827 858.7181036654554 816.1080787335827 859.9281036654553Q815.7080787335826 861.1481036654553 815.2280787335826 862.3681036654552Q814.7580787335826 863.5981036654553 814.2680787335827 864.6581036654553H812.4580787335826Q812.7580787335827 863.4881036654554 813.0580787335828 862.1981036654554Q813.3480787335827 860.8981036654553 813.5880787335827 859.6281036654553Q813.8280787335827 858.3681036654554 813.9780787335826 857.3081036654553M841.1780787335827 860.8081036654553H839.1480787335827L831.9480787335826 841.8481036654554H831.8380787335827Q831.8880787335827 842.4481036654554 831.9380787335826 843.3181036654554Q831.9780787335827 844.1781036654554 832.0080787335827 845.1981036654554T832.0380787335827 847.2681036654553V860.8081036654554H829.7280787335826V839.3881036654554H833.4180787335827L840.1980787335826 857.1981036654554H840.2980787335827L847.1880787335826 839.3881036654554H850.8480787335827V860.8081036654554H848.3880787335827V847.0981036654555Q848.3880787335827 846.1381036654554 848.4180787335827 845.1781036654554Q848.4480787335826 844.2281036654554 848.4880787335826 843.3681036654555T848.5780787335826 841.8781036654555H848.4580787335826ZM862.3480787335827 844.4781036654554Q865.2180787335826 844.4781036654554 866.6080787335827 845.7681036654553T867.9980787335826 849.8781036654555V860.7981036654554H866.2280787335826L865.7580787335826 858.4181036654554H865.6380787335827Q864.9680787335826 859.2981036654554 864.2380787335826 859.8981036654554Q863.5080787335826 860.4881036654554 862.5480787335827 860.7881036654554T860.1980787335826 861.0881036654555Q858.7280787335826 861.0881036654555 857.5880787335826 860.5781036654555Q856.4580787335826 860.0581036654555 855.8080787335826 859.0181036654554T855.1580787335827 856.3881036654554Q855.1580787335827 853.9881036654555 857.0580787335826 852.6981036654554T862.8580787335827 851.2881036654554L865.6280787335827 851.1681036654554V850.1881036654554Q865.6280787335827 848.1081036654555 864.7380787335826 847.2781036654553Q863.8380787335827 846.4381036654554 862.2180787335826 846.4381036654554Q860.9580787335826 846.4381036654554 859.8080787335826 846.8081036654554Q858.6680787335827 847.1681036654554 857.6480787335827 847.6681036654554L856.8980787335827 845.8281036654555Q857.9780787335826 845.2681036654554 859.3880787335827 844.8681036654555Q860.7980787335827 844.4781036654555 862.3480787335826 844.4781036654555M865.5980787335826 854.3681036654555V852.8881036654554L863.1480787335827 852.9881036654555Q860.1480787335827 853.1081036654555 858.9180787335827 853.9681036654555Q857.6880787335826 854.8381036654555 857.6880787335826 856.4181036654554Q857.6880787335826 857.7881036654555 858.5280787335826 858.4481036654554Q859.3580787335825 859.1081036654555 860.7380787335826 859.1081036654555Q862.8780787335825 859.1081036654555 864.2380787335826 857.9281036654554Q865.5980787335825 856.7381036654555 865.5980787335825 854.3681036654555M880.6080787335825 844.4581036654554Q883.4680787335826 844.4581036654554 884.9380787335825 845.8581036654555Q886.3980787335825 847.2581036654553 886.3980787335825 850.3481036654555V860.8081036654554H883.9980787335826V850.5081036654553Q883.9980787335826 848.4981036654553 883.0780787335825 847.5081036654553Q882.1680787335824 846.5081036654553 880.2780787335826 846.5081036654553Q877.6080787335825 846.5081036654553 876.5280787335826 848.0181036654553Q875.4380787335825 849.5281036654553 875.4380787335825 852.3981036654554V860.8081036654554H873.0080787335826V844.7481036654553H874.9780787335826L875.3380787335825 847.0681036654554H875.4680787335826Q875.9880787335826 846.2181036654554 876.7780787335826 845.6381036654554T878.5480787335825 844.7581036654553T880.6080787335825 844.4581036654554M897.4080787335824 844.4781036654554Q900.2780787335826 844.4781036654554 901.6680787335824 845.7681036654553T903.0580787335825 849.8781036654555V860.7981036654554H901.2880787335826L900.8180787335825 858.4181036654554H900.6980787335824Q900.0280787335826 859.2981036654554 899.2980787335825 859.8981036654554Q898.5580787335825 860.4881036654554 897.5980787335825 860.7881036654554T895.2480787335824 861.0881036654555Q893.7880787335823 861.0881036654555 892.6480787335825 860.5781036654555Q891.5180787335823 860.0581036654555 890.8680787335825 859.0181036654554Q890.2080787335824 857.9781036654554 890.2080787335824 856.3881036654554Q890.2080787335824 853.9881036654555 892.1180787335825 852.6981036654554Q894.0180787335823 851.4081036654554 897.9180787335824 851.2881036654554L900.6880787335824 851.1681036654554V850.1881036654554Q900.6880787335824 848.1081036654555 899.7880787335823 847.2781036654553Q898.8980787335825 846.4381036654554 897.2680787335823 846.4381036654554Q896.0180787335823 846.4381036654554 894.8680787335825 846.8081036654554Q893.7280787335824 847.1681036654554 892.6980787335824 847.6681036654554L891.9580787335824 845.8281036654555Q893.0380787335823 845.2681036654554 894.4480787335824 844.8681036654555Q895.8480787335823 844.4781036654555 897.4080787335824 844.4781036654555M900.6580787335824 854.3681036654555V852.8881036654554L898.2080787335824 852.9881036654555Q895.2080787335824 853.1081036654555 893.9780787335824 853.9681036654555Q892.7480787335824 854.8381036654555 892.7480787335824 856.4181036654554Q892.7480787335824 857.7881036654555 893.5780787335823 858.4481036654554Q894.4180787335824 859.1081036654555 895.7980787335823 859.1081036654555Q897.9280787335824 859.1081036654555 899.2980787335823 857.9281036654554Q900.6580787335824 856.7381036654555 900.6580787335824 854.3681036654555M912.5580787335823 868.0081036654555Q909.3980787335825 868.0081036654555 907.6880787335824 866.8381036654555Q905.9680787335824 865.6581036654554 905.9680787335824 863.5281036654554Q905.9680787335824 862.0181036654554 906.9280787335824 860.9481036654554T909.5880787335823 859.5281036654554Q908.9580787335824 859.2381036654554 908.5080787335824 858.6481036654554Q908.0680787335823 858.0681036654555 908.0680787335823 857.3081036654555Q908.0680787335823 856.4281036654554 908.5580787335823 855.7581036654555T910.0580787335823 854.4781036654555Q908.7980787335823 853.9681036654555 908.0080787335824 852.7381036654555Q907.2280787335824 851.5181036654554 907.2280787335824 849.8881036654554Q907.2280787335824 848.1681036654554 907.9480787335824 846.9381036654554Q908.6680787335824 845.7181036654554 910.0280787335823 845.0681036654555Q911.3880787335825 844.4281036654554 913.3180787335823 844.4281036654554Q913.7480787335824 844.4281036654554 914.1780787335824 844.4681036654555Q914.6080787335823 844.4981036654555 915.0080787335824 844.5681036654555Q915.3980787335825 844.6381036654554 915.6980787335824 844.7181036654555H921.2080787335824V846.2881036654555L918.2480787335824 846.6581036654554Q918.6880787335824 847.2281036654555 918.9780787335824 848.0281036654555Q919.2680787335823 848.8381036654555 919.2680787335823 849.8181036654555Q919.2680787335823 852.2181036654555 917.6480787335825 853.6381036654554Q916.0180787335823 855.0481036654555 913.1780787335824 855.0481036654555Q912.4980787335824 855.0481036654555 911.7980787335823 854.9281036654555Q911.0780787335823 855.3281036654555 910.7080787335824 855.8081036654555Q910.3380787335823 856.2981036654555 910.3380787335823 856.9281036654555Q910.3380787335823 857.3881036654554 910.6180787335823 857.6681036654555Q910.9080787335822 857.9481036654555 911.4480787335824 858.0781036654555Q911.9880787335824 858.1981036654556 912.7480787335824 858.1981036654556H915.5780787335823Q918.1980787335824 858.1981036654556 919.5980787335823 859.2981036654555T920.9980787335824 862.5081036654556Q920.9980787335824 865.1681036654556 918.8280787335823 866.5881036654555T912.5580787335823 868.0081036654556M912.6380787335825 866.1081036654556Q914.6280787335825 866.1081036654556 915.9380787335824 865.7081036654556Q917.2480787335824 865.2981036654555 917.8980787335825 864.5481036654555T918.5480787335823 862.7581036654556Q918.5480787335823 861.7881036654555 918.1080787335823 861.2981036654555Q917.6780787335824 860.8081036654555 916.8280787335823 860.6381036654556T914.7480787335824 860.4681036654556H911.9580787335824Q910.8780787335822 860.4681036654556 910.0680787335823 860.8081036654555Q909.2680787335823 861.1381036654554 908.8380787335823 861.7981036654555Q908.3980787335822 862.4581036654556 908.3980787335822 863.4381036654555Q908.3980787335822 864.7481036654556 909.4980787335824 865.4281036654555T912.6380787335822 866.1081036654555M913.2680787335823 853.2781036654555Q915.0080787335824 853.2781036654555 915.8880787335822 852.3981036654556T916.7680787335823 849.8381036654555Q916.7680787335823 848.0281036654555 915.8680787335823 847.1281036654556Q914.9780787335824 846.2281036654556 913.2380787335824 846.2281036654556Q911.5680787335823 846.2281036654556 910.6680787335822 847.1581036654557T909.7680787335823 849.8781036654557Q909.7680787335823 851.5181036654556 910.6680787335822 852.3981036654557Q911.5780787335823 853.2781036654555 913.2680787335823 853.2781036654555M930.5480787335823 844.4581036654556Q932.5980787335823 844.4581036654556 934.0680787335823 845.3681036654557Q935.5280787335823 846.2781036654557 936.3080787335823 847.9081036654557Q937.0780787335823 849.5381036654557 937.0780787335823 851.7281036654556V853.2281036654556H925.9980787335821Q926.0380787335821 856.0581036654556 927.3980787335822 857.5381036654557T931.2380787335821 859.0181036654557Q932.7580787335821 859.0181036654557 933.9380787335822 858.7381036654557Q935.1080787335823 858.4581036654557 936.3680787335823 857.9181036654556V860.0581036654557Q935.1480787335822 860.5981036654557 933.9580787335822 860.8481036654557Q932.7580787335821 861.0981036654557 931.1380787335822 861.0981036654557Q928.8180787335821 861.0981036654557 927.0980787335823 860.1581036654557Q925.3780787335822 859.2081036654557 924.4280787335822 857.3781036654557T923.4780787335822 852.8981036654557Q923.4780787335822 850.2981036654558 924.3480787335823 848.4081036654557Q925.2180787335822 846.5081036654558 926.8080787335823 845.4881036654557Q928.3980787335822 844.4581036654557 930.5480787335823 844.4581036654557M930.5180787335823 846.4481036654557Q928.5680787335823 846.4481036654557 927.4180787335822 847.7281036654557Q926.2580787335824 848.9981036654557 926.0380787335823 851.2881036654558H934.5380787335823Q934.5180787335823 849.8481036654557 934.0880787335823 848.7581036654558T932.7780787335823 847.0581036654557T930.5180787335823 846.4481036654557M941.3880787335822 857.3081036654557H943.9980787335824L944.1880787335824 857.6481036654557Q943.9280787335824 858.7181036654557 943.5180787335823 859.9281036654556Q943.1180787335825 861.1481036654557 942.6380787335825 862.3681036654557Q942.1680787335824 863.5981036654557 941.6780787335824 864.6581036654557H939.8680787335825Q940.1780787335824 863.4881036654557 940.4680787335824 862.1981036654557Q940.7580787335824 860.8981036654557 940.9980787335824 859.6281036654557Q941.2380787335824 858.3681036654557 941.3880787335825 857.3081036654557M957.1380787335825 839.3881036654557H962.7280787335824Q966.8780787335825 839.3881036654557 968.7880787335823 841.0081036654558T970.6980787335824 845.6481036654557Q970.6980787335824 847.0081036654558 970.2580787335824 848.2281036654557Q969.8080787335823 849.4481036654557 968.8080787335823 850.3881036654557Q967.8180787335823 851.3181036654557 966.1980787335822 851.8481036654557T962.2380787335821 852.3781036654557H959.6280787335822V860.8081036654557H957.1380787335822ZM962.4980787335824 841.5181036654558H959.6280787335825V850.2481036654558H961.9580787335824Q964.0080787335824 850.2481036654558 965.3780787335825 849.8081036654557T967.4380787335824 848.3781036654557Q968.1180787335823 847.3881036654557 968.1180787335823 845.7481036654558Q968.1180787335823 843.6081036654557 966.7580787335824 842.5581036654557Q965.3980787335822 841.5181036654558 962.4980787335824 841.5181036654558M982.1080787335823 844.4581036654557Q982.5980787335823 844.4581036654557 983.1180787335823 844.5081036654558Q983.6480787335822 844.5581036654557 984.0580787335823 844.6481036654557L983.7480787335824 846.9081036654557Q983.3580787335825 846.7981036654558 982.8780787335825 846.7381036654557Q982.3880787335825 846.6881036654556 981.9680787335824 846.6881036654556Q980.9980787335824 846.6881036654556 980.1380787335825 847.0681036654557Q979.2880787335823 847.4581036654556 978.6380787335825 848.1881036654556Q977.9980787335824 848.9081036654557 977.6280787335825 849.9281036654556Q977.2680787335823 850.9481036654556 977.2680787335823 852.1881036654556V860.8081036654557H974.8180787335825V844.7481036654557H976.8380787335825L977.0980787335825 847.7081036654556H977.2080787335826Q977.6980787335826 846.8181036654557 978.4080787335827 846.0781036654557Q979.1080787335827 845.3381036654557 980.0380787335826 844.8981036654557T982.1080787335827 844.4581036654556M1000.9080787335827 852.7481036654557Q1000.9080787335827 854.7281036654557 1000.3980787335827 856.2781036654557T998.9180787335827 858.8981036654557T996.5780787335825 860.5381036654557Q995.2080787335826 861.0981036654557 993.4880787335826 861.0981036654557Q991.8680787335825 861.0981036654557 990.5280787335826 860.5381036654557Q989.1880787335824 859.9681036654556 988.2180787335826 858.8981036654557T986.7080787335826 856.2781036654557Q986.1780787335827 854.7281036654556 986.1780787335827 852.7481036654557Q986.1780787335827 850.1081036654557 987.0680787335825 848.2581036654557T989.6280787335825 845.4281036654556Q991.2880787335826 844.4581036654556 993.5880787335825 844.4581036654556Q995.7880787335826 844.4581036654556 997.4280787335827 845.4381036654556Q999.0780787335825 846.4181036654556 999.9980787335826 848.2781036654557Q1000.9080787335827 850.1281036654557 1000.9080787335827 852.7481036654557M988.6980787335826 852.7481036654557Q988.6980787335826 854.6781036654556 989.2080787335826 856.1081036654557Q989.7180787335826 857.5281036654558 990.7880787335826 858.2981036654558Q991.8580787335827 859.0781036654557 993.5380787335826 859.0781036654557Q995.2080787335826 859.0781036654557 996.2880787335826 858.2981036654558Q997.3680787335827 857.5281036654558 997.8780787335827 856.1081036654557Q998.3880787335827 854.6781036654556 998.3880787335827 852.7481036654557Q998.3880787335827 850.8281036654557 997.8780787335827 849.4281036654556T996.2980787335825 847.2681036654557T993.5280787335826 846.5081036654557Q991.0180787335826 846.5081036654557 989.8580787335827 848.1681036654556Q988.6980787335826 849.8181036654557 988.6980787335826 852.7481036654557M1015.5080787335826 856.4081036654557Q1015.5080787335826 857.9481036654557 1014.7380787335826 858.9981036654557T1012.5480787335825 860.5681036654557Q1011.1180787335827 861.0981036654557 1009.1380787335827 861.0981036654557Q1007.4580787335826 861.0981036654557 1006.2280787335826 860.8381036654557Q1004.9880787335826 860.5681036654557 1004.0680787335828 860.0881036654557V857.8481036654557Q1005.0480787335828 858.3281036654557 1006.4180787335827 858.7281036654556Q1007.7780787335828 859.1181036654557 1009.1980787335826 859.1181036654557Q1011.2780787335828 859.1181036654557 1012.2180787335826 858.4481036654556Q1013.1480787335827 857.7781036654555 1013.1480787335827 856.6181036654557Q1013.1480787335827 855.9581036654556 1012.7780787335826 855.4481036654556Q1012.4080787335827 854.9481036654556 1011.5280787335826 854.4681036654556Q1010.6480787335827 853.9981036654556 1009.0980787335827 853.4181036654556Q1007.5580787335828 852.8381036654556 1006.4380787335826 852.2581036654556T1004.7080787335826 850.8481036654555Q1004.0980787335827 850.0081036654556 1004.0980787335827 848.6781036654555Q1004.0980787335827 846.6381036654554 1005.7480787335826 845.5481036654555T1010.0780787335827 844.4581036654556Q1011.5280787335828 844.4581036654556 1012.7980787335828 844.7481036654556Q1014.0580787335828 845.0281036654555 1015.1580787335827 845.5081036654556L1014.3380787335827 847.4581036654556Q1013.3380787335827 847.0381036654555 1012.2180787335826 846.7381036654556Q1011.0880787335827 846.4481036654555 1009.9180787335827 846.4481036654555Q1008.2280787335826 846.4481036654555 1007.3280787335827 847.0081036654556T1006.4280787335827 848.5281036654555Q1006.4280787335827 849.2781036654555 1006.8480787335827 849.7581036654556Q1007.2680787335826 850.2481036654556 1008.1880787335826 850.6681036654555Q1009.1080787335827 851.0981036654555 1010.6180787335827 851.6681036654555Q1012.1280787335827 852.2181036654556 1013.2280787335826 852.8181036654555Q1014.3280787335827 853.4081036654554 1014.9180787335827 854.2481036654556T1015.5080787335828 856.4081036654555M1026.9680787335828 844.4581036654556Q1029.9680787335828 844.4581036654556 1031.7580787335828 846.5281036654555Q1033.5380787335828 848.5881036654555 1033.5380787335828 852.7381036654556Q1033.5380787335828 855.4781036654556 1032.7180787335826 857.3381036654555T1030.4180787335827 860.1481036654556Q1028.9280787335827 861.0981036654555 1026.9080787335827 861.0981036654555Q1025.6280787335827 861.0981036654555 1024.6680787335827 860.7581036654556Q1023.6980787335826 860.4281036654556 1023.0080787335828 859.8581036654556Q1022.3180787335828 859.2781036654555 1021.8680787335827 858.6081036654556H1021.6880787335829Q1021.7380787335828 859.1781036654556 1021.7980787335828 859.9881036654556Q1021.8680787335829 860.7881036654555 1021.8680787335829 861.3881036654556V867.9881036654556H1019.4180787335829V844.7481036654556H1021.4280787335829L1021.7480787335828 847.1281036654556H1021.8680787335829Q1022.338078733583 846.3881036654556 1023.0080787335828 845.7881036654555Q1023.6880787335829 845.1781036654556 1024.658078733583 844.8181036654555T1026.9680787335828 844.4581036654556M1026.5380787335828 846.5081036654556Q1024.868078733583 846.5081036654556 1023.8480787335827 847.1581036654555Q1022.8380787335827 847.7981036654555 1022.3680787335827 849.0781036654555T1021.8680787335827 852.2981036654555V852.7681036654556Q1021.8680787335827 854.7981036654555 1022.3180787335828 856.2081036654556Q1022.7580787335828 857.6081036654556 1023.7980787335828 858.3481036654556Q1024.8280787335827 859.0781036654556 1026.5680787335828 859.0781036654556Q1028.0680787335828 859.0781036654556 1029.0580787335828 858.2681036654556Q1030.0580787335828 857.4681036654556 1030.5480787335828 856.0181036654556Q1031.0380787335828 854.5781036654556 1031.0380787335828 852.7081036654556Q1031.0380787335828 849.8681036654557 1029.9280787335829 848.1881036654556Q1028.8280787335827 846.5081036654556 1026.5380787335828 846.5081036654556M1043.9480787335829 844.4581036654556Q1045.9980787335828 844.4581036654556 1047.4680787335828 845.3681036654557Q1048.9280787335829 846.2781036654557 1049.7080787335829 847.9081036654557Q1050.4780787335828 849.5381036654557 1050.4780787335828 851.7281036654556V853.2281036654556H1039.3880787335827Q1039.4380787335826 856.0581036654556 1040.7980787335828 857.5381036654557T1044.6380787335827 859.0181036654557Q1046.1580787335827 859.0181036654557 1047.3280787335827 858.7381036654557Q1048.5080787335828 858.4581036654557 1049.7680787335828 857.9181036654556V860.0581036654557Q1048.5480787335828 860.5981036654557 1047.358078733583 860.8481036654557Q1046.158078733583 861.0981036654557 1044.5380787335828 861.0981036654557Q1042.2180787335828 861.0981036654557 1040.4980787335828 860.1581036654557Q1038.7780787335828 859.2081036654557 1037.828078733583 857.3781036654557Q1036.868078733583 855.5481036654558 1036.868078733583 852.8981036654557Q1036.868078733583 850.2981036654558 1037.7480787335828 848.4081036654557Q1038.618078733583 846.5081036654558 1040.2080787335829 845.4881036654557Q1041.798078733583 844.4581036654557 1043.9480787335829 844.4581036654557M1043.918078733583 846.4481036654557Q1041.9680787335828 846.4481036654557 1040.808078733583 847.7281036654557Q1039.658078733583 848.9981036654557 1039.4380787335829 851.2881036654558H1047.9280787335829Q1047.918078733583 849.8481036654557 1047.4880787335828 848.7581036654558T1046.1780787335829 847.0581036654557T1043.918078733583 846.4481036654557M1061.918078733583 844.4581036654557Q1062.398078733583 844.4581036654557 1062.9280787335829 844.5081036654558T1063.868078733583 844.6481036654557L1063.558078733583 846.9081036654557Q1063.1580787335831 846.7981036654558 1062.678078733583 846.7381036654557Q1062.198078733583 846.6881036654556 1061.768078733583 846.6881036654556Q1060.808078733583 846.6881036654556 1059.948078733583 847.0681036654557Q1059.088078733583 847.4581036654556 1058.448078733583 848.1881036654556Q1057.798078733583 848.9081036654557 1057.438078733583 849.9281036654556Q1057.068078733583 850.9481036654556 1057.068078733583 852.1881036654556V860.8081036654557H1054.618078733583V844.7481036654557H1056.648078733583L1056.908078733583 847.7081036654556H1057.008078733583Q1057.508078733583 846.8181036654557 1058.208078733583 846.0781036654557Q1058.9180787335831 845.3381036654557 1059.848078733583 844.8981036654557T1061.9180787335831 844.4581036654556 "></path></g><rect width="688" height="246" x="406" y="627" id="space-saver" fill="transparent" stroke="transparent"></rect></g></svg>