<svg xmlns="http://www.w3.org/2000/svg" xml:space="preserve" width="1500" height="1500" viewBox="0 0 1500 1500" data-version="1" data-id="lg_P3eHDklDlEKadqPf8Q" x="0" y="0"><rect width="1500" height="1500" id="background" stroke="transparent" fill="#000000"></rect><g id="outer-wrapper" data-padding="20" transform="matrix(1.6129032258064515,0,0,1.6129032258064515,-459.67741935483855,-459.67741935483855)"><g id="inner-wrapper" transform="matrix(0.967741935483871,0,0,0.967741935483871,10,2.6129032258064484)"><rect width="560" height="146.9" x="65.53536352399942" y="297.38362267033796" fill="none" rx="0" ry="0" transform="translate(448.9 405.65)"></rect><path fill="#3d3d3d" d="M668.3353635239994 819.533622670338Q655.7253635239994 819.533622670338 645.5853635239994 814.333622670338T629.5253635239993 798.993622670338Q623.6153635239993 788.8536226703379 623.6153635239993 774.293622670338Q623.6153635239993 763.3736226703379 627.1853635239994 754.923622670338Q630.7653635239993 746.473622670338 637.0653635239993 740.683622670338Q643.3753635239993 734.903622670338 651.5653635239993 731.973622670338Q659.7553635239993 729.053622670338 668.9853635239994 729.053622670338Q676.1353635239993 729.053622670338 682.3753635239993 730.673622670338Q688.6153635239993 732.303622670338 694.3353635239993 735.423622670338L694.8553635239992 752.453622670338H691.3453635239993L685.8853635239993 742.183622670338Q684.5853635239993 739.583622670338 683.0853635239993 737.503622670338Q681.5953635239993 735.423622670338 679.2553635239993 734.513622670338Q676.0053635239993 732.953622670338 671.5853635239993 732.953622670338Q663.9153635239993 732.953622670338 657.6053635239992 736.8536226703379Q651.3053635239993 740.7536226703379 647.5353635239993 749.783622670338Q643.7653635239993 758.823622670338 643.7653635239993 774.4236226703379Q643.7653635239993 789.8936226703379 647.3353635239993 798.9936226703379Q650.9153635239993 808.0936226703379 657.0253635239993 811.9236226703379Q663.1353635239993 815.7636226703379 670.8053635239993 815.7636226703379Q674.3153635239993 815.7636226703379 676.5253635239993 815.2436226703379T680.9453635239994 813.813622670338Q683.5453635239993 812.7736226703379 684.9753635239994 810.7536226703379Q686.4053635239993 808.7436226703379 687.4453635239994 806.1436226703379L692.3853635239993 794.313622670338H695.8953635239993L695.3753635239993 813.0336226703379Q689.7853635239993 816.1536226703379 683.0253635239993 817.8436226703379T668.3353635239993 819.5336226703379M732.5553635239993 817.323622670338H702.2653635239993V814.8536226703379L704.2153635239994 814.333622670338Q708.5053635239993 812.9036226703379 708.5053635239993 807.833622670338Q708.5053635239993 803.4136226703379 708.5653635239993 798.9236226703379Q708.6353635239993 794.4436226703378 708.6353635239993 790.0236226703379V740.6236226703379Q708.6353635239993 737.8936226703379 707.7253635239994 736.5236226703379Q706.8153635239993 735.1636226703379 704.2153635239994 734.5136226703379L702.2653635239993 733.9936226703379V731.5236226703379L725.0153635239993 726.063622670338L726.7053635239994 727.2336226703379L726.1853635239994 745.563622670338V807.833622670338Q726.3153635239993 810.433622670338 727.2853635239993 812.053622670338Q728.2653635239993 813.683622670338 730.7353635239994 814.333622670338L732.5553635239993 814.8536226703379ZM757.2553635239993 819.1436226703379Q749.8453635239993 819.1436226703379 744.7053635239994 814.9136226703379Q739.5753635239993 810.6936226703378 739.5753635239993 802.7636226703379Q739.5753635239993 796.5236226703379 745.6153635239993 791.2536226703379Q751.6653635239994 785.9936226703379 764.6653635239994 783.5236226703379Q766.8753635239993 783.0036226703379 769.7953635239993 782.5436226703379Q772.7253635239994 782.0936226703379 775.5853635239994 781.5736226703378V772.3436226703378Q775.5853635239994 763.5036226703378 773.3753635239995 760.1236226703378T766.3553635239995 756.7436226703378H765.9653635239994Q762.9753635239994 756.7436226703378 761.2153635239994 758.6236226703378Q759.4653635239994 760.5136226703378 758.9453635239994 764.8036226703377L758.5553635239995 766.4936226703378Q758.1653635239994 771.6936226703378 755.8253635239995 774.0936226703378Q753.4853635239995 776.5036226703378 749.9753635239994 776.5036226703378Q746.7253635239994 776.5036226703378 744.5753635239995 774.4836226703378Q742.4353635239994 772.4736226703378 742.4353635239994 769.2236226703378Q742.4353635239994 763.8936226703379 746.0753635239995 760.2536226703378T755.7553635239994 754.7936226703379Q761.8053635239995 752.9736226703378 768.8253635239995 752.9736226703378Q780.3953635239994 752.9736226703378 786.5053635239994 758.5636226703378T792.6153635239995 776.7636226703378V805.7536226703378Q792.6153635239995 811.3436226703378 797.9453635239994 811.3436226703378H800.9353635239994L802.2353635239995 812.7736226703378Q799.8953635239994 815.7636226703378 797.0353635239995 817.3836226703379Q794.1753635239994 819.0136226703378 789.2353635239995 819.0136226703378Q783.6453635239994 819.0136226703378 780.3253635239995 816.3436226703378Q777.0153635239994 813.6836226703379 775.9753635239994 809.2636226703378Q771.8153635239994 813.6836226703379 767.7853635239994 816.4136226703379T757.2553635239994 819.1436226703379M764.7953635239995 810.8236226703378Q767.3953635239994 810.8236226703378 769.7353635239995 809.6536226703379T775.5853635239995 805.7536226703378V784.9536226703378Q772.2053635239995 785.4736226703378 768.6953635239995 786.2536226703378Q763.1053635239995 787.5536226703379 759.6553635239994 791.0636226703378Q756.2153635239995 794.5736226703378 756.2153635239995 800.5536226703379Q756.2153635239995 805.7536226703378 758.6153635239995 808.2836226703379Q761.0253635239995 810.823622670338 764.7953635239995 810.823622670338M837.7253635239995 817.333622670338H805.2253635239995V814.8636226703379L807.1753635239994 814.2136226703378Q809.7753635239995 813.563622670338 810.7453635239995 812.0036226703379Q811.7253635239995 810.4436226703378 811.7253635239995 807.8436226703379V769.7536226703379Q811.5953635239995 766.8936226703379 810.6853635239994 765.3936226703379Q809.7753635239994 763.9036226703379 807.1753635239994 763.3836226703379L805.2253635239995 762.8636226703379V760.523622670338L826.4153635239994 752.9836226703379L827.9753635239995 754.4136226703379L829.1453635239994 765.8536226703379V766.763622670338Q831.0953635239995 763.1236226703379 834.0853635239995 760.003622670338T840.5853635239995 754.933622670338T847.6053635239995 752.983622670338Q852.5453635239995 752.983622670338 855.0153635239996 755.583622670338T857.4853635239996 762.213622670338Q857.4853635239996 766.633622670338 855.0153635239996 768.903622670338Q852.5453635239995 771.183622670338 849.0353635239995 771.183622670338Q843.8353635239995 771.183622670338 840.0653635239995 766.503622670338L839.8053635239995 766.243622670338Q838.5053635239994 764.683622670338 836.8753635239995 764.483622670338Q835.2553635239994 764.293622670338 833.6953635239994 766.1136226703379Q832.3953635239994 767.413622670338 831.2853635239994 769.163622670338Q830.1853635239994 770.923622670338 829.2753635239994 773.263622670338V807.323622670338Q829.2753635239994 809.793622670338 830.3153635239995 811.413622670338Q831.3553635239995 813.043622670338 833.8253635239995 813.693622670338L837.7253635239994 814.8636226703379ZM876.8653635239995 745.823622670338Q872.5753635239995 745.823622670338 869.5853635239995 743.0936226703379T866.5953635239995 736.2036226703378Q866.5953635239995 731.9136226703379 869.5853635239995 729.2436226703379Q872.5753635239995 726.583622670338 876.8653635239995 726.583622670338T884.1453635239994 729.2436226703379Q887.1353635239994 731.9136226703379 887.1353635239994 736.2036226703378Q887.1353635239994 740.3636226703379 884.1453635239994 743.0936226703379T876.8653635239995 745.823622670338M891.6853635239996 817.323622670338H861.9153635239996V814.8536226703379L863.8653635239997 814.333622670338Q866.4653635239996 813.553622670338 867.3753635239997 811.9936226703379T868.4153635239996 807.833622670338V776.4336226703379Q868.4153635239996 772.9936226703379 868.2853635239995 769.3536226703379Q868.2853635239995 766.7536226703379 867.3053635239995 765.2536226703379Q866.3353635239995 763.7636226703379 863.7353635239996 763.2436226703379L861.9153635239994 762.8536226703379V760.513622670338L884.6653635239994 752.9736226703379L886.2253635239994 754.4036226703379L885.8353635239995 772.8636226703379V807.9636226703379Q885.8353635239995 810.563622670338 886.8053635239995 812.1236226703379Q887.7853635239995 813.683622670338 890.2553635239996 814.4636226703379L891.6853635239994 814.8536226703379ZM931.0753635239995 817.323622670338H897.5353635239993V814.8536226703379L899.4853635239994 814.333622670338Q904.6853635239994 812.9036226703379 904.8153635239995 807.9636226703378Q904.8153635239995 803.4136226703379 904.8753635239995 798.9236226703379Q904.9453635239994 794.4436226703378 904.9453635239994 790.0236226703379V758.9536226703378H897.5353635239993V756.0936226703379L900.3953635239994 755.573622670338Q902.9953635239993 755.1836226703379 904.1653635239994 753.6836226703379Q905.3353635239993 752.1936226703378 905.8553635239995 749.4636226703378Q907.2853635239993 744.2636226703379 909.6853635239994 740.4236226703379Q912.0953635239995 736.5936226703379 915.4753635239994 733.3436226703379Q920.2853635239993 728.6636226703379 925.7453635239993 726.8436226703379T936.4053635239994 725.0236226703379Q941.4753635239994 725.0236226703379 945.6953635239994 727.0336226703379Q949.9253635239994 729.0536226703379 949.9253635239994 733.8636226703379Q949.9253635239994 737.2436226703378 947.9053635239994 739.2536226703378Q945.8953635239994 741.2736226703378 942.1253635239995 741.2736226703378Q936.1453635239994 741.2736226703378 931.5953635239995 734.2536226703378L930.0353635239995 732.4336226703379Q928.4753635239996 730.4836226703378 926.9153635239994 730.8736226703379T924.7053635239994 733.4736226703378Q923.6653635239994 737.6336226703379 923.0753635239995 743.2236226703378Q922.4953635239993 748.8136226703378 922.3653635239995 754.9236226703379H937.3153635239995V758.9536226703378H922.3653635239995V790.0236226703378Q922.3653635239995 794.4436226703378 922.4253635239994 798.7936226703378Q922.4953635239993 803.1536226703379 922.4953635239993 807.5736226703377Q922.4953635239993 812.7736226703378 927.6953635239994 813.9436226703378L931.0753635239995 814.8536226703378Z "></path><path fill="#3d3d3d" d="M956.8053635239994 745.8236226703381Q952.5153635239994 745.8236226703381 949.5253635239994 743.093622670338T946.5353635239994 736.2036226703381Q946.5353635239994 731.9136226703381 949.5253635239994 729.243622670338Q952.5153635239994 726.5836226703381 956.8053635239994 726.5836226703381T964.0853635239994 729.243622670338Q967.0753635239994 731.9136226703381 967.0753635239994 736.2036226703381Q967.0753635239994 740.3636226703381 964.0853635239994 743.093622670338T956.8053635239994 745.8236226703381M971.6253635239996 817.3236226703381H941.8553635239996V814.853622670338L943.8053635239996 814.3336226703381Q946.4053635239995 813.5536226703381 947.3153635239996 811.993622670338T948.3553635239996 807.8336226703381V776.4336226703381Q948.3553635239996 772.993622670338 948.2253635239995 769.3536226703382Q948.2253635239995 766.753622670338 947.2453635239995 765.253622670338Q946.2753635239994 763.763622670338 943.6753635239995 763.243622670338L941.8553635239994 762.8536226703382V760.5136226703381L964.6053635239994 752.973622670338L966.1653635239993 754.4036226703381L965.7753635239994 772.8636226703381V807.963622670338Q965.7753635239994 810.5636226703382 966.7453635239995 812.1236226703381Q967.7253635239995 813.6836226703381 970.1953635239995 814.463622670338L971.6253635239993 814.8536226703382ZM595.8973635239995 742.6306226703381A57 57 0 0 0 594.1173635239995 748.4516226703381C597.7843635239994 750.694622670338 601.8773635239995 752.136622670338 605.5273635239994 754.396622670338A15.486 15.486 0 0 0 597.9273635239995 736.4186226703381A64 64 0 0 1 595.9683635239994 742.6306226703381ZM596.6273635239995 747.3836226703381C597.3743635239996 744.8556226703381 598.4073635239995 742.3996226703381 599.1723635239994 739.8896226703381A13.53 13.53 0 0 1 603.8893635239995 750.9436226703381C601.4863635239994 749.6976226703381 598.9763635239995 748.6836226703381 596.6273635239995 747.3836226703381C596.9833635239995 746.0836226703381 596.6983635239994 747.3836226703381 596.6273635239995 747.3836226703381M595.7013635239994 799.253622670338L594.1353635239996 796.119622670338A17.27 17.27 0 0 0 587.0153635239994 804.396622670338C590.3253635239994 803.6846226703381 593.6903635239994 803.2756226703381 596.9473635239995 802.314622670338Q596.3073635239994 800.658622670338 595.6303635239994 799.252622670338C594.9543635239995 797.8466226703381 596.1283635239995 800.178622670338 595.7013635239994 799.252622670338M593.9213635239994 800.801622670338A59 59 0 0 1 591.3583635239995 801.3176226703381A14 14 0 0 1 593.2633635239995 799.3956226703381Q593.6193635239995 800.089622670338 593.9393635239994 800.801622670338C593.7793635239993 800.801622670338 593.9033635239994 800.605622670338 593.9923635239995 800.801622670338ZM594.8473635239993 759.024622670338A17.8 17.8 0 0 0 598.5143635239995 764.364622670338A57 57 0 0 0 602.9463635239995 759.024622670338C599.9913635239993 757.244622670338 596.7343635239995 755.891622670338 593.6363635239993 754.254622670338A19.6 19.6 0 0 0 594.8463635239993 759.024622670338M596.9653635239995 758.526622670338C597.6053635239994 758.8286226703381 598.8523635239994 759.4346226703381 599.6173635239993 759.843622670338Q599.0833635239994 760.5196226703381 598.4963635239994 761.1256226703381A14.2 14.2 0 0 1 596.9653635239995 758.525622670338C597.6243635239994 758.811622670338 597.0903635239995 758.650622670338 596.9653635239995 758.525622670338M478.68436352399937 776.842622670338A22.25 22.25 0 0 1 484.70036352399933 793.6636226703381A22.6 22.6 0 0 1 492.40836352399936 810.733622670338A22.78 22.78 0 0 1 510.43936352399936 824.795622670338A22.43 22.43 0 0 1 529.1473635239993 827.839622670338A22.78 22.78 0 0 1 547.7843635239994 829.619622670338A22.96 22.96 0 0 1 568.9663635239992 821.0396226703381A23.14 23.14 0 0 1 580.9633635239993 806.408622670338A22.6 22.6 0 0 1 591.8923635239994 791.207622670338A22.78 22.78 0 0 1 595.0253635239994 768.5656226703379A22.6 22.6 0 0 1 588.2253635239992 750.943622670338A22.6 22.6 0 0 1 580.5183635239994 733.8736226703379A22.78 22.78 0 0 1 562.4863635239992 719.811622670338A22.43 22.43 0 0 1 543.7793635239993 716.7676226703379A23.14 23.14 0 0 1 525.1423635239994 714.9876226703379A22.96 22.96 0 0 1 503.9603635239993 723.567622670338A23.14 23.14 0 0 1 491.9633635239993 738.198622670338A22.6 22.6 0 0 1 481.0333635239993 753.399622670338A22.78 22.78 0 0 1 477.9013635239993 776.041622670338ZM480.76736352399934 775.863622670338A24.74 24.74 0 0 0 483.7753635239994 754.325622670338A24.92 24.92 0 0 0 493.95636352399936 739.6936226703381A24.2 24.2 0 0 0 505.52636352399935 725.863622670338A24.39 24.39 0 0 0 525.6763635239993 717.6936226703381A24.2 24.2 0 0 0 543.4763635239995 719.188622670338A24.92 24.92 0 0 0 561.2763635239994 722.285622670338A24.74 24.74 0 0 0 578.4363635239995 735.653622670338A24.92 24.92 0 0 0 586.0183635239994 751.797622670338A24.92 24.92 0 0 0 592.1593635239994 768.743622670338A24.74 24.74 0 0 0 589.1513635239994 790.281622670338A24.92 24.92 0 0 0 578.9693635239994 804.9136226703381A24.2 24.2 0 0 0 567.3993635239995 818.743622670338A24.39 24.39 0 0 0 547.2493635239994 826.9136226703381A24.03 24.03 0 0 0 529.4493635239994 825.418622670338A24.92 24.92 0 0 0 511.64936352399934 822.321622670338A24.74 24.74 0 0 0 494.49036352399935 808.9536226703381A24.92 24.92 0 0 0 486.90836352399936 792.8096226703381A24.92 24.92 0 0 0 480.7673635239994 775.863622670338C481.15836352399936 775.293622670338 481.28336352399936 776.4336226703381 480.7673635239994 775.863622670338M485.6083635239994 810.2706226703381H487.0143635239994A17.8 17.8 0 0 0 483.3653635239994 800.0006226703381C482.3513635239994 803.2226226703381 481.0153635239994 806.354622670338 480.2333635239994 809.665622670338A52 52 0 0 0 485.6083635239994 810.2706226703381M484.57636352399936 807.992622670338L483.0633635239994 807.9036226703381L483.91736352399937 805.411622670338C484.2473635239994 806.2496226703381 484.48736352399936 807.121622670338 484.62936352399936 808.0106226703381C484.27336352399936 807.903622670338 484.5583635239994 807.903622670338 484.57636352399936 807.992622670338M498.7453635239994 834.123622670338A20 20 0 0 1 496.7693635239994 834.407622670338A15.66 15.66 0 0 0 509.5143635239994 838.323622670338A69 69 0 0 1 507.1113635239994 831.666622670338A59 59 0 0 1 498.7453635239994 834.140622670338ZM502.64336352399937 835.440622670338Q504.1733635239994 834.995622670338 505.6693635239994 834.460622670338C505.8823635239994 835.120622670338 506.0603635239994 835.653622670338 506.29236352399937 836.240622670338A12.5 12.5 0 0 1 502.6423635239994 835.4406226703379C503.37236352399935 835.244622670338 502.78536352399937 835.493622670338 502.6423635239994 835.4406226703379M495.52336352399936 829.0856226703379A37.4 37.4 0 0 0 505.25936352399935 826.5756226703379A17.09 17.09 0 0 0 492.1233635239994 816.251622670338C491.8033635239994 820.4886226703379 491.2863635239994 824.991622670338 492.90636352399935 829.049622670338C493.7703635239994 829.140622670338 494.64136352399936 829.140622670338 495.50536352399934 829.049622670338ZM497.3033635239994 826.6656226703379A16 16 0 0 1 494.5973635239994 826.9136226703379A24.9 24.9 0 0 1 494.1873635239994 818.957622670338A14.6 14.6 0 0 1 502.2163635239994 825.3116226703379A39 39 0 0 1 497.3033635239994 826.6826226703379ZM606.4523635239993 763.5286226703379C605.2243635239993 765.130622670338 603.8543635239994 766.607622670338 602.5013635239993 768.102622670338A44.5 44.5 0 0 1 610.0663635239994 775.685622670338A15.49 15.49 0 0 0 607.0763635239994 762.673622670338L606.4353635239993 763.528622670338ZM606.4523635239993 767.0886226703379L606.9693635239994 766.5006226703379A10.7 10.7 0 0 1 608.0373635239994 770.0606226703379A50 50 0 0 0 605.6873635239992 767.9246226703378L606.4173635239993 766.9816226703379ZM486.53436352399933 824.7426226703379A59 59 0 0 1 486.8013635239993 815.7526226703379C484.43336352399933 815.610622670338 482.04836352399934 815.504622670338 479.6813635239993 815.130622670338A15.49 15.49 0 0 0 486.8013635239993 826.7536226703379Q486.62336352399933 825.7036226703378 486.53436352399933 824.7426226703378M484.43436352399937 817.8186226703378A54 54 0 0 0 484.25536352399934 821.3786226703379A10.7 10.7 0 0 1 482.38636352399936 817.8186226703378L484.43336352399933 817.9606226703379C484.38036352399934 818.2806226703378 483.95336352399937 817.7826226703379 484.43336352399933 817.8006226703378ZM586.4103635239994 819.437622670338V823.1046226703379A15.575 15.575 0 0 0 598.1753635239993 807.5296226703379C594.1353635239993 808.7046226703379 589.8453635239994 808.9536226703378 585.8403635239995 810.235622670338C585.9473635239995 813.2436226703379 586.1073635239993 816.3946226703379 586.4103635239994 819.437622670338M588.1903635239994 811.9266226703379C590.7703635239993 811.3216226703379 593.4053635239993 810.9656226703379 595.9863635239994 810.3956226703378A14.24 14.24 0 0 1 588.7243635239993 820.043622670338C588.6173635239993 817.3376226703379 588.2433635239993 814.703622670338 588.1903635239994 811.9266226703379C588.1903635239994 811.908622670338 588.0833635239994 812.015622670338 588.0833635239994 811.9266226703379ZM579.1833635239993 830.7236226703379A16 16 0 0 0 580.1263635239993 828.658622670338A66 66 0 0 1 573.1493635239995 827.3946226703379A44.5 44.5 0 0 1 570.3723635239994 837.736622670338A16.55 16.55 0 0 0 579.1823635239994 830.7236226703379M576.7983635239993 830.3846226703379A12.5 12.5 0 0 1 574.2343635239995 833.1086226703379Q574.6083635239993 831.5776226703379 574.9113635239994 830.0116226703379ZM577.4033635239994 822.8196226703379Q579.1833635239993 823.139622670338 580.9633635239993 823.3536226703379C581.0873635239993 819.793622670338 580.5893635239993 816.3936226703379 580.4293635239994 812.905622670338A17.27 17.27 0 0 0 574.2883635239994 822.1616226703379ZM577.1363635239993 820.523622670338C577.5403635239993 819.601622670338 578.0413635239993 818.7236226703379 578.6313635239994 817.907622670338Q578.7733635239995 819.3676226703379 578.8093635239993 820.8266226703379L577.1183635239993 820.506622670338C577.2783635239994 820.381622670338 577.4033635239994 820.5766226703379 577.1893635239994 820.523622670338ZM536.5873635239993 843.5216226703379L536.8373635239993 843.3436226703379C533.8283635239993 840.4236226703379 531.1413635239994 837.1136226703379 528.3103635239993 834.033622670338C524.5013635239993 835.991622670338 521.1903635239994 838.9116226703379 517.4703635239994 840.958622670338A15.59 15.59 0 0 0 536.5873635239993 843.5216226703379M533.2053635239993 842.755622670338A14.24 14.24 0 0 1 521.2263635239995 841.2956226703379C523.5043635239992 839.8366226703379 525.6583635239992 838.1996226703379 527.9723635239993 836.775622670338C529.7523635239993 838.679622670338 531.4083635239995 840.8156226703379 533.2053635239993 842.755622670338C532.7433635239993 843.005622670338 533.0813635239995 842.7206226703379 533.2053635239993 842.8456226703379ZM555.1883635239994 834.6036226703379A51.6 51.6 0 0 0 563.8043635239994 838.3776226703379C566.1353635239993 835.226622670338 567.1143635239994 830.3676226703379 567.8263635239994 826.4336226703379A17.44 17.44 0 0 0 552.3233635239994 832.6456226703378Q553.7473635239994 833.6426226703379 555.1883635239994 834.6036226703379M555.6693635239994 832.2896226703378A14.95 14.95 0 0 1 565.2283635239994 828.4796226703379A28.5 28.5 0 0 1 562.7893635239993 835.9206226703379A28.5 28.5 0 0 1 555.6693635239994 832.3606226703379S555.9003635239994 832.4316226703379 555.6693635239994 832.2716226703378ZM558.4643635239993 842.6846226703378L558.7483635239994 842.5426226703379A46.3 46.3 0 0 1 549.2433635239993 837.024622670338C547.9433635239993 839.0176226703379 546.6633635239994 841.0296226703379 545.1673635239995 842.880622670338A15.66 15.66 0 0 0 558.4813635239993 842.6666226703379ZM552.7503635239993 842.0266226703379A12.5 12.5 0 0 1 548.6743635239993 841.8486226703378Q549.2613635239993 841.0116226703378 549.8313635239995 840.0686226703378Q551.2553635239994 841.0476226703379 552.7503635239993 841.9546226703379C552.6433635239994 842.0266226703379 552.1983635239994 841.7236226703379 552.7683635239994 842.0266226703379ZM535.3413635239995 833.6956226703378C537.1213635239994 835.7426226703378 538.9013635239994 837.8436226703379 540.7883635239994 839.7296226703379A62 62 0 0 0 544.6863635239995 834.1406226703378A17.44 17.44 0 0 0 534.0063635239994 832.1826226703379ZC535.8223635239995 834.2656226703378 534.8613635239994 833.1256226703379 535.3413635239995 833.6956226703378M538.9013635239994 834.3896226703379A14 14 0 0 1 541.5183635239994 835.0666226703379L540.6283635239995 836.3666226703378Q539.6673635239995 835.4046226703379 538.8483635239993 834.389622670338ZM514.5873635239993 836.3836226703379C517.6843635239993 834.7636226703379 520.4253635239993 832.592622670338 523.3443635239994 830.7056226703379A17.27 17.27 0 0 0 512.2373635239994 829.9046226703379A61 61 0 0 0 514.5873635239993 836.3836226703379C515.6723635239994 835.8856226703379 514.0533635239995 835.2976226703379 514.5873635239993 836.3836226703379M515.1033635239994 831.7026226703379A12.4 12.4 0 0 1 518.1113635239994 831.7026226703379Q516.9013635239994 832.5566226703379 515.6723635239994 833.322622670338Q515.3703635239995 832.5386226703379 515.1213635239994 831.7196226703379C515.6193635239995 831.6136226703379 515.1033635239994 831.9156226703379 515.1033635239994 831.7026226703379M597.1613635239994 788.4836226703379C600.8283635239995 786.703622670338 604.7793635239993 784.9236226703379 607.3423635239994 781.648622670338C605.5623635239995 777.7146226703379 602.1983635239994 774.9206226703379 599.0303635239993 772.196622670338A17.27 17.27 0 0 0 596.6623635239994 788.732622670338ZM597.6773635239995 782.591622670338A14.24 14.24 0 0 1 599.4573635239994 775.4716226703379A25 25 0 0 1 604.6903635239994 781.203622670338A24.9 24.9 0 0 1 598.0153635239994 785.5466226703379A12.5 12.5 0 0 1 597.6773635239995 782.591622670338 "></path><path fill="#3d3d3d" d="M455.29536352399947 768.013622670338A21.4 21.4 0 0 1 457.30636352399944 761.890622670338A23.14 23.14 0 0 1 457.7163635239994 751.2106226703379L459.9233635239994 751.7976226703379A21.36 21.36 0 0 0 459.70936352399946 762.2286226703379A21 21 0 0 0 463.0913635239994 786.8106226703379C458.88536352399944 797.3536226703379 463.89636352399947 809.322622670338 474.35936352399943 813.7246226703379A21 21 0 0 0 489.34636352399946 833.7666226703379A21 21 0 0 0 512.3623635239994 843.1836226703379C519.3893635239995 852.110622670338 532.2753635239994 853.7576226703379 541.3223635239995 846.8856226703379A21 21 0 0 0 566.2423635239995 843.9126226703379A21 21 0 0 0 585.8223635239995 828.6936226703378C597.0233635239995 827.0656226703379 604.8733635239994 816.7886226703379 603.4983635239994 805.553622670338A21 21 0 0 0 613.3583635239995 782.4136226703379A21 21 0 0 0 609.9773635239994 757.832622670338C614.1833635239996 747.2896226703378 609.1723635239994 735.3206226703379 598.7093635239994 730.918622670338A21 21 0 0 0 583.7223635239995 710.8756226703379A21 21 0 0 0 560.7063635239995 701.4596226703379C553.6803635239994 692.4936226703379 540.7543635239995 690.8356226703379 531.6923635239993 697.7396226703379A21 21 0 0 0 506.77236352399945 700.7116226703379A21 21 0 0 0 487.19236352399946 715.9316226703379C475.9923635239995 717.5596226703378 468.14236352399945 727.8356226703379 469.51736352399945 739.0716226703379A20.1 20.1 0 0 0 459.9233635239995 751.7806226703378L457.7873635239995 751.2106226703379A22.6 22.6 0 0 1 467.2033635239995 737.9856226703379C466.5103635239995 726.5606226703378 474.2733635239995 716.3456226703379 485.46636352399946 713.9556226703379A23.32 23.32 0 0 1 505.91836352399946 698.5406226703378A23.32 23.32 0 0 1 531.5143635239995 695.1046226703379C541.0843635239994 688.7886226703379 553.8343635239994 690.4316226703379 561.4903635239996 698.967622670338A23.5 23.5 0 0 1 585.0753635239996 708.9716226703379A23.14 23.14 0 0 1 593.9753635239995 714.524622670338A22.25 22.25 0 0 1 600.7753635239994 729.369622670338C611.0213635239995 734.4976226703379 615.9713635239996 746.352622670338 612.4153635239995 757.244622670338A23.14 23.14 0 0 1 615.5483635239996 782.6636226703379A23.5 23.5 0 0 1 605.7233635239995 806.568622670338C606.4433635239996 818.012622670338 598.6733635239996 828.2586226703379 587.4603635239996 830.6516226703379A23.32 23.32 0 0 1 567.0083635239994 846.0666226703379A23.32 23.32 0 0 1 541.3933635239994 849.5026226703379C531.8283635239995 855.8086226703379 519.0893635239995 854.1656226703379 511.4363635239995 845.639622670338A23.5 23.5 0 0 1 487.85136352399945 835.6356226703379A23.14 23.14 0 0 1 472.08136352399947 815.1656226703379C461.8423635239995 810.039622670338 456.8933635239995 798.1956226703379 460.4393635239995 787.308622670338A23.14 23.14 0 0 1 455.29536352399947 768.013622670338 "></path><path fill="#3d3d3d" d="M602.2163635239995 792.043622670338L598.9063635239995 793.6456226703378C599.9733635239995 795.7816226703379 601.0593635239995 797.8646226703379 601.9313635239994 800.1076226703378A15.49 15.49 0 0 0 608.4283635239995 788.1636226703379A32 32 0 0 1 602.2163635239995 792.0616226703379ZM601.8963635239995 794.660622670338Q603.4803635239994 793.9126226703379 605.0113635239995 793.0766226703379A12.5 12.5 0 0 1 602.8033635239995 796.5116226703379Q602.3763635239993 795.5856226703379 601.8963635239995 794.731622670338C602.3233635239994 794.446622670338 602.0913635239995 795.069622670338 601.8783635239995 794.6426226703379ZM466.4733635239994 781.0966226703379C467.7013635239994 779.494622670338 469.0723635239994 778.0166226703379 470.4253635239994 776.5226226703379A44.5 44.5 0 0 1 462.8603635239994 768.9396226703379A15.49 15.49 0 0 0 465.8503635239994 781.9516226703379ZM466.4733635239994 777.5366226703379L465.9573635239994 778.1246226703379A10.7 10.7 0 0 1 464.8893635239994 774.5646226703379C465.7973635239994 775.4546226703379 466.34936352399944 775.934622670338 467.23936352399943 776.7006226703379L466.5093635239994 777.6436226703379ZM514.4453635239995 701.9226226703379L514.1593635239994 702.0646226703379A46.3 46.3 0 0 1 523.6653635239995 707.5826226703379C524.9643635239995 705.5896226703378 526.2453635239995 703.5776226703379 527.7413635239993 701.7266226703379A15.49 15.49 0 0 0 514.4263635239995 701.9406226703379ZM520.1583635239995 702.5806226703379A12.5 12.5 0 0 1 524.2343635239995 702.7586226703379Q523.6473635239995 703.5956226703379 523.0773635239993 704.5386226703379Q521.6533635239994 703.5596226703378 520.1583635239995 702.6526226703379C520.2653635239994 702.5806226703378 520.7103635239994 702.8836226703379 520.1403635239994 702.5806226703378ZM537.6023635239994 710.929622670338C535.8223635239995 708.8826226703379 534.0423635239995 706.7816226703378 532.1553635239993 704.8946226703379A62 62 0 0 0 528.2573635239994 710.4846226703378A17.44 17.44 0 0 0 538.9373635239995 712.4426226703379ZM534.0423635239995 710.2346226703379A14 14 0 0 1 531.4253635239995 709.5586226703379L532.3153635239994 708.2586226703379Q533.2593635239994 709.2206226703379 534.0783635239993 710.2346226703379ZM558.3393635239995 708.2236226703378C555.2423635239993 709.8436226703379 552.5013635239993 712.0146226703379 549.5813635239995 713.9016226703379A17.27 17.27 0 0 0 560.6893635239994 714.7026226703379A61 61 0 0 0 558.3393635239995 708.2236226703378C557.2533635239995 708.7216226703379 558.8733635239994 709.3096226703378 558.3393635239995 708.2236226703378M557.8233635239994 712.9046226703379C556.8233635239994 713.0266226703379 555.8133635239994 713.0266226703379 554.8153635239994 712.9046226703379Q556.0253635239994 712.0506226703378 557.2533635239995 711.2846226703379Q557.5563635239994 712.0686226703378 557.8053635239994 712.8876226703378C557.3073635239994 712.9936226703378 557.8233635239994 712.6916226703379 557.8233635239994 712.9046226703379M574.1813635239994 710.5016226703378A20 20 0 0 1 576.1573635239995 710.2176226703378A15.66 15.66 0 0 0 563.4123635239994 706.3016226703378A69 69 0 0 1 565.8153635239994 712.9586226703378A59 59 0 0 1 574.1813635239994 710.4846226703378ZM570.2833635239995 709.1846226703378Q568.7523635239993 709.6296226703378 567.2573635239994 710.1646226703378A29 29 0 0 0 566.6343635239994 708.3846226703379A12.5 12.5 0 0 1 570.3013635239995 709.2386226703379C569.5533635239995 709.3806226703379 570.1413635239994 709.1316226703378 570.2833635239995 709.1846226703378M536.3383635239993 701.121622670338L536.0893635239995 701.2996226703378C539.0973635239993 704.2186226703379 541.7853635239994 707.5296226703379 544.6153635239993 710.6096226703379C548.4253635239995 708.650622670338 551.7353635239995 705.7316226703379 555.4553635239995 703.6846226703378A15.575 15.575 0 0 0 536.3383635239995 701.121622670338M539.7203635239994 701.8866226703378A14.24 14.24 0 0 1 551.7003635239994 703.3466226703379C549.4213635239994 704.8066226703379 547.2673635239994 706.4436226703378 544.9533635239995 707.8676226703378C543.1733635239993 705.9626226703379 541.5183635239994 703.8276226703379 539.7203635239994 701.8876226703378C540.1833635239993 701.6376226703378 539.8453635239994 701.9226226703379 539.7203635239994 701.7976226703379ZM586.3923635239994 719.8646226703379A59 59 0 0 1 586.1253635239996 728.8546226703379C588.4923635239995 728.996622670338 590.8773635239995 729.102622670338 593.2453635239995 729.476622670338A15.49 15.49 0 0 0 586.1253635239996 717.871622670338Q586.3033635239995 718.9036226703379 586.3923635239994 719.8646226703379M588.4923635239995 726.7886226703379A54 54 0 0 0 588.6703635239994 723.2286226703379A10.7 10.7 0 0 1 590.5403635239995 726.7886226703379L588.4923635239995 726.6466226703378C588.5463635239994 726.3266226703379 588.9723635239995 726.8246226703379 588.5103635239996 726.8066226703379ZM587.3173635239993 734.3536226703379H585.9113635239994A17.8 17.8 0 0 0 589.5613635239995 744.6246226703379C590.5753635239994 741.4026226703379 591.9103635239994 738.2696226703379 592.6933635239996 734.9596226703379A52 52 0 0 0 587.3173635239993 734.3536226703379M588.3503635239995 736.6326226703379L589.8633635239994 736.7216226703379L589.0083635239994 739.2136226703378A12.5 12.5 0 0 1 588.2963635239994 736.6146226703379C588.6523635239994 736.7216226703379 588.3683635239995 736.7216226703379 588.3503635239995 736.6326226703379M577.4033635239994 715.5396226703378A37.4 37.4 0 0 0 567.6663635239995 718.0496226703378A17.09 17.09 0 0 0 580.8033635239995 728.3736226703379C581.1233635239994 724.1366226703378 581.6213635239994 719.6336226703379 580.0193635239993 715.5746226703379A12.5 12.5 0 0 0 577.4213635239994 715.5746226703379ZM575.6233635239994 717.9596226703379A16 16 0 0 1 578.3283635239995 717.7106226703379C578.8913635239994 720.3236226703378 579.0283635239994 723.0106226703379 578.7383635239994 725.6676226703378A14.6 14.6 0 0 1 570.7103635239994 719.3126226703378A39 39 0 0 1 575.6233635239994 717.9426226703379ZM477.2253635239994 745.3896226703379L478.79136352399945 748.5046226703379A17.27 17.27 0 0 0 485.91136352399946 740.227622670338C482.6003635239994 740.9396226703379 479.23636352399944 741.3496226703379 475.97836352399946 742.3106226703379Q476.6193635239994 743.9656226703379 477.29636352399945 745.3726226703379C477.97236352399943 746.7786226703379 476.7973635239995 744.4646226703379 477.22436352399944 745.389622670338M479.0043635239995 743.841622670338A59 59 0 0 1 481.56836352399944 743.3256226703379A14 14 0 0 1 479.66336352399946 745.2476226703379Q479.30736352399947 744.553622670338 478.9873635239995 743.841622670338C479.14736352399945 743.841622670338 479.02236352399945 744.0376226703379 478.93336352399945 743.841622670338ZM475.76536352399944 756.1236226703379C472.09836352399947 757.9036226703379 468.14636352399947 759.6836226703379 465.5833635239995 762.958622670338C467.36336352399945 766.8926226703379 470.7273635239995 769.6866226703379 473.89636352399947 772.410622670338A17.27 17.27 0 0 0 476.26336352399943 755.8746226703379ZM475.2493635239995 762.015622670338A14.24 14.24 0 0 1 473.46936352399945 769.1356226703379A25 25 0 0 1 468.23536352399947 763.4036226703379A24.9 24.9 0 0 1 474.9103635239995 759.0606226703378C475.14036352399944 760.0286226703379 475.2543635239995 761.0206226703378 475.2493635239995 762.0156226703378M477.02936352399945 801.9766226703379A57 57 0 0 0 478.8093635239995 796.1556226703378C475.14236352399945 793.9126226703379 471.04836352399946 792.4706226703379 467.39936352399945 790.2106226703379A15.486 15.486 0 0 0 474.9993635239995 808.1886226703378A64 64 0 0 1 476.95736352399945 801.9766226703379ZM476.2993635239995 797.2236226703378C475.5513635239995 799.7516226703378 474.51936352399946 802.2076226703379 473.7533635239995 804.7176226703378A13.7 13.7 0 0 1 469.03636352399946 793.6636226703379C471.4393635239995 794.9096226703379 473.94936352399947 795.9236226703379 476.2993635239995 797.2236226703378C475.9433635239995 798.5236226703379 476.22836352399946 797.2236226703378 476.2993635239995 797.2236226703378M470.69236352399946 752.5816226703379L474.00236352399946 750.9796226703379C472.93536352399946 748.8436226703379 471.84936352399944 746.7606226703379 470.9773635239995 744.5176226703379A14.6 14.6 0 0 0 465.03136352399946 753.168622670338A18 18 0 0 0 464.4803635239995 756.4616226703379A32 32 0 0 1 470.69236352399946 752.563622670338ZM471.01236352399945 749.9646226703378Q469.42836352399945 750.7126226703379 467.89736352399945 751.5486226703379A12.5 12.5 0 0 1 470.10436352399944 748.1136226703379Q470.53236352399944 749.0386226703379 471.01236352399945 749.8936226703379C470.58536352399943 750.1786226703379 470.8163635239995 749.5556226703378 471.0303635239995 749.9826226703378ZM517.7193635239994 710.0036226703378A51.6 51.6 0 0 0 509.10436352399944 706.2296226703379C506.77236352399945 709.3806226703379 505.79436352399944 714.2396226703379 505.08136352399947 718.1736226703379A17.44 17.44 0 0 0 520.5853635239994 711.9616226703379Q519.1613635239994 710.9646226703378 517.7193635239994 710.0036226703378M517.2393635239994 712.3176226703379A14.95 14.95 0 0 1 507.68036352399946 716.1276226703378A28.5 28.5 0 0 1 510.1193635239994 708.6866226703379A28.5 28.5 0 0 1 517.2393635239994 712.246622670338S517.0073635239994 712.1756226703378 517.2393635239994 712.3356226703379ZM477.43836352399944 789.2846226703379L479.21836352399947 790.1926226703379A17.8 17.8 0 0 0 474.34136352399946 780.1526226703379A57 57 0 0 0 469.90936352399945 785.4926226703378A60.5 60.5 0 0 0 477.43836352399944 789.2846226703377M475.94336352399944 786.0806226703378A73 73 0 0 1 473.29136352399945 784.7636226703378Q473.82536352399944 784.1046226703378 474.41236352399943 783.4816226703379C475.01236352399945 784.2916226703378 475.52636352399946 785.1626226703378 475.94236352399946 786.0816226703378C475.28436352399945 785.7956226703378 475.81836352399944 785.9566226703378 475.94236352399946 786.0816226703378M493.74336352399945 713.9016226703378A16 16 0 0 0 492.79936352399943 715.9666226703378A66 66 0 0 1 499.77736352399944 717.2306226703379A44.5 44.5 0 0 1 502.5543635239994 706.8886226703378A16.55 16.55 0 0 0 493.74336352399945 713.9016226703378M496.12836352399944 714.2396226703379A12.5 12.5 0 0 1 498.6913635239994 711.5166226703378Q498.3173635239994 713.0466226703378 498.01536352399944 714.6136226703378L496.12836352399944 714.2576226703378ZM486.5163635239994 725.1696226703378V721.5026226703378A15.575 15.575 0 0 0 474.75036352399945 737.0776226703379C478.7903635239994 735.9026226703379 483.08036352399944 735.6536226703379 487.08636352399947 734.3716226703378A146 146 0 0 0 486.5163635239995 725.1696226703378M484.73636352399944 732.6806226703379C482.1553635239995 733.285622670338 479.52136352399947 733.6416226703379 476.94036352399945 734.2116226703379A14.24 14.24 0 0 1 484.20236352399945 724.5636226703378C484.3093635239995 727.2696226703379 484.68236352399947 729.9036226703379 484.73636352399944 732.6806226703379C484.73636352399944 732.6986226703378 484.84336352399947 732.5916226703379 484.84336352399947 732.6806226703379ZM495.5233635239995 721.804622670338Q493.74336352399945 721.4846226703379 491.9633635239995 721.2706226703378C491.8383635239995 724.8306226703379 492.33736352399944 728.2306226703379 492.49736352399947 731.7196226703379A17.27 17.27 0 0 0 498.63736352399945 722.4636226703379ZM495.7903635239995 724.101622670338A14.2 14.2 0 0 1 494.29536352399947 726.717622670338Q494.15236352399944 725.2576226703379 494.1173635239995 723.7986226703379ZC495.63036352399945 724.225622670338 495.50536352399945 724.0296226703379 495.71936352399945 724.083622670338Z "></path><path d="M536.6903635239994 722.2286226703379C509.2733635239994 722.2286226703379 486.96236352399944 744.5396226703378 486.7403635239994 771.8456226703379C486.6293635239994 785.1656226703379 491.7353635239994 797.8196226703379 501.1703635239994 807.254622670338A49.4 49.4 0 0 0 536.3573635239995 822.128622670338H536.6903635239994C564.1073635239995 822.128622670338 586.4183635239995 799.817622670338 586.6403635239994 772.5116226703379C586.8623635239994 744.9836226703379 564.5513635239995 722.4506226703379 536.6903635239994 722.2286226703379M536.6903635239994 815.357622670338H536.3573635239995A43.3 43.3 0 0 1 505.83236352399945 802.481622670338A42.74 42.74 0 0 1 493.5113635239995 771.956622670338C493.62236352399947 748.313622670338 513.0473635239994 728.999622670338 537.0233635239995 728.999622670338C560.8883635239995 729.110622670338 580.0913635239995 748.646622670338 579.9803635239994 772.511622670338C579.6773635239995 796.221622670338 560.4013635239994 815.298622670338 536.6903635239994 815.3576226703381 "></path><path d="M559.3343635239994 750.6446226703379A3.22 3.22 0 0 0 556.1153635239995 747.4256226703379H520.8173635239995A3.219 3.219 0 0 0 520.8173635239995 753.8636226703379H531.9173635239995C537.1343635239995 753.8636226703379 541.5743635239994 757.304622670338 543.0173635239994 761.966622670338H520.7063635239995A3.219 3.219 0 0 0 520.7063635239995 768.4046226703379H543.3503635239995C542.1293635239995 773.5106226703379 537.4673635239994 777.284622670338 532.0283635239995 777.284622670338H520.3733635239994C519.0413635239994 777.284622670338 517.9313635239994 778.0616226703379 517.3763635239994 779.1716226703379C516.8213635239995 780.3926226703379 517.0433635239995 781.7246226703379 517.9313635239995 782.6126226703379L536.6903635239995 802.8146226703379A3.22 3.22 0 0 0 541.2413635239994 802.9256226703378C542.5733635239994 801.7046226703378 542.5733635239994 799.7066226703379 541.4633635239994 798.3746226703379L527.8103635239995 783.7226226703378H531.9173635239995C541.0193635239995 783.7226226703378 548.4563635239995 777.0626226703379 549.8993635239995 768.4046226703379H556.1153635239995A3.219 3.219 0 0 0 556.1153635239995 761.966622670338H549.7883635239995C549.1223635239995 758.9696226703379 547.7903635239995 756.1946226703379 545.7923635239995 753.8636226703379H556.1153635239995A3.22 3.22 0 0 0 559.3343635239995 750.6446226703379 "></path><rect width="384.832" height="27.12" x="153.11936352399943" y="357.27362267033806" fill="none" rx="0" ry="0" transform="translate(505.22 466.54)"></rect><path d="M669.8453635239996 839.8536226703378Q669.8453635239996 841.3736226703378 669.0953635239996 842.4536226703378Q668.3353635239996 843.5236226703378 666.9753635239995 844.0836226703378T663.7753635239995 844.6436226703379Q662.8053635239995 844.6436226703379 661.9353635239995 844.5536226703379T660.3453635239996 844.2836226703379Q659.6153635239996 844.1036226703379 659.0653635239996 843.8536226703379V841.9436226703378Q659.9453635239996 842.3036226703379 661.2153635239996 842.6136226703379Q662.4753635239996 842.9236226703379 663.8553635239996 842.9236226703379Q665.1453635239995 842.9236226703379 666.0353635239996 842.583622670338Q666.9253635239995 842.2336226703378 667.3953635239995 841.583622670338Q667.8553635239996 840.9336226703379 667.8553635239996 840.0136226703379Q667.8553635239996 839.1436226703379 667.4653635239996 838.5436226703379Q667.0853635239996 837.9536226703378 666.1853635239996 837.4736226703378Q665.2853635239996 836.9836226703378 663.7453635239997 836.4336226703379Q662.6553635239997 836.0436226703379 661.8153635239996 835.5836226703378Q660.9853635239997 835.1236226703379 660.4253635239996 834.5336226703378T659.5753635239996 833.1736226703379T659.2853635239996 831.4036226703379Q659.2853635239996 830.0336226703378 659.9853635239996 829.0536226703377T661.9153635239995 827.5536226703377Q663.1553635239995 827.0336226703378 664.7653635239997 827.0336226703378Q666.1353635239996 827.0336226703378 667.2953635239996 827.2936226703378Q668.4653635239996 827.5536226703377 669.4353635239995 827.9836226703378L668.8153635239996 829.6936226703378Q667.8853635239996 829.3036226703377 666.8553635239996 829.0536226703377Q665.8153635239996 828.7936226703378 664.7153635239996 828.7936226703378T662.8553635239996 829.1136226703378Q662.1053635239996 829.4336226703379 661.7053635239996 830.0236226703378Q661.3053635239996 830.6036226703378 661.3053635239996 831.4136226703379Q661.3053635239996 832.3236226703378 661.6853635239996 832.9136226703379Q662.0653635239996 833.5136226703378 662.9053635239997 833.9736226703378Q663.7453635239997 834.4436226703378 665.1253635239997 834.9436226703378Q666.6353635239997 835.4936226703378 667.6953635239997 836.1136226703379Q668.7453635239997 836.7236226703378 669.2953635239996 837.6136226703379Q669.8453635239997 838.4936226703378 669.8453635239997 839.8536226703379M673.0453635239996 831.573622670338H674.9953635239997V844.4136226703379H673.0453635239996ZM674.0453635239996 826.7636226703379Q674.5253635239997 826.7636226703379 674.8653635239997 827.073622670338Q675.2153635239997 827.3836226703379 675.2153635239997 828.043622670338Q675.2153635239997 828.6836226703379 674.8653635239997 829.0036226703379Q674.5253635239997 829.323622670338 674.0453635239996 829.323622670338Q673.5353635239996 829.323622670338 673.2053635239997 829.0036226703379T672.8753635239998 828.043622670338Q672.8753635239998 827.3836226703379 673.2053635239997 827.073622670338T674.0453635239996 826.7636226703379M693.0453635239996 831.333622670338Q695.1753635239997 831.333622670338 696.2453635239997 832.4436226703378Q697.3253635239996 833.553622670338 697.3253635239996 836.0036226703379V844.4136226703379H695.4053635239997V836.0936226703379Q695.4053635239997 834.533622670338 694.7353635239997 833.753622670338Q694.0553635239996 832.973622670338 692.7353635239997 832.973622670338Q690.8753635239996 832.973622670338 690.0253635239997 834.053622670338Q689.1853635239997 835.1336226703379 689.1853635239997 837.233622670338V844.413622670338H687.2453635239997V836.0936226703379Q687.2453635239997 835.053622670338 686.9553635239997 834.3536226703379Q686.6553635239997 833.663622670338 686.0553635239996 833.323622670338Q685.4653635239997 832.973622670338 684.5653635239996 832.973622670338Q683.2853635239996 832.973622670338 682.5153635239997 833.503622670338T681.3953635239997 835.063622670338Q681.0453635239996 836.1036226703379 681.0453635239996 837.6136226703379V844.413622670338H679.1053635239996V831.573622670338H680.6753635239996L680.9653635239997 833.383622670338H681.0753635239996Q681.4653635239997 832.713622670338 682.0453635239996 832.263622670338Q682.6353635239997 831.803622670338 683.3553635239997 831.573622670338Q684.0853635239997 831.333622670338 684.9053635239998 831.333622670338Q686.3753635239998 831.333622670338 687.3653635239997 831.883622670338Q688.3553635239997 832.4236226703381 688.7953635239996 833.533622670338H688.9053635239998Q689.5353635239996 832.423622670338 690.6353635239998 831.883622670338Q691.7353635239997 831.333622670338 693.0453635239998 831.333622670338M707.3553635239998 831.333622670338Q709.7653635239998 831.333622670338 711.1953635239997 832.983622670338Q712.6253635239998 834.643622670338 712.6253635239998 837.9536226703381Q712.6253635239998 840.143622670338 711.9653635239997 841.633622670338T710.1153635239997 843.883622670338T707.3153635239996 844.643622670338Q706.2953635239996 844.643622670338 705.5153635239997 844.373622670338Q704.7453635239997 844.103622670338 704.1953635239997 843.653622670338Q703.6453635239997 843.1936226703381 703.2853635239996 842.653622670338H703.1353635239997Q703.1753635239997 843.1136226703379 703.2253635239997 843.753622670338Q703.2853635239996 844.403622670338 703.2853635239996 844.883622670338V850.153622670338H701.3253635239996V831.573622670338H702.9253635239997L703.1853635239997 833.463622670338H703.2853635239996Q703.6553635239998 832.883622670338 704.1953635239997 832.393622670338Q704.7353635239997 831.913622670338 705.5153635239997 831.623622670338T707.3553635239997 831.333622670338M707.0153635239997 832.973622670338Q705.6853635239997 832.973622670338 704.8653635239998 833.493622670338Q704.0553635239997 834.003622670338 703.6753635239997 835.033622670338Q703.3053635239997 836.053622670338 703.2853635239998 837.6036226703379V837.983622670338Q703.2853635239998 839.6036226703379 703.6353635239998 840.733622670338Q703.9953635239998 841.8536226703379 704.8253635239998 842.443622670338Q705.6453635239998 843.033622670338 707.0453635239999 843.033622670338Q708.2353635239998 843.033622670338 709.0353635239999 842.3836226703379Q709.8353635239998 841.743622670338 710.2253635239998 840.583622670338Q710.6153635239998 839.433622670338 710.6153635239998 837.933622670338Q710.6153635239998 835.663622670338 709.7353635239998 834.313622670338Q708.8453635239998 832.973622670338 707.0153635239998 832.973622670338M717.9653635239997 826.173622670338V844.413622670338H716.0053635239998V826.173622670338ZM722.0753635239998 831.573622670338H724.0253635239998V844.4136226703379H722.0753635239998ZM723.0753635239998 826.763622670338Q723.5553635239999 826.763622670338 723.8953635239998 827.073622670338Q724.2453635239998 827.3836226703379 724.2453635239998 828.043622670338Q724.2453635239998 828.683622670338 723.8953635239998 829.003622670338Q723.5553635239999 829.323622670338 723.0753635239998 829.323622670338Q722.5653635239998 829.323622670338 722.2353635239998 829.003622670338Q721.8953635239998 828.683622670338 721.8953635239998 828.043622670338Q721.8953635239998 827.3836226703379 722.2353635239998 827.073622670338Q722.5653635239998 826.763622670338 723.0753635239998 826.763622670338M733.8553635239998 831.573622670338V833.0936226703379H730.6553635239998V844.4136226703379H728.7053635239997V833.0936226703379H726.4353635239997V832.1536226703379L728.7053635239997 831.513622670338V830.6536226703379Q728.7053635239997 829.033622670338 729.1853635239997 828.023622670338T730.5853635239998 826.533622670338Q731.4953635239998 826.053622670338 732.8053635239999 826.053622670338Q733.5453635239999 826.053622670338 734.1653635239998 826.1736226703379Q734.7753635239999 826.303622670338 735.2453635239998 826.4736226703379L734.7453635239998 828.0036226703379Q734.3453635239998 827.8736226703379 733.8453635239998 827.7636226703379T732.8353635239998 827.6536226703379Q731.7253635239998 827.6536226703379 731.1853635239999 828.3736226703379Q730.6553635239999 829.0936226703379 730.6553635239999 830.6336226703379V831.573622670338ZM739.3153635239997 844.433622670338L734.1753635239997 831.573622670338H736.2553635239997L739.0953635239997 839.023622670338Q739.3353635239997 839.6736226703379 739.5453635239996 840.283622670338Q739.7653635239997 840.8836226703379 739.9253635239997 841.4336226703379T740.1853635239997 842.5036226703379H740.2653635239997Q740.4253635239997 841.9136226703379 740.7353635239997 840.9636226703378Q741.0353635239996 840.0036226703379 741.3853635239997 839.0136226703379L744.0753635239996 831.573622670338H746.1753635239997L740.5853635239997 846.303622670338Q740.1353635239998 847.4836226703379 739.5453635239996 848.3636226703379T738.1053635239997 849.7136226703379Q737.2653635239997 850.193622670338 736.0653635239996 850.193622670338Q735.5153635239997 850.193622670338 735.0953635239996 850.1236226703379Q734.6753635239996 850.063622670338 734.3753635239996 849.983622670338V848.423622670338Q734.6253635239996 848.483622670338 734.9953635239997 848.523622670338Q735.3653635239996 848.573622670338 735.7653635239997 848.573622670338Q736.4953635239997 848.573622670338 737.0253635239997 848.293622670338Q737.5553635239996 848.023622670338 737.9453635239996 847.493622670338T738.6153635239996 846.243622670338ZM748.3653635239998 841.6236226703379H750.4453635239997L750.6053635239998 841.8936226703379Q750.3853635239998 842.753622670338 750.0653635239997 843.7236226703379T749.3653635239998 845.6736226703379T748.5953635239998 847.5036226703379H747.1453635239998Q747.3853635239998 846.573622670338 747.6253635239998 845.5336226703379Q747.8553635239998 844.4936226703378 748.0553635239999 843.4836226703378Q748.2453635239998 842.4636226703378 748.3653635239998 841.6236226703379M770.1253635239998 844.4136226703379H768.4953635239998L762.7453635239998 829.2536226703378H762.6453635239998Q762.6953635239997 829.7336226703378 762.7253635239997 830.4236226703379Q762.7653635239998 831.1136226703379 762.7853635239998 831.9236226703379Q762.8153635239997 832.7436226703378 762.8153635239997 833.583622670338V844.4136226703379H760.9653635239997V827.2836226703379H763.9153635239998L769.3353635239997 841.5336226703379H769.4253635239997L774.9253635239997 827.2836226703379H777.8553635239997V844.4136226703379H775.8853635239997V833.4436226703378Q775.8853635239997 832.6836226703379 775.9153635239996 831.9136226703379Q775.9353635239996 831.1436226703379 775.9753635239997 830.4636226703378Q776.0053635239997 829.7736226703379 776.0453635239996 829.2736226703379H775.9453635239996ZM787.0553635239999 831.3536226703379Q789.3553635239998 831.3536226703379 790.4653635239998 832.3936226703379Q791.5853635239998 833.4236226703379 791.5853635239998 835.6836226703379V844.4136226703379H790.1653635239998L789.7853635239999 842.513622670338H789.6953635239998Q789.1553635239998 843.2136226703379 788.5653635239998 843.693622670338Q787.9853635239999 844.163622670338 787.2153635239998 844.4036226703379T785.3353635239998 844.6436226703379Q784.1653635239998 844.6436226703379 783.2553635239999 844.2336226703379T781.8253635239998 842.9936226703379T781.3053635239999 840.8836226703379Q781.3053635239999 838.9636226703378 782.8253635239998 837.9336226703379Q784.3553635239998 836.9036226703379 787.4653635239998 836.803622670338L789.6853635239999 836.7136226703379V835.9236226703379Q789.6853635239999 834.2636226703379 788.9653635239998 833.5936226703379Q788.2553635239999 832.9236226703379 786.9553635239998 832.9236226703379Q785.9453635239998 832.9236226703379 785.0353635239999 833.2236226703379Q784.1153635239998 833.513622670338 783.2953635239999 833.9136226703379L782.6953635239997 832.4336226703379Q783.5653635239998 831.9936226703379 784.6953635239997 831.6736226703379Q785.8153635239998 831.3536226703379 787.0553635239999 831.3536226703379M789.6553635239998 839.263622670338V838.083622670338L787.7053635239998 838.1636226703379Q785.2953635239999 838.263622670338 784.3153635239998 838.953622670338T783.3353635239998 840.9136226703379Q783.3353635239998 842.013622670338 783.9953635239999 842.533622670338Q784.6653635239999 843.063622670338 785.7653635239999 843.063622670338Q787.4753635239998 843.063622670338 788.5653635239998 842.1136226703379T789.6553635239998 839.2636226703379M801.6853635239997 831.333622670338Q803.9653635239997 831.333622670338 805.1353635239998 832.4536226703378T806.3053635239999 836.0436226703379V844.4136226703379H804.3853635239998V836.1736226703379Q804.3853635239998 834.5736226703378 803.6553635239998 833.7736226703379T801.4153635239998 832.9736226703378Q799.2753635239998 832.9736226703378 798.4153635239998 834.1836226703379Q797.5453635239998 835.3936226703379 797.5453635239998 837.6836226703379V844.4136226703379H795.5953635239998V831.573622670338H797.1653635239998L797.4653635239997 833.4236226703379H797.5653635239998Q797.9753635239998 832.7436226703379 798.6153635239998 832.273622670338Q799.2453635239998 831.813622670338 800.0253635239999 831.573622670338Q800.8153635239998 831.333622670338 801.6853635239999 831.333622670338M815.1153635239998 831.3536226703379Q817.4053635239999 831.3536226703379 818.5253635239999 832.3936226703379Q819.6353635239999 833.4236226703379 819.6353635239999 835.683622670338V844.413622670338H818.2153635239999L817.8453635239998 842.513622670338H817.7453635239999Q817.2153635239999 843.213622670338 816.6253635239998 843.6936226703381Q816.0353635239999 844.1636226703381 815.2753635239999 844.403622670338Q814.5053635239999 844.643622670338 813.3853635239998 844.643622670338Q812.2153635239998 844.643622670338 811.3053635239999 844.233622670338Q810.4053635239999 843.823622670338 809.8753635239998 842.993622670338Q809.3553635239998 842.163622670338 809.3553635239998 840.8836226703379Q809.3553635239998 838.9636226703379 810.8853635239998 837.933622670338Q812.4053635239998 836.903622670338 815.5253635239999 836.803622670338L817.7353635239998 836.713622670338V835.923622670338Q817.7353635239998 834.263622670338 817.0253635239999 833.5936226703379Q816.3053635239999 832.923622670338 815.0053635239999 832.923622670338Q813.9953635239999 832.923622670338 813.0853635239998 833.223622670338Q812.1753635239997 833.513622670338 811.3553635239998 833.913622670338L810.7553635239998 832.433622670338Q811.6253635239998 831.993622670338 812.7453635239998 831.673622670338Q813.8753635239998 831.3536226703379 815.1153635239998 831.3536226703379M817.7153635239998 839.263622670338V838.083622670338L815.7553635239999 838.163622670338Q813.3553635239998 838.263622670338 812.3753635239998 838.9536226703381Q811.3853635239998 839.643622670338 811.3853635239998 840.913622670338Q811.3853635239998 842.013622670338 812.0553635239999 842.533622670338Q812.7253635239999 843.063622670338 813.8253635239998 843.063622670338Q815.5353635239999 843.063622670338 816.6253635239998 842.1136226703379T817.7153635239998 839.263622670338M827.2353635239998 850.173622670338Q824.7053635239998 850.173622670338 823.3353635239998 849.233622670338T821.9653635239998 846.5936226703379Q821.9653635239998 845.383622670338 822.7353635239998 844.533622670338Q823.5053635239998 843.673622670338 824.8653635239998 843.393622670338Q824.3553635239998 843.163622670338 823.9953635239998 842.6936226703381Q823.6453635239998 842.223622670338 823.6453635239998 841.613622670338Q823.6453635239998 840.9136226703381 824.0353635239998 840.373622670338Q824.4253635239997 839.843622670338 825.2353635239997 839.353622670338Q824.2253635239997 838.9436226703381 823.6053635239998 837.963622670338Q822.9753635239997 836.983622670338 822.9753635239997 835.6836226703381Q822.9753635239997 834.3036226703381 823.5453635239998 833.3236226703381Q824.1253635239998 832.343622670338 825.2153635239997 831.8236226703381Q826.3053635239997 831.3136226703381 827.8453635239998 831.3136226703381Q828.1853635239997 831.3136226703381 828.5353635239998 831.343622670338T829.1953635239997 831.4236226703381Q829.5153635239998 831.473622670338 829.7453635239998 831.543622670338H834.1553635239998V832.803622670338L831.7853635239999 833.093622670338Q832.1353635239998 833.553622670338 832.3753635239998 834.1936226703381Q832.6053635239998 834.843622670338 832.6053635239998 835.6236226703381Q832.6053635239998 837.5436226703381 831.3053635239999 838.6736226703381T827.7353635239998 839.8036226703381Q827.1953635239997 839.8036226703381 826.6353635239998 839.713622670338Q826.0553635239999 840.0336226703381 825.7553635239998 840.4136226703381Q825.4553635239997 840.8036226703381 825.4553635239997 841.3036226703381Q825.4553635239997 841.6836226703381 825.6853635239997 841.9036226703381T826.3453635239998 842.223622670338Q826.7853635239999 842.3236226703382 827.3953635239998 842.3236226703382H829.6553635239998Q831.7553635239999 842.3236226703382 832.8753635239998 843.2036226703381Q833.9853635239999 844.0836226703382 833.9853635239999 845.7736226703381Q833.9853635239999 847.9036226703381 832.2553635239999 849.0436226703381Q830.5253635239999 850.1736226703381 827.2353635239999 850.1736226703381M827.2953635239999 848.6536226703381Q828.8953635239999 848.6536226703381 829.9453635239998 848.3336226703382Q830.9853635239999 848.0136226703381 831.5153635239999 847.4036226703381Q832.0353635239999 846.8036226703381 832.0353635239999 845.973622670338Q832.0353635239999 845.1936226703381 831.6853635239997 844.8036226703381Q831.3253635239998 844.4136226703381 830.6453635239998 844.2736226703381Q829.9753635239997 844.1436226703381 828.9853635239997 844.1436226703381H826.7553635239997Q825.8953635239998 844.1436226703381 825.2453635239997 844.4136226703381Q824.6053635239998 844.6836226703381 824.2553635239997 845.213622670338Q823.9153635239998 845.733622670338 823.9153635239998 846.5236226703381Q823.9153635239998 847.5636226703382 824.7953635239998 848.1136226703381Q825.6653635239998 848.6536226703381 827.2953635239998 848.6536226703381M827.8053635239997 838.3936226703381Q829.1953635239997 838.3936226703381 829.8953635239998 837.6836226703381Q830.6053635239997 836.9836226703381 830.6053635239997 835.6336226703381Q830.6053635239997 834.1936226703381 829.8853635239997 833.473622670338Q829.1753635239997 832.753622670338 827.7753635239997 832.753622670338Q826.4453635239997 832.753622670338 825.7253635239997 833.493622670338Q825.0053635239997 834.243622670338 825.0053635239997 835.6736226703381Q825.0053635239997 836.983622670338 825.7253635239997 837.6836226703381Q826.4553635239997 838.3936226703381 827.8053635239996 838.3936226703381M841.6253635239996 831.3336226703381Q843.2653635239997 831.3336226703381 844.4353635239996 832.0636226703381Q845.6053635239996 832.7836226703381 846.2253635239997 834.093622670338T846.8453635239996 837.1436226703381V838.353622670338H837.9753635239997Q838.0153635239997 840.613622670338 839.1053635239996 841.803622670338Q840.1953635239996 842.983622670338 842.1753635239996 842.983622670338Q843.3853635239996 842.983622670338 844.3253635239996 842.763622670338Q845.2653635239997 842.533622670338 846.2753635239997 842.1036226703379V843.813622670338Q845.2953635239996 844.253622670338 844.3453635239996 844.443622670338Q843.3853635239996 844.6436226703379 842.0853635239996 844.6436226703379Q840.2353635239996 844.6436226703379 838.8653635239996 843.8936226703379Q837.4853635239996 843.1336226703379 836.7253635239996 841.6736226703379Q835.9653635239996 840.2036226703378 835.9653635239996 838.083622670338Q835.9653635239996 836.013622670338 836.6553635239995 834.493622670338Q837.3553635239996 832.973622670338 838.6253635239996 832.153622670338T841.6253635239996 831.333622670338M841.5953635239996 832.923622670338Q840.0353635239996 832.923622670338 839.1153635239996 833.943622670338Q838.1853635239996 834.9636226703379 838.0153635239997 836.793622670338H844.8053635239996Q844.7953635239996 835.643622670338 844.4553635239996 834.773622670338Q844.1053635239996 833.903622670338 843.4053635239995 833.413622670338Q842.6953635239996 832.923622670338 841.5953635239996 832.923622670338M850.2953635239996 841.6236226703379H852.3753635239996L852.5353635239996 841.8936226703379Q852.3153635239996 842.753622670338 851.9953635239996 843.7236226703379T851.2953635239996 845.6736226703379T850.5253635239997 847.5036226703379H849.0753635239996Q849.3153635239996 846.573622670338 849.5553635239996 845.5336226703379Q849.7853635239996 844.4936226703378 849.9853635239997 843.4836226703378Q850.1753635239996 842.4636226703378 850.2953635239996 841.6236226703379M862.8853635239997 827.2836226703379H867.3653635239997Q870.6853635239997 827.2836226703379 872.2153635239997 828.573622670338Q873.7453635239997 829.8736226703379 873.7453635239997 832.2836226703379Q873.7453635239997 833.3736226703379 873.3853635239997 834.3536226703379T872.2253635239997 836.073622670338Q871.4353635239997 836.823622670338 870.1353635239997 837.2436226703379Q868.8453635239997 837.6736226703379 866.9653635239997 837.6736226703379H864.8853635239997V844.4136226703379H862.8853635239997ZM867.1753635239996 828.9836226703378H864.8853635239997V835.9636226703378H866.7453635239997Q868.3853635239997 835.9636226703378 869.4853635239997 835.6136226703379Q870.5753635239997 835.2636226703378 871.1253635239997 834.4736226703378Q871.6753635239996 833.6736226703379 871.6753635239996 832.3636226703379Q871.6753635239996 830.6536226703379 870.5853635239996 829.8136226703378Q869.4953635239996 828.9836226703378 867.1753635239996 828.9836226703378M882.8853635239997 831.333622670338Q883.2653635239997 831.333622670338 883.6853635239996 831.3736226703379Q884.1153635239996 831.4136226703379 884.4353635239996 831.4836226703379L884.1953635239996 833.293622670338Q883.8753635239996 833.2136226703379 883.4853635239996 833.1636226703379Q883.1053635239996 833.1136226703379 882.7653635239996 833.1136226703379Q881.9853635239996 833.1136226703379 881.3053635239995 833.4236226703379Q880.6153635239995 833.7336226703379 880.1053635239995 834.313622670338Q879.5853635239995 834.8936226703379 879.2953635239995 835.7136226703378Q879.0053635239996 836.5236226703379 879.0053635239996 837.5236226703379V844.4136226703379H877.0453635239995V831.573622670338H878.6653635239995L878.8753635239996 833.9336226703379H878.9553635239996Q879.3553635239996 833.2236226703379 879.9153635239996 832.6336226703379Q880.4753635239996 832.0336226703379 881.2253635239996 831.6836226703379Q881.9653635239996 831.333622670338 882.8853635239996 831.333622670338M897.9153635239995 837.9636226703378Q897.9153635239995 839.5536226703379 897.5053635239996 840.7936226703379T896.3253635239996 842.8936226703379Q895.5453635239996 843.7436226703379 894.4553635239996 844.1936226703378Q893.3553635239996 844.6436226703379 891.9753635239996 844.6436226703379Q890.6853635239996 844.6436226703379 889.6153635239996 844.1936226703378T887.7653635239996 842.8936226703379Q886.9853635239996 842.0336226703379 886.5553635239995 840.7936226703379T886.1253635239996 837.9636226703378Q886.1253635239996 835.8536226703379 886.8453635239996 834.3736226703379Q887.5553635239996 832.8936226703379 888.8853635239996 832.1136226703379T892.0553635239995 831.333622670338Q893.8153635239995 831.333622670338 895.1353635239996 832.1236226703379Q896.4553635239996 832.9036226703379 897.1853635239995 834.3836226703379Q897.9153635239995 835.8736226703379 897.9153635239995 837.9636226703379M888.1453635239995 837.9636226703379Q888.1453635239995 839.513622670338 888.5553635239995 840.6536226703379Q888.9653635239995 841.783622670338 889.8153635239995 842.4136226703379Q890.6753635239995 843.033622670338 892.0253635239995 843.033622670338Q893.3553635239996 843.033622670338 894.2153635239996 842.4136226703379Q895.0853635239996 841.783622670338 895.4953635239996 840.6536226703379Q895.9053635239995 839.513622670338 895.9053635239995 837.9636226703379Q895.9053635239995 836.433622670338 895.4953635239996 835.313622670338T894.2253635239996 833.583622670338Q893.3753635239996 832.9736226703379 892.0153635239996 832.9736226703379Q890.0053635239996 832.9736226703379 889.0753635239995 834.303622670338Q888.1453635239995 835.6236226703379 888.1453635239995 837.9636226703379M909.5953635239996 840.8936226703379Q909.5953635239996 842.1236226703379 908.9853635239996 842.9636226703379Q908.3653635239996 843.803622670338 907.2253635239996 844.2236226703379T904.5053635239996 844.6436226703379Q903.1553635239995 844.6436226703379 902.1653635239995 844.433622670338Q901.1853635239995 844.223622670338 900.4453635239995 843.8436226703379V842.043622670338Q901.2353635239995 842.433622670338 902.3253635239995 842.753622670338Q903.4153635239995 843.063622670338 904.5453635239995 843.063622670338Q906.2153635239995 843.063622670338 906.9653635239995 842.523622670338T907.7153635239995 841.063622670338Q907.7153635239995 840.533622670338 907.4153635239995 840.1336226703379Q907.1153635239996 839.7236226703379 906.4153635239995 839.3436226703379Q905.7053635239995 838.9636226703379 904.4653635239995 838.503622670338Q903.2353635239995 838.033622670338 902.3353635239995 837.573622670338Q901.4453635239995 837.1136226703379 900.9553635239995 836.443622670338Q900.4753635239995 835.773622670338 900.4753635239995 834.7136226703379Q900.4753635239995 833.083622670338 901.7853635239994 832.203622670338Q903.1053635239995 831.333622670338 905.2553635239994 831.333622670338Q906.4153635239994 831.333622670338 907.4253635239994 831.563622670338T909.3153635239994 832.173622670338L908.6653635239994 833.733622670338Q907.8653635239995 833.393622670338 906.9653635239994 833.163622670338Q906.0553635239994 832.923622670338 905.1253635239993 832.923622670338Q903.7753635239993 832.923622670338 903.0553635239993 833.3736226703379T902.3353635239993 834.5936226703379Q902.3353635239993 835.1936226703381 902.6653635239993 835.573622670338Q903.0053635239993 835.963622670338 903.7353635239994 836.303622670338Q904.4753635239994 836.643622670338 905.6853635239994 837.103622670338Q906.8953635239994 837.543622670338 907.7753635239994 838.023622670338Q908.6453635239994 838.493622670338 909.1253635239995 839.1736226703381Q909.5953635239995 839.843622670338 909.5953635239995 840.8936226703381M918.7553635239994 831.3336226703381Q921.1553635239994 831.3336226703381 922.5853635239995 832.983622670338Q924.0153635239994 834.6436226703381 924.0153635239994 837.9536226703381Q924.0153635239994 840.1436226703381 923.3553635239995 841.6336226703381Q922.7053635239995 843.1236226703381 921.5153635239994 843.8836226703381T918.7053635239995 844.6436226703381Q917.6853635239995 844.6436226703381 916.9153635239995 844.3736226703381Q916.1353635239996 844.1036226703382 915.5853635239995 843.6536226703381Q915.0353635239995 843.1936226703381 914.6753635239995 842.6536226703381H914.5353635239995Q914.5653635239995 843.113622670338 914.6253635239996 843.753622670338Q914.6753635239995 844.4036226703381 914.6753635239995 844.8836226703381V850.1536226703381H912.7153635239995V831.5736226703381H914.3253635239995L914.5853635239995 833.463622670338H914.6753635239995Q915.0453635239995 832.8836226703381 915.5853635239995 832.3936226703381Q916.1253635239995 831.9136226703381 916.9053635239995 831.6236226703381T918.7553635239996 831.3336226703381M918.4153635239995 832.973622670338Q917.0753635239995 832.973622670338 916.2653635239996 833.493622670338Q915.4453635239995 834.003622670338 915.0753635239995 835.033622670338Q914.6953635239995 836.053622670338 914.6753635239995 837.603622670338V837.983622670338Q914.6753635239995 839.603622670338 915.0353635239995 840.733622670338Q915.3853635239996 841.853622670338 916.2153635239995 842.4436226703381T918.4353635239995 843.033622670338Q919.6353635239996 843.033622670338 920.4253635239995 842.383622670338Q921.2253635239995 841.743622670338 921.6153635239996 840.583622670338Q922.0153635239996 839.4336226703381 922.0153635239996 837.9336226703381Q922.0153635239996 835.6636226703381 921.1253635239996 834.313622670338Q920.2453635239996 832.973622670338 918.4153635239995 832.973622670338M932.3453635239995 831.3336226703381Q933.9853635239995 831.3336226703381 935.1553635239994 832.0636226703381Q936.3353635239994 832.7836226703381 936.9553635239994 834.093622670338T937.5753635239994 837.1436226703381V838.353622670338H928.7053635239994Q928.7353635239994 840.613622670338 929.8253635239994 841.803622670338Q930.9153635239994 842.983622670338 932.8953635239994 842.983622670338Q934.1153635239995 842.983622670338 935.0553635239994 842.763622670338Q935.9953635239995 842.533622670338 936.9953635239995 842.1036226703379V843.813622670338Q936.0253635239994 844.253622670338 935.0753635239995 844.443622670338Q934.1153635239995 844.6436226703379 932.8153635239995 844.6436226703379Q930.9653635239995 844.6436226703379 929.5853635239995 843.8936226703379Q928.2153635239995 843.1336226703379 927.4453635239995 841.6736226703379Q926.6853635239995 840.2036226703378 926.6853635239995 838.083622670338Q926.6853635239995 836.013622670338 927.3853635239996 834.493622670338T929.3553635239996 832.153622670338T932.3453635239996 831.333622670338M932.3253635239996 832.923622670338Q930.7653635239997 832.923622670338 929.8353635239996 833.943622670338Q928.9153635239996 834.9636226703379 928.7353635239996 836.793622670338H935.5353635239995Q935.5253635239995 835.643622670338 935.1753635239995 834.773622670338Q934.8353635239995 833.903622670338 934.1253635239996 833.413622670338Q933.4253635239995 832.923622670338 932.3253635239996 832.923622670338M946.7153635239996 831.333622670338Q947.1053635239996 831.333622670338 947.5253635239995 831.373622670338T948.2753635239995 831.483622670338L948.0253635239995 833.293622670338Q947.7153635239996 833.213622670338 947.3253635239995 833.1636226703381T946.5953635239995 833.113622670338Q945.8253635239995 833.113622670338 945.1353635239994 833.4236226703381Q944.4553635239995 833.733622670338 943.9353635239994 834.313622670338Q943.4253635239994 834.893622670338 943.1253635239995 835.713622670338Q942.8353635239995 836.523622670338 942.8353635239995 837.523622670338V844.413622670338H940.8753635239995V831.573622670338H942.4953635239995L942.7053635239995 833.9336226703381H942.7853635239995Q943.1853635239995 833.223622670338 943.7453635239996 832.633622670338Q944.3153635239996 832.033622670338 945.0553635239995 831.6836226703381T946.7153635239995 831.333622670338 "></path></g><rect width="620" height="162" x="440" y="669" id="space-saver" fill="transparent" stroke="transparent"></rect></g></svg>