<svg xmlns="http://www.w3.org/2000/svg" xml:space="preserve" width="1500" height="162" viewBox="0 0 1500 162" data-version="1" data-id="lg_P3eHDklDlEKadqPf8Q"><g id="outer-wrapper" data-padding="20" transform="matrix(1,0,0,1,0,0)"><g id="inner-wrapper" transform="matrix(0.967741935483871,0,0,0.967741935483871,10,2.6129032258064484)"><rect width="560" height="146.9" x="65.53536352399942" y="-393.9163773296619" fill="none" rx="0" ry="0" transform="translate(448.9 405.65)"></rect><path fill="#9edc29" d="M668.3353635239994 128.2336226703381Q655.7253635239994 128.2336226703381 645.5853635239994 123.0336226703381T629.5253635239993 107.69362267033813Q623.6153635239993 97.55362267033814 623.6153635239993 82.99362267033814Q623.6153635239993 72.07362267033812 627.1853635239994 63.623622670338136Q630.7653635239993 55.17362267033815 637.0653635239993 49.38362267033813Q643.3753635239993 43.603622670338154 651.5653635239993 40.67362267033815Q659.7553635239993 37.75362267033813 668.9853635239994 37.75362267033813Q676.1353635239993 37.75362267033813 682.3753635239993 39.373622670338136Q688.6153635239993 41.00362267033813 694.3353635239993 44.123622670338136L694.8553635239992 61.15362267033811H691.3453635239993L685.8853635239993 50.88362267033813Q684.5853635239993 48.283622670338104 683.0853635239993 46.20362267033812Q681.5953635239993 44.123622670338136 679.2553635239993 43.21362267033811Q676.0053635239993 41.65362267033811 671.5853635239993 41.65362267033811Q663.9153635239993 41.65362267033811 657.6053635239992 45.553622670338086Q651.3053635239993 49.45362267033806 647.5353635239993 58.48362267033809Q643.7653635239993 67.52362267033811 643.7653635239993 83.12362267033808Q643.7653635239993 98.5936226703381 647.3353635239993 107.69362267033807Q650.9153635239993 116.7936226703381 657.0253635239993 120.62362267033808Q663.1353635239993 124.46362267033805 670.8053635239993 124.46362267033805Q674.3153635239993 124.46362267033805 676.5253635239993 123.94362267033807T680.9453635239994 122.51362267033807Q683.5453635239993 121.47362267033805 684.9753635239994 119.45362267033806Q686.4053635239993 117.44362267033807 687.4453635239994 114.84362267033805L692.3853635239993 103.01362267033807H695.8953635239993L695.3753635239993 121.73362267033804Q689.7853635239993 124.85362267033804 683.0253635239993 126.54362267033804T668.3353635239993 128.23362267033804M732.5553635239993 126.02362267033806H702.2653635239993V123.55362267033803L704.2153635239994 123.03362267033805Q708.5053635239993 121.60362267033804 708.5053635239993 116.53362267033805Q708.5053635239993 112.11362267033803 708.5653635239993 107.62362267033802Q708.6353635239993 103.143622670338 708.6353635239993 98.72362267033805V49.32362267033807Q708.6353635239993 46.59362267033805 707.7253635239994 45.223622670338045Q706.8153635239993 43.86362267033803 704.2153635239994 43.213622670338054L702.2653635239993 42.69362267033807V40.223622670338045L725.0153635239993 34.763622670338066L726.7053635239994 35.93362267033808L726.1853635239994 54.263622670338066V116.5336226703381Q726.3153635239993 119.13362267033813 727.2853635239993 120.75362267033813Q728.2653635239993 122.38362267033813 730.7353635239994 123.0336226703381L732.5553635239993 123.55362267033809ZM757.2553635239993 127.84362267033805Q749.8453635239993 127.84362267033805 744.7053635239994 123.61362267033803Q739.5753635239993 119.393622670338 739.5753635239993 111.46362267033805Q739.5753635239993 105.22362267033805 745.6153635239993 99.95362267033806Q751.6653635239994 94.69362267033807 764.6653635239994 92.22362267033805Q766.8753635239993 91.70362267033806 769.7953635239993 91.24362267033803Q772.7253635239994 90.79362267033804 775.5853635239994 90.273622670338V81.04362267033798Q775.5853635239994 72.203622670338 773.3753635239995 68.82362267033795T766.3553635239995 65.44362267033796H765.9653635239994Q762.9753635239994 65.44362267033796 761.2153635239994 67.32362267033795Q759.4653635239994 69.21362267033794 758.9453635239994 73.50362267033796L758.5553635239995 75.19362267033796Q758.1653635239994 80.39362267033795 755.8253635239995 82.79362267033798Q753.4853635239995 85.203622670338 749.9753635239994 85.203622670338Q746.7253635239994 85.203622670338 744.5753635239995 83.18362267033802Q742.4353635239994 81.17362267033803 742.4353635239994 77.92362267033803Q742.4353635239994 72.59362267033805 746.0753635239995 68.953622670338T755.7553635239994 63.49362267033803Q761.8053635239995 61.673622670338034 768.8253635239995 61.673622670338034Q780.3953635239994 61.673622670338034 786.5053635239994 67.26362267033801T792.6153635239995 85.463622670338V114.453622670338Q792.6153635239995 120.04362267033798 797.9453635239994 120.04362267033798H800.9353635239994L802.2353635239995 121.47362267033799Q799.8953635239994 124.463622670338 797.0353635239995 126.083622670338Q794.1753635239994 127.713622670338 789.2353635239995 127.713622670338Q783.6453635239994 127.713622670338 780.3253635239995 125.04362267033798Q777.0153635239994 122.38362267033796 775.9753635239994 117.963622670338Q771.8153635239994 122.38362267033801 767.7853635239994 125.11362267033797T757.2553635239994 127.843622670338M764.7953635239995 119.523622670338Q767.3953635239994 119.523622670338 769.7353635239995 118.35362267033798T775.5853635239995 114.453622670338V93.653622670338Q772.2053635239995 94.17362267033798 768.6953635239995 94.953622670338Q763.1053635239995 96.25362267033802 759.6553635239994 99.76362267033801Q756.2153635239995 103.273622670338 756.2153635239995 109.25362267033802Q756.2153635239995 114.453622670338 758.6153635239995 116.98362267033804Q761.0253635239995 119.52362267033806 764.7953635239995 119.52362267033806M837.7253635239995 126.03362267033805H805.2253635239995V123.56362267033802L807.1753635239994 122.91362267033804Q809.7753635239995 122.26362267033807 810.7453635239995 120.70362267033806Q811.7253635239995 119.14362267033806 811.7253635239995 116.54362267033804V78.45362267033806Q811.5953635239995 75.59362267033805 810.6853635239994 74.09362267033805Q809.7753635239994 72.60362267033804 807.1753635239994 72.08362267033806L805.2253635239995 71.56362267033808V69.2236226703381L826.4153635239994 61.68362267033808L827.9753635239995 63.11362267033809L829.1453635239994 74.55362267033809V75.46362267033811Q831.0953635239995 71.82362267033812 834.0853635239995 68.70362267033812T840.5853635239995 63.63362267033813T847.6053635239995 61.68362267033814Q852.5453635239995 61.68362267033814 855.0153635239996 64.28362267033816T857.4853635239996 70.91362267033816Q857.4853635239996 75.33362267033817 855.0153635239996 77.60362267033815Q852.5453635239995 79.88362267033813 849.0353635239995 79.88362267033813Q843.8353635239995 79.88362267033813 840.0653635239995 75.20362267033812L839.8053635239995 74.94362267033813Q838.5053635239994 73.38362267033813 836.8753635239995 73.18362267033814Q835.2553635239994 72.99362267033814 833.6953635239994 74.81362267033813Q832.3953635239994 76.11362267033815 831.2853635239994 77.86362267033815Q830.1853635239994 79.62362267033814 829.2753635239994 81.96362267033817V116.02362267033817Q829.2753635239994 118.4936226703382 830.3153635239995 120.11362267033815Q831.3553635239995 121.74362267033814 833.8253635239995 122.39362267033812L837.7253635239994 123.56362267033813ZM876.8653635239995 54.52362267033806Q872.5753635239995 54.52362267033806 869.5853635239995 51.79362267033804T866.5953635239995 44.90362267033805Q866.5953635239995 40.61362267033803 869.5853635239995 37.94362267033807Q872.5753635239995 35.28362267033805 876.8653635239995 35.28362267033805T884.1453635239994 37.94362267033807Q887.1353635239994 40.61362267033809 887.1353635239994 44.90362267033805Q887.1353635239994 49.06362267033808 884.1453635239994 51.79362267033804T876.8653635239995 54.52362267033806M891.6853635239996 126.02362267033806H861.9153635239996V123.55362267033803L863.8653635239997 123.03362267033805Q866.4653635239996 122.25362267033807 867.3753635239997 120.69362267033807T868.4153635239996 116.53362267033805V85.13362267033807Q868.4153635239996 81.69362267033807 868.2853635239995 78.05362267033809Q868.2853635239995 75.45362267033806 867.3053635239995 73.95362267033806Q866.3353635239995 72.46362267033805 863.7353635239996 71.94362267033807L861.9153635239994 71.55362267033809V69.21362267033811L884.6653635239994 61.67362267033809L886.2253635239994 63.1036226703381L885.8353635239995 81.56362267033808V116.6636226703381Q885.8353635239995 119.26362267033812 886.8053635239995 120.82362267033812Q887.7853635239995 122.38362267033813 890.2553635239996 123.1636226703381L891.6853635239994 123.55362267033809ZM931.0753635239995 126.02362267033806H897.5353635239993V123.55362267033803L899.4853635239994 123.03362267033805Q904.6853635239994 121.60362267033804 904.8153635239995 116.66362267033804Q904.8153635239995 112.11362267033803 904.8753635239995 107.62362267033802Q904.9453635239994 103.143622670338 904.9453635239994 98.72362267033805V67.65362267033805H897.5353635239993V64.79362267033804L900.3953635239994 64.27362267033806Q902.9953635239993 63.88362267033807 904.1653635239994 62.38362267033807Q905.3353635239993 60.89362267033806 905.8553635239995 58.16362267033804Q907.2853635239993 52.963622670338054 909.6853635239994 49.12362267033802Q912.0953635239995 45.29362267033804 915.4753635239994 42.04362267033804Q920.2853635239993 37.36362267033803 925.7453635239993 35.54362267033804T936.4053635239994 33.723622670338045Q941.4753635239994 33.723622670338045 945.6953635239994 35.733622670338036Q949.9253635239994 37.75362267033802 949.9253635239994 42.56362267033802Q949.9253635239994 45.943622670338016 947.9053635239994 47.95362267033801Q945.8953635239994 49.97362267033799 942.1253635239995 49.97362267033799Q936.1453635239994 49.97362267033799 931.5953635239995 42.95362267033801L930.0353635239995 41.13362267033801Q928.4753635239996 39.183622670338025 926.9153635239994 39.57362267033801T924.7053635239994 42.173622670338034Q923.6653635239994 46.33362267033806 923.0753635239995 51.923622670338034Q922.4953635239993 57.51362267033801 922.3653635239995 63.62362267033802H937.3153635239995V67.653622670338H922.3653635239995V98.72362267033799Q922.3653635239995 103.143622670338 922.4253635239994 107.49362267033797Q922.4953635239993 111.85362267033798 922.4953635239993 116.27362267033794Q922.4953635239993 121.47362267033793 927.6953635239994 122.64362267033795L931.0753635239995 123.55362267033797Z "></path><path fill="#9edc29" d="M956.8053635239994 54.52362267033811Q952.5153635239994 54.52362267033811 949.5253635239994 51.793622670338095T946.5353635239994 44.90362267033811Q946.5353635239994 40.61362267033809 949.5253635239994 37.94362267033813Q952.5153635239994 35.283622670338104 956.8053635239994 35.283622670338104T964.0853635239994 37.94362267033813Q967.0753635239994 40.613622670338145 967.0753635239994 44.90362267033811Q967.0753635239994 49.063622670338134 964.0853635239994 51.793622670338095T956.8053635239994 54.52362267033811M971.6253635239996 126.02362267033811H941.8553635239996V123.55362267033809L943.8053635239996 123.0336226703381Q946.4053635239995 122.25362267033813 947.3153635239996 120.69362267033813T948.3553635239996 116.5336226703381V85.13362267033813Q948.3553635239996 81.69362267033813 948.2253635239995 78.05362267033814Q948.2253635239995 75.45362267033812 947.2453635239995 73.95362267033812Q946.2753635239994 72.46362267033811 943.6753635239995 71.94362267033813L941.8553635239994 71.55362267033814V69.21362267033817L964.6053635239994 61.67362267033815L966.1653635239993 63.103622670338154L965.7753635239994 81.56362267033813V116.66362267033816Q965.7753635239994 119.26362267033818 966.7453635239995 120.82362267033818Q967.7253635239995 122.38362267033818 970.1953635239995 123.16362267033816L971.6253635239993 123.55362267033814ZM595.8973635239995 51.33062267033813A57 57 0 0 0 594.1173635239995 57.151622670338156C597.7843635239994 59.39462267033815 601.8773635239995 60.83662267033816 605.5273635239994 63.09662267033815A15.486 15.486 0 0 0 597.9273635239995 45.11862267033814A64 64 0 0 1 595.9683635239994 51.33062267033813ZM596.6273635239995 56.083622670338116C597.3743635239996 53.555622670338096 598.4073635239995 51.099622670338135 599.1723635239994 48.589622670338144A13.53 13.53 0 0 1 603.8893635239995 59.64362267033812C601.4863635239994 58.39762267033814 598.9763635239995 57.38362267033813 596.6273635239995 56.083622670338116C596.9833635239995 54.783622670338104 596.6983635239994 56.083622670338116 596.6273635239995 56.083622670338116M595.7013635239994 107.95362267033812L594.1353635239996 104.8196226703381A17.27 17.27 0 0 0 587.0153635239994 113.09662267033809C590.3253635239994 112.3846226703381 593.6903635239994 111.97562267033811 596.9473635239995 111.0146226703381Q596.3073635239994 109.3586226703381 595.6303635239994 107.95262267033809C594.9543635239995 106.54662267033808 596.1283635239995 108.87862267033807 595.7013635239994 107.95262267033809M593.9213635239994 109.50162267033807A59 59 0 0 1 591.3583635239995 110.01762267033808A14 14 0 0 1 593.2633635239995 108.09562267033806Q593.6193635239995 108.78962267033808 593.9393635239994 109.50162267033807C593.7793635239993 109.50162267033807 593.9033635239994 109.30562267033804 593.9923635239995 109.50162267033807ZM594.8473635239993 67.72462267033808A17.8 17.8 0 0 0 598.5143635239995 73.06462267033805A57 57 0 0 0 602.9463635239995 67.72462267033808C599.9913635239993 65.9446226703381 596.7343635239995 64.5916226703381 593.6363635239993 62.9546226703381A19.6 19.6 0 0 0 594.8463635239993 67.72462267033808M596.9653635239995 67.22662267033809C597.6053635239994 67.52862267033811 598.8523635239994 68.1346226703381 599.6173635239993 68.5436226703381Q599.0833635239994 69.21962267033808 598.4963635239994 69.82562267033808A14.2 14.2 0 0 1 596.9653635239995 67.22562267033805C597.6243635239994 67.51162267033806 597.0903635239995 67.35062267033805 596.9653635239995 67.22562267033805M478.68436352399937 85.54262267033806A22.25 22.25 0 0 1 484.70036352399933 102.36362267033809A22.6 22.6 0 0 1 492.40836352399936 119.43362267033808A22.78 22.78 0 0 1 510.43936352399936 133.4956226703381A22.43 22.43 0 0 1 529.1473635239993 136.53962267033808A22.78 22.78 0 0 1 547.7843635239994 138.31962267033805A22.96 22.96 0 0 1 568.9663635239992 129.73962267033806A23.14 23.14 0 0 1 580.9633635239993 115.10862267033804A22.6 22.6 0 0 1 591.8923635239994 99.90762267033801A22.78 22.78 0 0 1 595.0253635239994 77.26562267033802A22.6 22.6 0 0 1 588.2253635239992 59.643622670338004A22.6 22.6 0 0 1 580.5183635239994 42.57362267033801A22.78 22.78 0 0 1 562.4863635239992 28.511622670338A22.43 22.43 0 0 1 543.7793635239993 25.467622670338017A23.14 23.14 0 0 1 525.1423635239994 23.687622670338044A22.96 22.96 0 0 1 503.9603635239993 32.26762267033803A23.14 23.14 0 0 1 491.9633635239993 46.898622670338A22.6 22.6 0 0 1 481.0333635239993 62.09962267033802A22.78 22.78 0 0 1 477.9013635239993 84.74162267033802ZM480.76736352399934 84.56362267033808A24.74 24.74 0 0 0 483.7753635239994 63.025622670338066A24.92 24.92 0 0 0 493.95636352399936 48.39362267033806A24.2 24.2 0 0 0 505.52636352399935 34.56362267033808A24.39 24.39 0 0 0 525.6763635239993 26.39362267033806A24.2 24.2 0 0 0 543.4763635239995 27.888622670338066A24.92 24.92 0 0 0 561.2763635239994 30.985622670338046A24.74 24.74 0 0 0 578.4363635239995 44.35362267033804A24.92 24.92 0 0 0 586.0183635239994 60.497622670338046A24.92 24.92 0 0 0 592.1593635239994 77.44362267033807A24.74 24.74 0 0 0 589.1513635239994 98.98162267033808A24.92 24.92 0 0 0 578.9693635239994 113.61362267033809A24.2 24.2 0 0 0 567.3993635239995 127.44362267033807A24.39 24.39 0 0 0 547.2493635239994 135.6136226703381A24.03 24.03 0 0 0 529.4493635239994 134.11862267033808A24.92 24.92 0 0 0 511.64936352399934 131.0216226703381A24.74 24.74 0 0 0 494.49036352399935 117.65362267033811A24.92 24.92 0 0 0 486.90836352399936 101.5096226703381A24.92 24.92 0 0 0 480.7673635239994 84.56362267033808C481.15836352399936 83.99362267033808 481.28336352399936 85.13362267033807 480.7673635239994 84.56362267033808M485.6083635239994 118.97062267033806H487.0143635239994A17.8 17.8 0 0 0 483.3653635239994 108.70062267033808C482.3513635239994 111.92262267033806 481.0153635239994 115.05462267033806 480.2333635239994 118.3656226703381A52 52 0 0 0 485.6083635239994 118.97062267033812M484.57636352399936 116.6926226703381L483.0633635239994 116.6036226703381L483.91736352399937 114.11162267033808C484.2473635239994 114.9496226703381 484.48736352399936 115.82162267033806 484.62936352399936 116.71062267033807C484.27336352399936 116.60362267033804 484.5583635239994 116.60362267033804 484.57636352399936 116.6926226703381M498.7453635239994 142.82362267033807A20 20 0 0 1 496.7693635239994 143.10762267033806A15.66 15.66 0 0 0 509.5143635239994 147.02362267033806A69 69 0 0 1 507.1113635239994 140.36662267033807A59 59 0 0 1 498.7453635239994 142.84062267033806ZM502.64336352399937 144.14062267033808Q504.1733635239994 143.69562267033808 505.6693635239994 143.16062267033806C505.8823635239994 143.82062267033808 506.0603635239994 144.35362267033804 506.29236352399937 144.94062267033803A12.5 12.5 0 0 1 502.6423635239994 144.14062267033802C503.37236352399935 143.944622670338 502.78536352399937 144.19362267033802 502.6423635239994 144.14062267033802M495.52336352399936 137.785622670338A37.4 37.4 0 0 0 505.25936352399935 135.275622670338A17.09 17.09 0 0 0 492.1233635239994 124.951622670338C491.8033635239994 129.18862267033802 491.2863635239994 133.691622670338 492.90636352399935 137.749622670338C493.7703635239994 137.840622670338 494.64136352399936 137.840622670338 495.50536352399934 137.749622670338ZM497.3033635239994 135.36562267033798A16 16 0 0 1 494.5973635239994 135.61362267033797A24.9 24.9 0 0 1 494.1873635239994 127.65762267033796A14.6 14.6 0 0 1 502.2163635239994 134.01162267033794A39 39 0 0 1 497.3033635239994 135.38262267033792ZM606.4523635239993 72.22862267033798C605.2243635239993 73.83062267033796 603.8543635239994 75.30762267033799 602.5013635239993 76.802622670338A44.5 44.5 0 0 1 610.0663635239994 84.38562267033802A15.49 15.49 0 0 0 607.0763635239994 71.37362267033802L606.4353635239993 72.22862267033804ZM606.4523635239993 75.78862267033799L606.9693635239994 75.20062267033796A10.7 10.7 0 0 1 608.0373635239994 78.76062267033797A50 50 0 0 0 605.6873635239992 76.62462267033794L606.4173635239993 75.68162267033796ZM486.53436352399933 133.44262267033798A59 59 0 0 1 486.8013635239993 124.45262267033797C484.43336352399933 124.31062267033798 482.04836352399934 124.20462267033798 479.6813635239993 123.83062267033796A15.49 15.49 0 0 0 486.8013635239993 135.45362267033795Q486.62336352399933 134.40362267033794 486.53436352399933 133.44262267033793M484.43436352399937 126.51862267033795A54 54 0 0 0 484.25536352399934 130.07862267033795A10.7 10.7 0 0 1 482.38636352399936 126.51862267033795L484.43336352399933 126.66062267033794C484.38036352399934 126.98062267033794 483.95336352399937 126.48262267033795 484.43336352399933 126.50062267033792ZM586.4103635239994 128.13762267033798V131.80462267033795A15.575 15.575 0 0 0 598.1753635239993 116.22962267033796C594.1353635239993 117.40462267033797 589.8453635239994 117.65362267033794 585.8403635239995 118.93562267033798C585.9473635239995 121.94362267033796 586.1073635239993 125.09462267033797 586.4103635239994 128.13762267033798M588.1903635239994 120.62662267033795C590.7703635239993 120.02162267033793 593.4053635239993 119.66562267033794 595.9863635239994 119.09562267033795A14.24 14.24 0 0 1 588.7243635239993 128.74362267033797C588.6173635239993 126.03762267033795 588.2433635239993 123.403622670338 588.1903635239994 120.62662267033795C588.1903635239994 120.60862267033798 588.0833635239994 120.71562267033795 588.0833635239994 120.62662267033795ZM579.1833635239993 139.42362267033798A16 16 0 0 0 580.1263635239993 137.35862267033798A66 66 0 0 1 573.1493635239995 136.09462267033797A44.5 44.5 0 0 1 570.3723635239994 146.43662267033795A16.55 16.55 0 0 0 579.1823635239994 139.42362267033798M576.7983635239993 139.08462267033798A12.5 12.5 0 0 1 574.2343635239995 141.80862267033797Q574.6083635239993 140.27762267033796 574.9113635239994 138.711622670338ZM577.4033635239994 131.51962267033798Q579.1833635239993 131.83962267033797 580.9633635239993 132.05362267033797C581.0873635239993 128.49362267033797 580.5893635239993 125.093622670338 580.4293635239994 121.605622670338A17.27 17.27 0 0 0 574.2883635239994 130.86162267033797ZM577.1363635239993 129.223622670338C577.5403635239993 128.30162267033796 578.0413635239993 127.42362267033798 578.6313635239994 126.607622670338Q578.7733635239995 128.06762267033798 578.8093635239993 129.52662267033799L577.1183635239993 129.206622670338C577.2783635239994 129.081622670338 577.4033635239994 129.27662267033799 577.1893635239994 129.223622670338ZM536.5873635239993 152.22162267033798L536.8373635239993 152.04362267033798C533.8283635239993 149.12362267033797 531.1413635239994 145.81362267033796 528.3103635239993 142.73362267033798C524.5013635239993 144.691622670338 521.1903635239994 147.61162267033797 517.4703635239994 149.658622670338A15.59 15.59 0 0 0 536.5873635239993 152.22162267033798M533.2053635239993 151.45562267033796A14.24 14.24 0 0 1 521.2263635239995 149.99562267033798C523.5043635239992 148.53662267033798 525.6583635239992 146.89962267033798 527.9723635239993 145.475622670338C529.7523635239993 147.379622670338 531.4083635239995 149.51562267033802 533.2053635239993 151.45562267033802C532.7433635239993 151.70562267033802 533.0813635239995 151.420622670338 533.2053635239993 151.545622670338ZM555.1883635239994 143.30362267033797A51.6 51.6 0 0 0 563.8043635239994 147.07762267033797C566.1353635239993 143.92662267033796 567.1143635239994 139.06762267033798 567.8263635239994 135.13362267033796A17.44 17.44 0 0 0 552.3233635239994 141.34562267033795Q553.7473635239994 142.34262267033796 555.1883635239994 143.30362267033797M555.6693635239994 140.98962267033795A14.95 14.95 0 0 1 565.2283635239994 137.17962267033795A28.5 28.5 0 0 1 562.7893635239993 144.62062267033792A28.5 28.5 0 0 1 555.6693635239994 141.06062267033792S555.9003635239994 141.13162267033795 555.6693635239994 140.97162267033792ZM558.4643635239993 151.38462267033793L558.7483635239994 151.24262267033794A46.3 46.3 0 0 1 549.2433635239993 145.72462267033796C547.9433635239993 147.71762267033796 546.6633635239994 149.72962267033796 545.1673635239995 151.58062267033796A15.66 15.66 0 0 0 558.4813635239993 151.36662267033796ZM552.7503635239993 150.72662267033792A12.5 12.5 0 0 1 548.6743635239993 150.54862267033792Q549.2613635239993 149.71162267033793 549.8313635239995 148.76862267033795Q551.2553635239994 149.74762267033793 552.7503635239993 150.65462267033797C552.6433635239994 150.72662267033797 552.1983635239994 150.42362267033798 552.7683635239994 150.72662267033797ZM535.3413635239995 142.3956226703379C537.1213635239994 144.44262267033793 538.9013635239994 146.54362267033792 540.7883635239994 148.4296226703379A62 62 0 0 0 544.6863635239995 142.8406226703379A17.44 17.44 0 0 0 534.0063635239994 140.88262267033787ZC535.8223635239995 142.9656226703379 534.8613635239994 141.8256226703379 535.3413635239995 142.3956226703379M538.9013635239994 143.08962267033792A14 14 0 0 1 541.5183635239994 143.76662267033794L540.6283635239995 145.06662267033795Q539.6673635239995 144.10462267033796 538.8483635239993 143.08962267033797ZM514.5873635239993 145.08362267033795C517.6843635239993 143.46362267033794 520.4253635239993 141.29262267033795 523.3443635239994 139.40562267033795A17.27 17.27 0 0 0 512.2373635239994 138.60462267033796A61 61 0 0 0 514.5873635239993 145.08362267033795C515.6723635239994 144.58562267033795 514.0533635239995 143.99762267033793 514.5873635239993 145.08362267033795M515.1033635239994 140.40262267033796A12.4 12.4 0 0 1 518.1113635239994 140.40262267033796Q516.9013635239994 141.25662267033795 515.6723635239994 142.02262267033797Q515.3703635239995 141.23862267033797 515.1213635239994 140.41962267033796C515.6193635239995 140.31362267033796 515.1033635239994 140.61562267033798 515.1033635239994 140.40262267033796M597.1613635239994 97.18362267033797C600.8283635239995 95.403622670338 604.7793635239993 93.62362267033797 607.3423635239994 90.34862267033799C605.5623635239995 86.41462267033796 602.1983635239994 83.62062267033798 599.0303635239993 80.89662267033799A17.27 17.27 0 0 0 596.6623635239994 97.43262267033799ZM597.6773635239995 91.29162267033797A14.24 14.24 0 0 1 599.4573635239994 84.17162267033797A25 25 0 0 1 604.6903635239994 89.903622670338A24.9 24.9 0 0 1 598.0153635239994 94.24662267033801A12.5 12.5 0 0 1 597.6773635239995 91.29162267033803 "></path><path fill="#9edc29" d="M455.29536352399947 76.71362267033811A21.4 21.4 0 0 1 457.30636352399944 70.59062267033812A23.14 23.14 0 0 1 457.7163635239994 59.910622670338114L459.9233635239994 60.4976226703381A21.36 21.36 0 0 0 459.70936352399946 70.92862267033809A21 21 0 0 0 463.0913635239994 95.51062267033808C458.88536352399944 106.05362267033809 463.89636352399947 118.02262267033808 474.35936352399943 122.42462267033807A21 21 0 0 0 489.34636352399946 142.4666226703381A21 21 0 0 0 512.3623635239994 151.88362267033807C519.3893635239995 160.8106226703381 532.2753635239994 162.45762267033808 541.3223635239995 155.58562267033807A21 21 0 0 0 566.2423635239995 152.61262267033806A21 21 0 0 0 585.8223635239995 137.39362267033806C597.0233635239995 135.76562267033808 604.8733635239994 125.48862267033809 603.4983635239994 114.25362267033807A21 21 0 0 0 613.3583635239995 91.11362267033809A21 21 0 0 0 609.9773635239994 66.53262267033807C614.1833635239996 55.989622670338065 609.1723635239994 44.02062267033807 598.7093635239994 39.618622670338084A21 21 0 0 0 583.7223635239995 19.575622670338078A21 21 0 0 0 560.7063635239995 10.15962267033808C553.6803635239994 1.1936226703380726 540.7543635239995 -0.4643773296619429 531.6923635239993 6.4396226703380535A21 21 0 0 0 506.77236352399945 9.411622670338033A21 21 0 0 0 487.19236352399946 24.63162267033806C475.9923635239995 26.259622670338047 468.14236352399945 36.53562267033806 469.51736352399945 47.77162267033805A20.1 20.1 0 0 0 459.9233635239995 60.48062267033805L457.7873635239995 59.91062267033806A22.6 22.6 0 0 1 467.2033635239995 46.685622670338034C466.5103635239995 35.26062267033802 474.2733635239995 25.045622670338048 485.46636352399946 22.65562267033806A23.32 23.32 0 0 1 505.91836352399946 7.240622670338041A23.32 23.32 0 0 1 531.5143635239995 3.8046226703380626C541.0843635239994 -2.5113773296619115 553.8343635239994 -0.8683773296619393 561.4903635239996 7.667622670338062A23.5 23.5 0 0 1 585.0753635239996 17.67162267033808A23.14 23.14 0 0 1 593.9753635239995 23.22462267033808A22.25 22.25 0 0 1 600.7753635239994 38.069622670338106C611.0213635239995 43.19762267033809 615.9713635239996 55.05262267033811 612.4153635239995 65.9446226703381A23.14 23.14 0 0 1 615.5483635239996 91.36362267033809A23.5 23.5 0 0 1 605.7233635239995 115.26862267033812C606.4433635239996 126.71262267033813 598.6733635239996 136.95862267033812 587.4603635239996 139.3516226703381A23.32 23.32 0 0 1 567.0083635239994 154.7666226703381A23.32 23.32 0 0 1 541.3933635239994 158.2026226703381C531.8283635239995 164.50862267033807 519.0893635239995 162.8656226703381 511.4363635239995 154.3396226703381A23.5 23.5 0 0 1 487.85136352399945 144.33562267033807A23.14 23.14 0 0 1 472.08136352399947 123.8656226703381C461.8423635239995 118.73962267033812 456.8933635239995 106.89562267033807 460.4393635239995 96.00862267033813A23.14 23.14 0 0 1 455.29536352399947 76.71362267033811 "></path><path fill="#9edc29" d="M602.2163635239995 100.74362267033808L598.9063635239995 102.34562267033806C599.9733635239995 104.48162267033808 601.0593635239995 106.56462267033805 601.9313635239994 108.80762267033805A15.49 15.49 0 0 0 608.4283635239995 96.86362267033803A32 32 0 0 1 602.2163635239995 100.76162267033806ZM601.8963635239995 103.3606226703381Q603.4803635239994 102.61262267033811 605.0113635239995 101.7766226703381A12.5 12.5 0 0 1 602.8033635239995 105.2116226703381Q602.3763635239993 104.28562267033811 601.8963635239995 103.43162267033813C602.3233635239994 103.1466226703381 602.0913635239995 103.76962267033815 601.8783635239995 103.34262267033813ZM466.4733635239994 89.79662267033808C467.7013635239994 88.1946226703381 469.0723635239994 86.7166226703381 470.4253635239994 85.22262267033807A44.5 44.5 0 0 1 462.8603635239994 77.63962267033804A15.49 15.49 0 0 0 465.8503635239994 90.65162267033804ZM466.4733635239994 86.23662267033808L465.9573635239994 86.8246226703381A10.7 10.7 0 0 1 464.8893635239994 83.2646226703381C465.7973635239994 84.15462267033809 466.34936352399944 84.6346226703381 467.23936352399943 85.40062267033812L466.5093635239994 86.3436226703381ZM514.4453635239995 10.622622670338046L514.1593635239994 10.764622670338042A46.3 46.3 0 0 1 523.6653635239995 16.282622670338014C524.9643635239995 14.28962267033802 526.2453635239995 12.277622670338019 527.7413635239993 10.42662267033802A15.49 15.49 0 0 0 514.4263635239995 10.640622670338018ZM520.1583635239995 11.280622670338062A12.5 12.5 0 0 1 524.2343635239995 11.458622670338059Q523.6473635239995 12.295622670338048 523.0773635239993 13.238622670338032Q521.6533635239994 12.259622670338047 520.1583635239995 11.352622670338008C520.2653635239994 11.280622670338005 520.7103635239994 11.583622670338002 520.1403635239994 11.280622670338005ZM537.6023635239994 19.62962267033805C535.8223635239995 17.582622670338026 534.0423635239995 15.481622670338027 532.1553635239993 13.594622670338026A62 62 0 0 0 528.2573635239994 19.184622670338A17.44 17.44 0 0 0 538.9373635239995 21.142622670338028ZM534.0423635239995 18.934622670338058A14 14 0 0 1 531.4253635239995 18.25862267033807L532.3153635239994 16.95862267033806Q533.2593635239994 17.920622670338048 534.0783635239993 18.934622670338058ZM558.3393635239995 16.923622670338034C555.2423635239993 18.54362267033804 552.5013635239993 20.71462267033803 549.5813635239995 22.60162267033803A17.27 17.27 0 0 0 560.6893635239994 23.40262267033802A61 61 0 0 0 558.3393635239995 16.923622670338034C557.2533635239995 17.421622670338024 558.8733635239994 18.009622670338047 558.3393635239995 16.923622670338034M557.8233635239994 21.604622670338017C556.8233635239994 21.72662267033803 555.8133635239994 21.72662267033803 554.8153635239994 21.604622670338017Q556.0253635239994 20.750622670338032 557.2533635239995 19.984622670338013Q557.5563635239994 20.768622670338004 557.8053635239994 21.58762267033802C557.3073635239994 21.693622670338016 557.8233635239994 21.391622670337995 557.8233635239994 21.604622670338017M574.1813635239994 19.201622670337997A20 20 0 0 1 576.1573635239995 18.917622670338005A15.66 15.66 0 0 0 563.4123635239994 15.001622670338008A69 69 0 0 1 565.8153635239994 21.65862267033799A59 59 0 0 1 574.1813635239994 19.184622670338ZM570.2833635239995 17.88462267033799Q568.7523635239993 18.329622670337983 567.2573635239994 18.864622670338008A29 29 0 0 0 566.6343635239994 17.084622670338035A12.5 12.5 0 0 1 570.3013635239995 17.93862267033802C569.5533635239995 18.080622670338016 570.1413635239994 17.831622670337993 570.2833635239995 17.884622670338047M536.3383635239993 9.821622670338058L536.0893635239995 9.999622670338056C539.0973635239993 12.918622670338038 541.7853635239994 16.229622670338074 544.6153635239993 19.309622670338058C548.4253635239995 17.350622670338055 551.7353635239995 14.431622670338072 555.4553635239995 12.384622670338047A15.575 15.575 0 0 0 536.3383635239995 9.821622670338058M539.7203635239994 10.586622670338045A14.24 14.24 0 0 1 551.7003635239994 12.046622670338024C549.4213635239994 13.506622670338004 547.2673635239994 15.143622670338004 544.9533635239995 16.56762267033804C543.1733635239993 14.662622670338067 541.5183635239994 12.527622670338019 539.7203635239994 10.587622670338021C540.1833635239993 10.337622670338021 539.8453635239994 10.622622670338046 539.7203635239994 10.497622670338046ZM586.3923635239994 28.564622670338053A59 59 0 0 1 586.1253635239996 37.55462267033806C588.4923635239995 37.69662267033806 590.8773635239995 37.80262267033805 593.2453635239995 38.17662267033808A15.49 15.49 0 0 0 586.1253635239996 26.57162267033806Q586.3033635239995 27.60362267033804 586.3923635239994 28.564622670338053M588.4923635239995 35.48862267033803A54 54 0 0 0 588.6703635239994 31.92862267033803A10.7 10.7 0 0 1 590.5403635239995 35.48862267033803L588.4923635239995 35.346622670338036C588.5463635239994 35.02662267033804 588.9723635239995 35.52462267033803 588.5103635239996 35.50662267033806ZM587.3173635239993 43.05362267033803H585.9113635239994A17.8 17.8 0 0 0 589.5613635239995 53.324622670338044C590.5753635239994 50.102622670338064 591.9103635239994 46.969622670338026 592.6933635239996 43.659622670338024A52 52 0 0 0 587.3173635239993 43.05362267033803M588.3503635239995 45.332622670338026L589.8633635239994 45.421622670338024L589.0083635239994 47.91362267033804A12.5 12.5 0 0 1 588.2963635239994 45.31462267033805C588.6523635239994 45.42162267033808 588.3683635239995 45.42162267033808 588.3503635239995 45.332622670338026M577.4033635239994 24.239622670338008A37.4 37.4 0 0 0 567.6663635239995 26.749622670338A17.09 17.09 0 0 0 580.8033635239995 37.07362267033801C581.1233635239994 32.83662267033799 581.6213635239994 28.333622670338002 580.0193635239993 24.274622670338033A12.5 12.5 0 0 0 577.4213635239994 24.274622670338033ZM575.6233635239994 26.659622670338024A16 16 0 0 1 578.3283635239995 26.410622670338C578.8913635239994 29.023622670338 579.0283635239994 31.71062267033801 578.7383635239994 34.367622670337994A14.6 14.6 0 0 1 570.7103635239994 28.012622670337976A39 39 0 0 1 575.6233635239994 26.64262267033797ZM477.2253635239994 54.08962267033803L478.79136352399945 57.20462267033804A17.27 17.27 0 0 0 485.91136352399946 48.92762267033805C482.6003635239994 49.63962267033804 479.23636352399944 50.04962267033807 475.97836352399946 51.01062267033808Q476.6193635239994 52.66562267033805 477.29636352399945 54.07262267033809C477.97236352399943 55.4786226703381 476.7973635239995 53.164622670338076 477.22436352399944 54.08962267033809M479.0043635239995 52.541622670338086A59 59 0 0 1 481.56836352399944 52.025622670338066A14 14 0 0 1 479.66336352399946 53.94762267033809Q479.30736352399947 53.253622670338075 478.9873635239995 52.541622670338086C479.14736352399945 52.541622670338086 479.02236352399945 52.73762267033811 478.93336352399945 52.541622670338086ZM475.76536352399944 64.82362267033807C472.09836352399947 66.60362267033804 468.14636352399947 68.38362267033807 465.5833635239995 71.65862267033805C467.36336352399945 75.59262267033807 470.7273635239995 78.38662267033806 473.89636352399947 81.11062267033805A17.27 17.27 0 0 0 476.26336352399943 64.57462267033804ZM475.2493635239995 70.71562267033806A14.24 14.24 0 0 1 473.46936352399945 77.83562267033807A25 25 0 0 1 468.23536352399947 72.10362267033804A24.9 24.9 0 0 1 474.9103635239995 67.76062267033802C475.14036352399944 68.72862267033804 475.2543635239995 69.720622670338 475.2493635239995 70.715622670338M477.02936352399945 110.67662267033802A57 57 0 0 0 478.8093635239995 104.855622670338C475.14236352399945 102.612622670338 471.04836352399946 101.17062267033799 467.39936352399945 98.910622670338A15.486 15.486 0 0 0 474.9993635239995 116.88862267033801A64 64 0 0 1 476.95736352399945 110.67662267033802ZM476.2993635239995 105.92362267033803C475.5513635239995 108.45162267033805 474.51936352399946 110.90762267033801 473.7533635239995 113.417622670338A13.7 13.7 0 0 1 469.03636352399946 102.36362267033803C471.4393635239995 103.60962267033801 473.94936352399947 104.62362267033802 476.2993635239995 105.92362267033803C475.9433635239995 107.22362267033805 476.22836352399946 105.92362267033803 476.2993635239995 105.92362267033803M470.69236352399946 61.28162267033804L474.00236352399946 59.67962267033806C472.93536352399946 57.54362267033804 471.84936352399944 55.46062267033807 470.9773635239995 53.21762267033807A14.6 14.6 0 0 0 465.03136352399946 61.868622670338084A18 18 0 0 0 464.4803635239995 65.16162267033809A32 32 0 0 1 470.69236352399946 61.263622670338066ZM471.01236352399945 58.66462267033802Q469.42836352399945 59.41262267033801 467.89736352399945 60.24862267033802A12.5 12.5 0 0 1 470.10436352399944 56.81362267033802Q470.53236352399944 57.73862267033803 471.01236352399945 58.59362267033799C470.58536352399943 58.87862267033802 470.8163635239995 58.25562267033797 471.0303635239995 58.68262267033799ZM517.7193635239994 18.703622670338007A51.6 51.6 0 0 0 509.10436352399944 14.929622670338006C506.77236352399945 18.080622670338016 505.79436352399944 22.939622670337997 505.08136352399947 26.873622670338023A17.44 17.44 0 0 0 520.5853635239994 20.661622670338033Q519.1613635239994 19.66462267033802 517.7193635239994 18.703622670338007M517.2393635239994 21.017622670338028A14.95 14.95 0 0 1 507.68036352399946 24.82762267033803A28.5 28.5 0 0 1 510.1193635239994 17.386622670338056A28.5 28.5 0 0 1 517.2393635239994 20.94662267033806S517.0073635239994 20.875622670338032 517.2393635239994 21.035622670338057ZM477.43836352399944 97.98462267033801L479.21836352399947 98.89262267033803A17.8 17.8 0 0 0 474.34136352399946 88.85262267033801A57 57 0 0 0 469.90936352399945 94.19262267033798A60.5 60.5 0 0 0 477.43836352399944 97.98462267033796M475.94336352399944 94.78062267033795A73 73 0 0 1 473.29136352399945 93.46362267033794Q473.82536352399944 92.80462267033795 474.41236352399943 92.18162267033796C475.01236352399945 92.99162267033796 475.52636352399946 93.86262267033794 475.94236352399946 94.78162267033798C475.28436352399945 94.49562267033798 475.81836352399944 94.65662267033798 475.94236352399946 94.78162267033798M493.74336352399945 22.601622670337974A16 16 0 0 0 492.79936352399943 24.666622670337972A66 66 0 0 1 499.77736352399944 25.930622670337982A44.5 44.5 0 0 1 502.5543635239994 15.588622670337998A16.55 16.55 0 0 0 493.74336352399945 22.601622670337974M496.12836352399944 22.939622670337997A12.5 12.5 0 0 1 498.6913635239994 20.216622670337983Q498.3173635239994 21.746622670337956 498.01536352399944 23.313622670337963L496.12836352399944 22.95762267033797ZM486.5163635239994 33.869622670338V30.20262267033803A15.575 15.575 0 0 0 474.75036352399945 45.77762267033802C478.7903635239994 44.60262267033801 483.08036352399944 44.35362267033804 487.08636352399947 43.071622670338A146 146 0 0 0 486.5163635239995 33.869622670338M484.73636352399944 41.38062267033803C482.1553635239995 41.985622670338046 479.52136352399947 42.34162267033804 476.94036352399945 42.91162267033803A14.24 14.24 0 0 1 484.20236352399945 33.26362267033801C484.3093635239995 35.969622670338026 484.68236352399947 38.603622670337984 484.73636352399944 41.38062267033803C484.73636352399944 41.398622670338 484.84336352399947 41.29162267033803 484.84336352399947 41.38062267033803ZM495.5233635239995 30.50462267033805Q493.74336352399945 30.184622670338058 491.9633635239995 29.97062267033806C491.8383635239995 33.53062267033806 492.33736352399944 36.93062267033804 492.49736352399947 40.41962267033807A17.27 17.27 0 0 0 498.63736352399945 31.1636226703381ZM495.7903635239995 32.80162267033808A14.2 14.2 0 0 1 494.29536352399947 35.41762267033806Q494.15236352399944 33.95762267033808 494.1173635239995 32.49862267033808ZC495.63036352399945 32.9256226703381 495.50536352399945 32.729622670338074 495.71936352399945 32.783622670338104Z "></path><path d="M536.6903635239994 30.928622670338086C509.2733635239994 30.928622670338086 486.96236352399944 53.239622670338065 486.7403635239994 80.5456226703381C486.6293635239994 93.8656226703381 491.7353635239994 106.5196226703381 501.1703635239994 115.9546226703381A49.4 49.4 0 0 0 536.3573635239995 130.82862267033812H536.6903635239994C564.1073635239995 130.82862267033812 586.4183635239995 108.51762267033814 586.6403635239994 81.2116226703381C586.8623635239994 53.68362267033808 564.5513635239995 31.150622670338123 536.6903635239994 30.928622670338086M536.6903635239994 124.0576226703381H536.3573635239995A43.3 43.3 0 0 1 505.83236352399945 111.18162267033813A42.74 42.74 0 0 1 493.5113635239995 80.65662267033815C493.62236352399947 57.01362267033812 513.0473635239994 37.69962267033816 537.0233635239995 37.69962267033816C560.8883635239995 37.81062267033815 580.0913635239995 57.34662267033815 579.9803635239994 81.21162267033816C579.6773635239995 104.92162267033814 560.4013635239994 123.99862267033814 536.6903635239994 124.05762267033816 "></path><path d="M559.3343635239994 59.34462267033808A3.22 3.22 0 0 0 556.1153635239995 56.12562267033809H520.8173635239995A3.219 3.219 0 0 0 520.8173635239995 62.56362267033808H531.9173635239995C537.1343635239995 62.56362267033808 541.5743635239994 66.00462267033805 543.0173635239994 70.66662267033809H520.7063635239995A3.219 3.219 0 0 0 520.7063635239995 77.10462267033807H543.3503635239995C542.1293635239995 82.21062267033807 537.4673635239994 85.98462267033807 532.0283635239995 85.98462267033807H520.3733635239994C519.0413635239994 85.98462267033807 517.9313635239994 86.76162267033806 517.3763635239994 87.87162267033807C516.8213635239995 89.09262267033807 517.0433635239995 90.42462267033807 517.9313635239995 91.31262267033804L536.6903635239995 111.51462267033804A3.22 3.22 0 0 0 541.2413635239994 111.62562267033803C542.5733635239994 110.40462267033803 542.5733635239994 108.40662267033804 541.4633635239994 107.07462267033804L527.8103635239995 92.42262267033806H531.9173635239995C541.0193635239995 92.42262267033806 548.4563635239995 85.76262267033803 549.8993635239995 77.10462267033807H556.1153635239995A3.219 3.219 0 0 0 556.1153635239995 70.66662267033809H549.7883635239995C549.1223635239995 67.66962267033807 547.7903635239995 64.8946226703381 545.7923635239995 62.56362267033808H556.1153635239995A3.22 3.22 0 0 0 559.3343635239995 59.34462267033808 "></path><rect width="384.832" height="27.12" x="153.11936352399943" y="-334.0263773296619" fill="none" rx="0" ry="0" transform="translate(505.22 466.54)"></rect><path d="M669.8453635239996 148.5536226703381Q669.8453635239996 150.07362267033807 669.0953635239996 151.1536226703381Q668.3353635239996 152.2236226703381 666.9753635239995 152.7836226703381T663.7753635239995 153.3436226703381Q662.8053635239995 153.3436226703381 661.9353635239995 153.25362267033813T660.3453635239996 152.98362267033815Q659.6153635239996 152.80362267033814 659.0653635239996 152.55362267033814V150.64362267033812Q659.9453635239996 151.00362267033813 661.2153635239996 151.31362267033813Q662.4753635239996 151.62362267033814 663.8553635239996 151.62362267033814Q665.1453635239995 151.62362267033814 666.0353635239996 151.28362267033816Q666.9253635239995 150.93362267033814 667.3953635239995 150.28362267033816Q667.8553635239996 149.63362267033818 667.8553635239996 148.71362267033817Q667.8553635239996 147.84362267033816 667.4653635239996 147.24362267033814Q667.0853635239996 146.65362267033817 666.1853635239996 146.17362267033815Q665.2853635239996 145.68362267033814 663.7453635239997 145.13362267033813Q662.6553635239997 144.74362267033814 661.8153635239996 144.2836226703381Q660.9853635239997 143.82362267033812 660.4253635239996 143.2336226703381T659.5753635239996 141.87362267033808T659.2853635239996 140.1036226703381Q659.2853635239996 138.7336226703381 659.9853635239996 137.75362267033807T661.9153635239995 136.25362267033807Q663.1553635239995 135.7336226703381 664.7653635239997 135.7336226703381Q666.1353635239996 135.7336226703381 667.2953635239996 135.99362267033808Q668.4653635239996 136.25362267033807 669.4353635239995 136.68362267033808L668.8153635239996 138.39362267033806Q667.8853635239996 138.00362267033807 666.8553635239996 137.75362267033807Q665.8153635239996 137.49362267033808 664.7153635239996 137.49362267033808T662.8553635239996 137.81362267033808Q662.1053635239996 138.13362267033807 661.7053635239996 138.7236226703381Q661.3053635239996 139.3036226703381 661.3053635239996 140.1136226703381Q661.3053635239996 141.0236226703381 661.6853635239996 141.6136226703381Q662.0653635239996 142.2136226703381 662.9053635239997 142.6736226703381Q663.7453635239997 143.14362267033812 665.1253635239997 143.64362267033812Q666.6353635239997 144.19362267033813 667.6953635239997 144.81362267033813Q668.7453635239997 145.42362267033815 669.2953635239996 146.31362267033813Q669.8453635239997 147.19362267033813 669.8453635239997 148.55362267033814M673.0453635239996 140.27362267033817H674.9953635239997V153.11362267033815H673.0453635239996ZM674.0453635239996 135.46362267033817Q674.5253635239997 135.46362267033817 674.8653635239997 135.77362267033817Q675.2153635239997 136.08362267033817 675.2153635239997 136.7436226703382Q675.2153635239997 137.38362267033818 674.8653635239997 137.70362267033818Q674.5253635239997 138.02362267033817 674.0453635239996 138.02362267033817Q673.5353635239996 138.02362267033817 673.2053635239997 137.70362267033818T672.8753635239998 136.7436226703382Q672.8753635239998 136.08362267033817 673.2053635239997 135.77362267033817T674.0453635239996 135.46362267033817M693.0453635239996 140.03362267033816Q695.1753635239997 140.03362267033816 696.2453635239997 141.14362267033817Q697.3253635239996 142.2536226703382 697.3253635239996 144.70362267033818V153.1136226703382H695.4053635239997V144.7936226703382Q695.4053635239997 143.2336226703382 694.7353635239997 142.45362267033823Q694.0553635239996 141.67362267033826 692.7353635239997 141.67362267033826Q690.8753635239996 141.67362267033826 690.0253635239997 142.75362267033825Q689.1853635239997 143.83362267033823 689.1853635239997 145.93362267033825V153.11362267033826H687.2453635239997V144.79362267033827Q687.2453635239997 143.75362267033825 686.9553635239997 143.05362267033826Q686.6553635239997 142.36362267033826 686.0553635239996 142.02362267033828Q685.4653635239997 141.67362267033826 684.5653635239996 141.67362267033826Q683.2853635239996 141.67362267033826 682.5153635239997 142.20362267033823T681.3953635239997 143.76362267033824Q681.0453635239996 144.80362267033826 681.0453635239996 146.31362267033825V153.11362267033826H679.1053635239996V140.27362267033828H680.6753635239996L680.9653635239997 142.0836226703383H681.0753635239996Q681.4653635239997 141.41362267033827 682.0453635239996 140.96362267033828Q682.6353635239997 140.5036226703383 683.3553635239997 140.27362267033828Q684.0853635239997 140.03362267033827 684.9053635239998 140.03362267033827Q686.3753635239998 140.03362267033827 687.3653635239997 140.5836226703383Q688.3553635239997 141.1236226703383 688.7953635239996 142.23362267033826H688.9053635239998Q689.5353635239996 141.12362267033825 690.6353635239998 140.5836226703383Q691.7353635239997 140.03362267033827 693.0453635239998 140.03362267033827M707.3553635239998 140.03362267033827Q709.7653635239998 140.03362267033827 711.1953635239997 141.68362267033825Q712.6253635239998 143.34362267033828 712.6253635239998 146.65362267033828Q712.6253635239998 148.84362267033828 711.9653635239997 150.3336226703383T710.1153635239997 152.5836226703383T707.3153635239996 153.34362267033828Q706.2953635239996 153.34362267033828 705.5153635239997 153.0736226703383Q704.7453635239997 152.8036226703383 704.1953635239997 152.35362267033827Q703.6453635239997 151.8936226703383 703.2853635239996 151.35362267033827H703.1353635239997Q703.1753635239997 151.81362267033825 703.2253635239997 152.4536226703383Q703.2853635239996 153.10362267033827 703.2853635239996 153.5836226703383V158.85362267033827H701.3253635239996V140.27362267033828H702.9253635239997L703.1853635239997 142.16362267033827H703.2853635239996Q703.6553635239998 141.5836226703383 704.1953635239997 141.09362267033828Q704.7353635239997 140.61362267033826 705.5153635239997 140.3236226703383T707.3553635239997 140.03362267033827M707.0153635239997 141.67362267033826Q705.6853635239997 141.67362267033826 704.8653635239998 142.19362267033824Q704.0553635239997 142.70362267033823 703.6753635239997 143.73362267033826Q703.3053635239997 144.75362267033825 703.2853635239998 146.30362267033826V146.68362267033825Q703.2853635239998 148.30362267033826 703.6353635239998 149.43362267033825Q703.9953635239998 150.55362267033826 704.8253635239998 151.14362267033823Q705.6453635239998 151.7336226703382 707.0453635239999 151.7336226703382Q708.2353635239998 151.7336226703382 709.0353635239999 151.08362267033823Q709.8353635239998 150.44362267033824 710.2253635239998 149.28362267033822Q710.6153635239998 148.13362267033824 710.6153635239998 146.63362267033824Q710.6153635239998 144.36362267033826 709.7353635239998 143.01362267033824Q708.8453635239998 141.67362267033826 707.0153635239998 141.67362267033826M717.9653635239997 134.87362267033825V153.11362267033826H716.0053635239998V134.87362267033825ZM722.0753635239998 140.27362267033823H724.0253635239998V153.1136226703382H722.0753635239998ZM723.0753635239998 135.46362267033822Q723.5553635239999 135.46362267033822 723.8953635239998 135.77362267033823Q724.2453635239998 136.08362267033823 724.2453635239998 136.74362267033825Q724.2453635239998 137.38362267033824 723.8953635239998 137.70362267033823Q723.5553635239999 138.02362267033823 723.0753635239998 138.02362267033823Q722.5653635239998 138.02362267033823 722.2353635239998 137.70362267033823Q721.8953635239998 137.38362267033824 721.8953635239998 136.74362267033825Q721.8953635239998 136.08362267033823 722.2353635239998 135.77362267033823Q722.5653635239998 135.46362267033822 723.0753635239998 135.46362267033822M733.8553635239998 140.27362267033823V141.7936226703382H730.6553635239998V153.1136226703382H728.7053635239997V141.7936226703382H726.4353635239997V140.8536226703382L728.7053635239997 140.21362267033822V139.3536226703382Q728.7053635239997 137.7336226703382 729.1853635239997 136.72362267033822T730.5853635239998 135.2336226703382Q731.4953635239998 134.7536226703382 732.8053635239999 134.7536226703382Q733.5453635239999 134.7536226703382 734.1653635239998 134.8736226703382Q734.7753635239999 135.0036226703382 735.2453635239998 135.1736226703382L734.7453635239998 136.70362267033818Q734.3453635239998 136.57362267033818 733.8453635239998 136.46362267033817T732.8353635239998 136.35362267033815Q731.7253635239998 136.35362267033815 731.1853635239999 137.07362267033818Q730.6553635239999 137.7936226703382 730.6553635239999 139.33362267033817V140.27362267033817ZM739.3153635239997 153.13362267033824L734.1753635239997 140.27362267033823H736.2553635239997L739.0953635239997 147.72362267033822Q739.3353635239997 148.3736226703382 739.5453635239996 148.9836226703382Q739.7653635239997 149.58362267033823 739.9253635239997 150.13362267033818T740.1853635239997 151.20362267033818H740.2653635239997Q740.4253635239997 150.6136226703382 740.7353635239997 149.66362267033816Q741.0353635239996 148.70362267033818 741.3853635239997 147.71362267033817L744.0753635239996 140.27362267033817H746.1753635239997L740.5853635239997 155.0036226703382Q740.1353635239998 156.1836226703382 739.5453635239996 157.0636226703382T738.1053635239997 158.4136226703382Q737.2653635239997 158.89362267033823 736.0653635239996 158.89362267033823Q735.5153635239997 158.89362267033823 735.0953635239996 158.82362267033824Q734.6753635239996 158.76362267033824 734.3753635239996 158.68362267033825V157.12362267033825Q734.6253635239996 157.18362267033825 734.9953635239997 157.22362267033827Q735.3653635239996 157.27362267033828 735.7653635239997 157.27362267033828Q736.4953635239997 157.27362267033828 737.0253635239997 156.9936226703383Q737.5553635239996 156.72362267033833 737.9453635239996 156.1936226703383T738.6153635239996 154.9436226703383ZM748.3653635239998 150.32362267033824H750.4453635239997L750.6053635239998 150.59362267033822Q750.3853635239998 151.45362267033823 750.0653635239997 152.4236226703382T749.3653635239998 154.3736226703382T748.5953635239998 156.20362267033818H747.1453635239998Q747.3853635239998 155.27362267033817 747.6253635239998 154.23362267033815Q747.8553635239998 153.19362267033813 748.0553635239999 152.18362267033814Q748.2453635239998 151.16362267033816 748.3653635239998 150.32362267033812M770.1253635239998 153.11362267033815H768.4953635239998L762.7453635239998 137.95362267033812H762.6453635239998Q762.6953635239997 138.43362267033814 762.7253635239997 139.12362267033814Q762.7653635239998 139.81362267033813 762.7853635239998 140.62362267033814Q762.8153635239997 141.44362267033813 762.8153635239997 142.28362267033816V153.11362267033815H760.9653635239997V135.98362267033815H763.9153635239998L769.3353635239997 150.23362267033815H769.4253635239997L774.9253635239997 135.98362267033815H777.8553635239997V153.11362267033815H775.8853635239997V142.14362267033812Q775.8853635239997 141.38362267033813 775.9153635239996 140.61362267033815Q775.9353635239996 139.84362267033816 775.9753635239997 139.16362267033816Q776.0053635239997 138.47362267033816 776.0453635239996 137.97362267033816H775.9453635239996ZM787.0553635239999 140.05362267033814Q789.3553635239998 140.05362267033814 790.4653635239998 141.09362267033816Q791.5853635239998 142.12362267033814 791.5853635239998 144.38362267033818V153.1136226703382H790.1653635239998L789.7853635239999 151.21362267033822H789.6953635239998Q789.1553635239998 151.9136226703382 788.5653635239998 152.39362267033823Q787.9853635239999 152.86362267033826 787.2153635239998 153.1036226703382T785.3353635239998 153.34362267033822Q784.1653635239998 153.34362267033822 783.2553635239999 152.9336226703382T781.8253635239998 151.6936226703382T781.3053635239999 149.58362267033817Q781.3053635239999 147.66362267033816 782.8253635239998 146.63362267033818Q784.3553635239998 145.6036226703382 787.4653635239998 145.5036226703382L789.6853635239999 145.4136226703382V144.6236226703382Q789.6853635239999 142.96362267033817 788.9653635239998 142.2936226703382Q788.2553635239999 141.6236226703382 786.9553635239998 141.6236226703382Q785.9453635239998 141.6236226703382 785.0353635239999 141.9236226703382Q784.1153635239998 142.21362267033822 783.2953635239999 142.6136226703382L782.6953635239997 141.13362267033818Q783.5653635239998 140.6936226703382 784.6953635239997 140.3736226703382Q785.8153635239998 140.0536226703382 787.0553635239999 140.0536226703382M789.6553635239998 147.96362267033822V146.78362267033822L787.7053635239998 146.8636226703382Q785.2953635239999 146.96362267033822 784.3153635239998 147.65362267033822T783.3353635239998 149.6136226703382Q783.3353635239998 150.71362267033822 783.9953635239999 151.2336226703382Q784.6653635239999 151.76362267033818 785.7653635239999 151.76362267033818Q787.4753635239998 151.76362267033818 788.5653635239998 150.8136226703382T789.6553635239998 147.96362267033817M801.6853635239997 140.03362267033816Q803.9653635239997 140.03362267033816 805.1353635239998 141.15362267033817T806.3053635239999 144.74362267033814V153.11362267033815H804.3853635239998V144.87362267033814Q804.3853635239998 143.2736226703381 803.6553635239998 142.47362267033816T801.4153635239998 141.67362267033815Q799.2753635239998 141.67362267033815 798.4153635239998 142.88362267033813Q797.5453635239998 144.0936226703381 797.5453635239998 146.38362267033813V153.11362267033815H795.5953635239998V140.27362267033817H797.1653635239998L797.4653635239997 142.1236226703382H797.5653635239998Q797.9753635239998 141.4436226703382 798.6153635239998 140.97362267033822Q799.2453635239998 140.51362267033824 800.0253635239999 140.27362267033823Q800.8153635239998 140.03362267033822 801.6853635239999 140.03362267033822M815.1153635239998 140.0536226703382Q817.4053635239999 140.0536226703382 818.5253635239999 141.09362267033822Q819.6353635239999 142.1236226703382 819.6353635239999 144.38362267033824V153.11362267033826H818.2153635239999L817.8453635239998 151.21362267033828H817.7453635239999Q817.2153635239999 151.91362267033827 816.6253635239998 152.3936226703383Q816.0353635239999 152.86362267033832 815.2753635239999 153.10362267033827Q814.5053635239999 153.34362267033828 813.3853635239998 153.34362267033828Q812.2153635239998 153.34362267033828 811.3053635239999 152.93362267033825Q810.4053635239999 152.52362267033823 809.8753635239998 151.69362267033824Q809.3553635239998 150.86362267033826 809.3553635239998 149.58362267033823Q809.3553635239998 147.6636226703382 810.8853635239998 146.63362267033824Q812.4053635239998 145.60362267033827 815.5253635239999 145.50362267033825L817.7353635239998 145.41362267033827V144.62362267033825Q817.7353635239998 142.96362267033822 817.0253635239999 142.29362267033827Q816.3053635239999 141.62362267033825 815.0053635239999 141.62362267033825Q813.9953635239999 141.62362267033825 813.0853635239998 141.92362267033826Q812.1753635239997 142.21362267033828 811.3553635239998 142.61362267033826L810.7553635239998 141.13362267033824Q811.6253635239998 140.69362267033824 812.7453635239998 140.37362267033825Q813.8753635239998 140.05362267033826 815.1153635239998 140.05362267033826M817.7153635239998 147.96362267033828V146.78362267033827L815.7553635239999 146.86362267033826Q813.3553635239998 146.96362267033828 812.3753635239998 147.65362267033828Q811.3853635239998 148.34362267033828 811.3853635239998 149.61362267033826Q811.3853635239998 150.71362267033828 812.0553635239999 151.23362267033826Q812.7253635239999 151.76362267033824 813.8253635239998 151.76362267033824Q815.5353635239999 151.76362267033824 816.6253635239998 150.81362267033825T817.7153635239998 147.96362267033822M827.2353635239998 158.87362267033825Q824.7053635239998 158.87362267033825 823.3353635239998 157.93362267033825T821.9653635239998 155.29362267033827Q821.9653635239998 154.0836226703383 822.7353635239998 153.23362267033826Q823.5053635239998 152.37362267033825 824.8653635239998 152.09362267033828Q824.3553635239998 151.86362267033826 823.9953635239998 151.3936226703383Q823.6453635239998 150.92362267033826 823.6453635239998 150.3136226703383Q823.6453635239998 149.61362267033832 824.0353635239998 149.0736226703383Q824.4253635239997 148.54362267033832 825.2353635239997 148.0536226703383Q824.2253635239997 147.6436226703383 823.6053635239998 146.66362267033833Q822.9753635239997 145.6836226703383 822.9753635239997 144.38362267033835Q822.9753635239997 143.00362267033836 823.5453635239998 142.02362267033834Q824.1253635239998 141.04362267033832 825.2153635239997 140.52362267033834Q826.3053635239997 140.01362267033835 827.8453635239998 140.01362267033835Q828.1853635239997 140.01362267033835 828.5353635239998 140.04362267033832T829.1953635239997 140.1236226703383Q829.5153635239998 140.17362267033832 829.7453635239998 140.2436226703383H834.1553635239998V141.5036226703383L831.7853635239999 141.79362267033832Q832.1353635239998 142.2536226703383 832.3753635239998 142.89362267033835Q832.6053635239998 143.54362267033832 832.6053635239998 144.32362267033835Q832.6053635239998 146.24362267033837 831.3053635239999 147.37362267033836T827.7353635239998 148.50362267033836Q827.1953635239997 148.50362267033836 826.6353635239998 148.41362267033838Q826.0553635239999 148.73362267033838 825.7553635239998 149.11362267033837Q825.4553635239997 149.50362267033836 825.4553635239997 150.00362267033836Q825.4553635239997 150.38362267033835 825.6853635239997 150.60362267033838T826.3453635239998 150.92362267033837Q826.7853635239999 151.0236226703384 827.3953635239998 151.0236226703384H829.6553635239998Q831.7553635239999 151.0236226703384 832.8753635239998 151.9036226703384Q833.9853635239999 152.7836226703384 833.9853635239999 154.4736226703384Q833.9853635239999 156.60362267033838 832.2553635239999 157.74362267033837Q830.5253635239999 158.87362267033836 827.2353635239999 158.87362267033836M827.2953635239999 157.35362267033838Q828.8953635239999 157.35362267033838 829.9453635239998 157.0336226703384Q830.9853635239999 156.7136226703384 831.5153635239999 156.10362267033838Q832.0353635239999 155.50362267033836 832.0353635239999 154.67362267033837Q832.0353635239999 153.8936226703384 831.6853635239997 153.50362267033836Q831.3253635239998 153.11362267033837 830.6453635239998 152.9736226703384Q829.9753635239997 152.8436226703384 828.9853635239997 152.8436226703384H826.7553635239997Q825.8953635239998 152.8436226703384 825.2453635239997 153.11362267033837Q824.6053635239998 153.38362267033835 824.2553635239997 153.91362267033838Q823.9153635239998 154.43362267033837 823.9153635239998 155.2236226703384Q823.9153635239998 156.2636226703384 824.7953635239998 156.81362267033836Q825.6653635239998 157.35362267033838 827.2953635239998 157.35362267033838M827.8053635239997 147.0936226703384Q829.1953635239997 147.0936226703384 829.8953635239998 146.3836226703384Q830.6053635239997 145.68362267033842 830.6053635239997 144.3336226703384Q830.6053635239997 142.8936226703384 829.8853635239997 142.17362267033837Q829.1753635239997 141.45362267033835 827.7753635239997 141.45362267033835Q826.4453635239997 141.45362267033835 825.7253635239997 142.19362267033836Q825.0053635239997 142.94362267033836 825.0053635239997 144.37362267033836Q825.0053635239997 145.68362267033837 825.7253635239997 146.38362267033835Q826.4553635239997 147.09362267033833 827.8053635239996 147.09362267033833M841.6253635239996 140.03362267033833Q843.2653635239997 140.03362267033833 844.4353635239996 140.76362267033835Q845.6053635239996 141.48362267033838 846.2253635239997 142.79362267033832T846.8453635239996 145.84362267033833V147.0536226703383H837.9753635239997Q838.0153635239997 149.3136226703383 839.1053635239996 150.5036226703383Q840.1953635239996 151.6836226703383 842.1753635239996 151.6836226703383Q843.3853635239996 151.6836226703383 844.3253635239996 151.46362267033828Q845.2653635239997 151.23362267033826 846.2753635239997 150.80362267033826V152.51362267033824Q845.2953635239996 152.95362267033823 844.3453635239996 153.14362267033823Q843.3853635239996 153.34362267033822 842.0853635239996 153.34362267033822Q840.2353635239996 153.34362267033822 838.8653635239996 152.59362267033822Q837.4853635239996 151.83362267033823 836.7253635239996 150.3736226703382Q835.9653635239996 148.90362267033817 835.9653635239996 146.78362267033822Q835.9653635239996 144.71362267033822 836.6553635239995 143.19362267033824Q837.3553635239996 141.67362267033826 838.6253635239996 140.85362267033827T841.6253635239996 140.03362267033827M841.5953635239996 141.62362267033825Q840.0353635239996 141.62362267033825 839.1153635239996 142.64362267033823Q838.1853635239996 143.6636226703382 838.0153635239997 145.49362267033825H844.8053635239996Q844.7953635239996 144.34362267033828 844.4553635239996 143.47362267033827Q844.1053635239996 142.60362267033827 843.4053635239995 142.11362267033826Q842.6953635239996 141.62362267033825 841.5953635239996 141.62362267033825M850.2953635239996 150.32362267033824H852.3753635239996L852.5353635239996 150.59362267033822Q852.3153635239996 151.45362267033823 851.9953635239996 152.4236226703382T851.2953635239996 154.3736226703382T850.5253635239997 156.20362267033818H849.0753635239996Q849.3153635239996 155.27362267033817 849.5553635239996 154.23362267033815Q849.7853635239996 153.19362267033813 849.9853635239997 152.18362267033814Q850.1753635239996 151.16362267033816 850.2953635239996 150.32362267033812M862.8853635239997 135.98362267033815H867.3653635239997Q870.6853635239997 135.98362267033815 872.2153635239997 137.27362267033817Q873.7453635239997 138.57362267033818 873.7453635239997 140.98362267033815Q873.7453635239997 142.07362267033812 873.3853635239997 143.05362267033814T872.2253635239997 144.77362267033817Q871.4353635239997 145.52362267033817 870.1353635239997 145.9436226703382Q868.8453635239997 146.3736226703382 866.9653635239997 146.3736226703382H864.8853635239997V153.1136226703382H862.8853635239997ZM867.1753635239996 137.68362267033814H864.8853635239997V144.66362267033816H866.7453635239997Q868.3853635239997 144.66362267033816 869.4853635239997 144.31362267033813Q870.5753635239997 143.9636226703381 871.1253635239997 143.17362267033815Q871.6753635239996 142.37362267033814 871.6753635239996 141.06362267033813Q871.6753635239996 139.35362267033815 870.5853635239996 138.51362267033812Q869.4953635239996 137.68362267033814 867.1753635239996 137.68362267033814M882.8853635239997 140.03362267033816Q883.2653635239997 140.03362267033816 883.6853635239996 140.07362267033818Q884.1153635239996 140.1136226703382 884.4353635239996 140.1836226703382L884.1953635239996 141.9936226703382Q883.8753635239996 141.9136226703382 883.4853635239996 141.8636226703382Q883.1053635239996 141.8136226703382 882.7653635239996 141.8136226703382Q881.9853635239996 141.8136226703382 881.3053635239995 142.1236226703382Q880.6153635239995 142.4336226703382 880.1053635239995 143.01362267033818Q879.5853635239995 143.59362267033816 879.2953635239995 144.41362267033816Q879.0053635239996 145.22362267033816 879.0053635239996 146.22362267033816V153.11362267033815H877.0453635239995V140.27362267033817H878.6653635239995L878.8753635239996 142.63362267033818H878.9553635239996Q879.3553635239996 141.9236226703382 879.9153635239996 141.33362267033817Q880.4753635239996 140.73362267033815 881.2253635239996 140.38362267033818Q881.9653635239996 140.03362267033816 882.8853635239996 140.03362267033816M897.9153635239995 146.66362267033816Q897.9153635239995 148.25362267033813 897.5053635239996 149.49362267033814T896.3253635239996 151.59362267033816Q895.5453635239996 152.4436226703382 894.4553635239996 152.89362267033817Q893.3553635239996 153.34362267033816 891.9753635239996 153.34362267033816Q890.6853635239996 153.34362267033816 889.6153635239996 152.89362267033817T887.7653635239996 151.59362267033816Q886.9853635239996 150.73362267033815 886.5553635239995 149.49362267033814T886.1253635239996 146.66362267033816Q886.1253635239996 144.55362267033814 886.8453635239996 143.07362267033818Q887.5553635239996 141.59362267033816 888.8853635239996 140.8136226703382T892.0553635239995 140.03362267033822Q893.8153635239995 140.03362267033822 895.1353635239996 140.82362267033824Q896.4553635239996 141.6036226703382 897.1853635239995 143.08362267033823Q897.9153635239995 144.57362267033824 897.9153635239995 146.6636226703382M888.1453635239995 146.6636226703382Q888.1453635239995 148.21362267033822 888.5553635239995 149.3536226703382Q888.9653635239995 150.4836226703382 889.8153635239995 151.1136226703382Q890.6753635239995 151.7336226703382 892.0253635239995 151.7336226703382Q893.3553635239996 151.7336226703382 894.2153635239996 151.1136226703382Q895.0853635239996 150.4836226703382 895.4953635239996 149.3536226703382Q895.9053635239995 148.21362267033822 895.9053635239995 146.6636226703382Q895.9053635239995 145.13362267033824 895.4953635239996 144.01362267033824T894.2253635239996 142.28362267033822Q893.3753635239996 141.6736226703382 892.0153635239996 141.6736226703382Q890.0053635239996 141.6736226703382 889.0753635239995 143.0036226703382Q888.1453635239995 144.32362267033818 888.1453635239995 146.6636226703382M909.5953635239996 149.59362267033822Q909.5953635239996 150.82362267033824 908.9853635239996 151.6636226703382Q908.3653635239996 152.5036226703382 907.2253635239996 152.9236226703382T904.5053635239996 153.34362267033822Q903.1553635239995 153.34362267033822 902.1653635239995 153.13362267033824Q901.1853635239995 152.92362267033826 900.4453635239995 152.54362267033827V150.74362267033825Q901.2353635239995 151.13362267033824 902.3253635239995 151.45362267033823Q903.4153635239995 151.76362267033824 904.5453635239995 151.76362267033824Q906.2153635239995 151.76362267033824 906.9653635239995 151.22362267033822T907.7153635239995 149.76362267033824Q907.7153635239995 149.23362267033826 907.4153635239995 148.83362267033823Q907.1153635239996 148.4236226703382 906.4153635239995 148.0436226703382Q905.7053635239995 147.6636226703382 904.4653635239995 147.20362267033823Q903.2353635239995 146.7336226703382 902.3353635239995 146.27362267033823Q901.4453635239995 145.81362267033825 900.9553635239995 145.14362267033823Q900.4753635239995 144.47362267033822 900.4753635239995 143.4136226703382Q900.4753635239995 141.78362267033822 901.7853635239994 140.90362267033822Q903.1053635239995 140.03362267033822 905.2553635239994 140.03362267033822Q906.4153635239994 140.03362267033822 907.4253635239994 140.26362267033824T909.3153635239994 140.87362267033825L908.6653635239994 142.43362267033825Q907.8653635239995 142.09362267033828 906.9653635239994 141.86362267033826Q906.0553635239994 141.62362267033825 905.1253635239993 141.62362267033825Q903.7753635239993 141.62362267033825 903.0553635239993 142.07362267033824T902.3353635239993 143.29362267033827Q902.3353635239993 143.8936226703383 902.6653635239993 144.27362267033828Q903.0053635239993 144.66362267033827 903.7353635239994 145.0036226703383Q904.4753635239994 145.34362267033828 905.6853635239994 145.8036226703383Q906.8953635239994 146.2436226703383 907.7753635239994 146.72362267033833Q908.6453635239994 147.19362267033836 909.1253635239995 147.8736226703383Q909.5953635239995 148.54362267033832 909.5953635239995 149.59362267033833M918.7553635239994 140.03362267033833Q921.1553635239994 140.03362267033833 922.5853635239995 141.6836226703383Q924.0153635239994 143.34362267033833 924.0153635239994 146.65362267033834Q924.0153635239994 148.84362267033833 923.3553635239995 150.33362267033834Q922.7053635239995 151.82362267033835 921.5153635239994 152.58362267033834T918.7053635239995 153.34362267033833Q917.6853635239995 153.34362267033833 916.9153635239995 153.07362267033835Q916.1353635239996 152.80362267033837 915.5853635239995 152.35362267033832Q915.0353635239995 151.89362267033835 914.6753635239995 151.35362267033832H914.5353635239995Q914.5653635239995 151.8136226703383 914.6253635239996 152.45362267033835Q914.6753635239995 153.10362267033832 914.6753635239995 153.58362267033834V158.85362267033832H912.7153635239995V140.27362267033834H914.3253635239995L914.5853635239995 142.16362267033833H914.6753635239995Q915.0453635239995 141.58362267033834 915.5853635239995 141.09362267033833Q916.1253635239995 140.61362267033832 916.9053635239995 140.32362267033835T918.7553635239996 140.03362267033833M918.4153635239995 141.67362267033832Q917.0753635239995 141.67362267033832 916.2653635239996 142.1936226703383Q915.4453635239995 142.7036226703383 915.0753635239995 143.73362267033832Q914.6953635239995 144.7536226703383 914.6753635239995 146.3036226703383V146.6836226703383Q914.6753635239995 148.3036226703383 915.0353635239995 149.4336226703383Q915.3853635239996 150.5536226703383 916.2153635239995 151.1436226703383T918.4353635239995 151.73362267033826Q919.6353635239996 151.73362267033826 920.4253635239995 151.0836226703383Q921.2253635239995 150.4436226703383 921.6153635239996 149.28362267033827Q922.0153635239996 148.1336226703383 922.0153635239996 146.6336226703383Q922.0153635239996 144.36362267033832 921.1253635239996 143.0136226703383Q920.2453635239996 141.67362267033832 918.4153635239995 141.67362267033832M932.3453635239995 140.03362267033833Q933.9853635239995 140.03362267033833 935.1553635239994 140.76362267033835Q936.3353635239994 141.48362267033838 936.9553635239994 142.79362267033832T937.5753635239994 145.84362267033833V147.0536226703383H928.7053635239994Q928.7353635239994 149.3136226703383 929.8253635239994 150.5036226703383Q930.9153635239994 151.6836226703383 932.8953635239994 151.6836226703383Q934.1153635239995 151.6836226703383 935.0553635239994 151.46362267033828Q935.9953635239995 151.23362267033826 936.9953635239995 150.80362267033826V152.51362267033824Q936.0253635239994 152.95362267033823 935.0753635239995 153.14362267033823Q934.1153635239995 153.34362267033822 932.8153635239995 153.34362267033822Q930.9653635239995 153.34362267033822 929.5853635239995 152.59362267033822Q928.2153635239995 151.83362267033823 927.4453635239995 150.3736226703382Q926.6853635239995 148.90362267033817 926.6853635239995 146.78362267033822Q926.6853635239995 144.71362267033822 927.3853635239996 143.19362267033824T929.3553635239996 140.85362267033827T932.3453635239996 140.03362267033827M932.3253635239996 141.62362267033825Q930.7653635239997 141.62362267033825 929.8353635239996 142.64362267033823Q928.9153635239996 143.6636226703382 928.7353635239996 145.49362267033825H935.5353635239995Q935.5253635239995 144.34362267033828 935.1753635239995 143.47362267033827Q934.8353635239995 142.60362267033827 934.1253635239996 142.11362267033826Q933.4253635239995 141.62362267033825 932.3253635239996 141.62362267033825M946.7153635239996 140.03362267033827Q947.1053635239996 140.03362267033827 947.5253635239995 140.0736226703383T948.2753635239995 140.1836226703383L948.0253635239995 141.9936226703383Q947.7153635239996 141.91362267033833 947.3253635239995 141.86362267033832T946.5953635239995 141.8136226703383Q945.8253635239995 141.8136226703383 945.1353635239994 142.1236226703383Q944.4553635239995 142.4336226703383 943.9353635239994 143.0136226703383Q943.4253635239994 143.59362267033828 943.1253635239995 144.41362267033827Q942.8353635239995 145.22362267033827 942.8353635239995 146.22362267033827V153.11362267033826H940.8753635239995V140.27362267033828H942.4953635239995L942.7053635239995 142.6336226703383H942.7853635239995Q943.1853635239995 141.92362267033832 943.7453635239996 141.3336226703383Q944.3153635239996 140.73362267033826 945.0553635239995 140.3836226703383T946.7153635239995 140.03362267033827 "></path></g><rect width="620" height="162" x="440" y="0" id="space-saver" fill="transparent" stroke="transparent"></rect></g></svg>