<svg xmlns="http://www.w3.org/2000/svg" xml:space="preserve" width="1500" height="165" viewBox="0 0 1500 165" data-version="1" data-id="lg_387833ZPpXx4MXQqlr"><g id="outer-wrapper" data-padding="20" transform="matrix(1,0,0,1,0,0)"><g id="inner-wrapper" transform="matrix(0.9645390070921985,0,0,0.9645390070921985,10,2.925531914893625)"><path fill="#9edc29" d="M575.3643058153117 0.04099999999999682A82.459 82.459 0 1 0 575.3643058153117 164.959A82.459 82.459 0 1 0 575.3643058153117 0.04099999999999682 "></path><rect width="377.457" height="159.33" x="184.38630581531163" y="-397.165" fill="none" rx="0" ry="0" transform="translate(491.77 399.56)"></rect><path fill="#9edc29" d="M727.6243058153117 128.75Q713.9443058153116 128.75 702.9443058153116 123.11000000000001Q691.9543058153116 117.47000000000003 685.5343058153117 106.48000000000002Q679.1143058153116 95.48000000000002 679.1143058153116 79.69Q679.1143058153116 67.83999999999997 682.9943058153116 58.68000000000001Q686.8743058153116 49.50999999999999 693.7143058153116 43.24000000000001Q700.5543058153116 36.960000000000036 709.4343058153116 33.79000000000002T728.3243058153116 30.620000000000005Q736.0843058153116 30.620000000000005 742.8543058153116 32.379999999999995Q749.6143058153116 34.139999999999986 755.8243058153116 37.52999999999997L756.3843058153117 56H752.5843058153116L746.6543058153117 44.860000000000014Q745.2443058153116 42.04000000000002 743.6243058153117 39.78000000000003Q742.0043058153117 37.53000000000003 739.4643058153116 36.54000000000002Q735.9443058153116 34.85000000000002 731.1443058153117 34.85000000000002Q722.8243058153116 34.85000000000002 715.9943058153117 39.08000000000004Q709.1543058153117 43.31000000000006 705.0643058153116 53.110000000000014T700.9743058153117 79.83000000000004Q700.9743058153117 96.61000000000001 704.8543058153117 106.48000000000002Q708.7243058153117 116.35000000000002 715.3543058153117 120.50999999999999T730.3043058153116 124.67000000000002Q734.1043058153117 124.67000000000002 736.5043058153117 124.10000000000002Q738.9043058153117 123.54000000000002 741.3043058153116 122.55000000000001Q744.1243058153117 121.42000000000002 745.6743058153116 119.24000000000001Q747.2243058153117 117.05000000000001 748.3543058153117 114.23000000000002L753.7043058153117 101.40000000000003H757.5143058153117L756.9543058153117 121.70000000000005Q750.8843058153117 125.09000000000003 743.5543058153117 126.92000000000007T727.6243058153117 128.75000000000006M797.2643058153117 126.36000000000007H764.4143058153116V123.68000000000006L766.5243058153117 123.11000000000007Q771.1843058153117 121.56000000000006 771.1843058153117 116.06000000000006Q771.1843058153117 111.27000000000004 771.2543058153117 106.41000000000008Q771.3243058153117 101.54000000000008 771.3243058153117 96.75000000000006V43.17000000000007Q771.3243058153117 40.21000000000009 770.3343058153117 38.730000000000075T766.5243058153117 36.54000000000008L764.4143058153116 35.980000000000075V33.30000000000007L789.0843058153117 27.380000000000052L790.9243058153116 28.640000000000043L790.3543058153117 48.53000000000003V116.06000000000006Q790.4943058153117 118.88000000000005 791.5543058153116 120.65000000000003Q792.6143058153117 122.41000000000003 795.2943058153116 123.11000000000001L797.2643058153117 123.68ZM824.0643058153117 128.3300000000001Q816.0343058153118 128.3300000000001 810.4643058153117 123.75000000000011T804.8943058153117 110.5700000000001Q804.8943058153117 103.80000000000013 811.4443058153117 98.09000000000009Q818.0043058153117 92.38000000000011 832.1043058153117 89.7000000000001Q834.5043058153117 89.13000000000011 837.6743058153118 88.6400000000001T843.9443058153117 87.5800000000001V77.5700000000001Q843.9443058153117 67.98000000000013 841.5543058153117 64.3200000000001Q839.1543058153118 60.65000000000009 833.9343058153117 60.65000000000009H833.5143058153117Q830.2743058153117 60.65000000000009 828.3643058153117 62.7000000000001Q826.4643058153117 64.74000000000012 825.9043058153118 69.3900000000001L825.4743058153117 71.23000000000008Q825.0543058153117 76.87000000000006 822.5143058153118 79.47000000000008Q819.9743058153117 82.0800000000001 816.1743058153118 82.0800000000001Q812.6443058153118 82.0800000000001 810.3143058153117 79.90000000000009Q807.9943058153118 77.7100000000001 807.9943058153118 74.19000000000011Q807.9943058153118 68.41000000000014 811.9443058153117 64.4600000000001Q815.8843058153118 60.510000000000105 822.4443058153117 58.54000000000008Q829.0043058153118 56.56000000000006 836.6143058153118 56.56000000000006Q849.1643058153118 56.56000000000006 855.7943058153118 62.63000000000005Q862.4143058153118 68.69000000000005 862.4143058153118 82.37000000000006V113.81000000000006Q862.4143058153118 119.87000000000006 868.2043058153118 119.87000000000006H871.4443058153118L872.8543058153118 121.42000000000007Q870.3143058153119 124.67000000000007 867.2143058153118 126.43000000000006T858.7543058153119 128.19000000000005Q852.6943058153118 128.19000000000005 849.0943058153118 125.30000000000007T844.3743058153118 117.62000000000006Q839.8543058153118 122.41000000000008 835.4843058153118 125.37000000000006T824.0643058153119 128.33000000000004M832.2443058153118 119.31000000000006Q835.0643058153119 119.31000000000006 837.6043058153118 118.04000000000008T843.9443058153118 113.81000000000006V91.25000000000006Q840.2843058153118 91.81000000000006 836.4743058153118 92.66000000000008Q830.4143058153118 94.0700000000001 826.6743058153118 97.88000000000011Q822.9343058153117 101.68000000000012 822.9343058153117 108.17000000000013Q822.9343058153117 113.81000000000012 825.5443058153118 116.56000000000012T832.2443058153118 119.31000000000012M911.3443058153118 126.36000000000013H876.0943058153118V123.68000000000012L878.2143058153118 122.97000000000014Q881.0343058153118 122.27000000000015 882.0843058153118 120.58000000000015Q883.1443058153118 118.88000000000017 883.1443058153118 116.06000000000017V74.75000000000017Q883.0043058153118 71.65000000000015 882.0143058153118 70.03000000000014Q881.0343058153118 68.41000000000014 878.2143058153118 67.84000000000015L876.0943058153118 67.28000000000014V64.74000000000012L899.0743058153118 56.560000000000116L900.7743058153119 58.11000000000013L902.0443058153119 70.52000000000015V71.51000000000016Q904.1543058153119 67.56000000000017 907.3943058153119 64.18000000000018Q910.6443058153119 60.79000000000019 914.4443058153118 58.68000000000018Q918.2543058153118 56.56000000000017 922.0643058153119 56.56000000000017Q927.4243058153119 56.56000000000017 930.0943058153118 59.380000000000166Q932.7743058153118 62.20000000000016 932.7743058153118 66.57000000000016Q932.7743058153118 71.37000000000018 930.0943058153118 73.83000000000015Q927.4243058153119 76.30000000000018 923.6143058153118 76.30000000000018Q917.9743058153118 76.30000000000018 913.8843058153118 71.23000000000019L913.6043058153118 70.94000000000017Q912.1943058153118 69.25000000000017 910.4243058153119 69.04000000000019Q908.6643058153119 68.83000000000021 906.9743058153118 70.80000000000018Q905.5643058153119 72.2100000000002 904.3643058153118 74.12000000000018Q903.1643058153118 76.02000000000015 902.1843058153119 78.56000000000017V115.5Q902.1843058153119 118.18 903.3043058153119 119.94Q904.4343058153119 121.69999999999999 907.1143058153118 122.41000000000003L911.3443058153118 123.68ZM953.7743058153118 48.810000000000116Q949.1243058153118 48.810000000000116 945.8843058153118 45.850000000000136Q942.6343058153118 42.89000000000016 942.6343058153118 38.37000000000012Q942.6343058153118 33.72000000000014 945.8843058153118 30.830000000000098Q949.1243058153118 27.94000000000011 953.7743058153118 27.94000000000011Q958.4343058153117 27.94000000000011 961.6743058153118 30.830000000000098T964.9143058153118 38.37000000000012Q964.9143058153118 42.8900000000001 961.6743058153118 45.850000000000136T953.7743058153118 48.810000000000116M969.8543058153118 126.36000000000013H937.5643058153119V123.68000000000012L939.6743058153119 123.11000000000013Q942.4943058153119 122.27000000000015 943.4843058153118 120.58000000000015Q944.4743058153118 118.88000000000017 944.6143058153118 116.06000000000017V82.01000000000016Q944.6143058153118 78.28000000000014 944.4743058153118 74.33000000000015Q944.4743058153118 71.51000000000016 943.4143058153119 69.89000000000016T939.5343058153119 67.70000000000016L937.5643058153119 67.28000000000014V64.74000000000012L962.2343058153118 56.560000000000116L963.9243058153119 58.11000000000013L963.5043058153119 78.1400000000001V116.2100000000001Q963.5043058153119 119.03000000000009 964.5643058153119 120.72000000000008T968.3043058153119 123.2600000000001L969.8543058153118 123.68000000000012ZM1012.5843058153117 126.35000000000014H976.2043058153118V123.67000000000013L978.3243058153118 123.10000000000014Q983.9643058153118 121.55000000000013 984.1043058153118 116.20000000000016Q984.1043058153118 111.26000000000016 984.1743058153119 106.40000000000015Q984.2443058153119 101.53000000000014 984.2443058153119 96.74000000000012V63.040000000000134H976.204305815312V59.94000000000011L979.304305815312 59.37000000000012Q982.124305815312 58.9500000000001 983.394305815312 57.3300000000001T985.234305815312 52.750000000000114Q986.784305815312 47.11000000000013 989.384305815312 42.9500000000001Q991.994305815312 38.79000000000008 995.664305815312 35.260000000000105Q1000.884305815312 30.19000000000011 1006.804305815312 28.210000000000093Q1012.7243058153118 26.240000000000066 1018.3643058153119 26.240000000000066Q1023.8643058153119 26.240000000000066 1028.444305815312 28.420000000000073Q1033.024305815312 30.61000000000007 1033.024305815312 35.8300000000001Q1033.024305815312 39.49000000000012 1030.844305815312 41.68000000000012Q1028.654305815312 43.86000000000013 1024.5643058153119 43.86000000000013Q1018.084305815312 43.86000000000013 1013.1443058153121 36.250000000000114L1011.4543058153121 34.270000000000095Q1009.764305815312 32.16000000000008 1008.074305815312 32.5800000000001Q1006.3843058153119 33.010000000000105 1005.6743058153121 35.40000000000009Q1004.5443058153121 39.91000000000008 1003.9143058153121 45.980000000000075Q1003.2743058153121 52.04000000000008 1003.1343058153121 58.67000000000007H1019.3543058153122V63.04000000000008H1003.1343058153121V96.74000000000007Q1003.1343058153121 101.53000000000009 1003.2043058153122 106.25000000000006Q1003.2743058153122 110.98000000000008 1003.2743058153122 115.77000000000004Q1003.2743058153122 121.41000000000003 1008.9143058153121 122.68000000000006L1012.5843058153122 123.67000000000007Z "></path><path fill="#9edc29" d="M1040.4943058153117 48.81Q1035.8343058153118 48.81 1032.5943058153118 45.85000000000002T1029.3543058153118 38.370000000000005Q1029.3543058153118 33.72000000000003 1032.5943058153118 30.829999999999984T1040.4943058153117 27.939999999999998Q1045.1443058153118 27.939999999999998 1048.3843058153118 30.829999999999984Q1051.6343058153118 33.71999999999997 1051.6343058153118 38.370000000000005Q1051.6343058153118 42.889999999999986 1048.3843058153118 45.85000000000002Q1045.1443058153118 48.81 1040.4943058153117 48.81M1056.5643058153119 126.36000000000001H1024.274305815312V123.68L1026.3943058153118 123.11000000000001Q1029.214305815312 122.27000000000004 1030.194305815312 120.58000000000004Q1031.1843058153117 118.88000000000005 1031.3243058153118 116.06000000000006V82.01000000000005Q1031.3243058153118 78.28000000000003 1031.1843058153117 74.33000000000004Q1031.1843058153117 71.51000000000005 1030.1243058153118 69.89000000000004Q1029.074305815312 68.27000000000004 1026.254305815312 67.70000000000005L1024.274305815312 67.28000000000003V64.74000000000001L1048.9543058153117 56.56L1050.6443058153118 58.110000000000014L1050.224305815312 78.13999999999999V116.20999999999998Q1050.224305815312 119.02999999999997 1051.274305815312 120.71999999999997Q1052.3343058153118 122.40999999999997 1055.014305815312 123.25999999999999L1056.5643058153119 123.68Z "></path><rect width="56.016" height="103.96" x="345.10630581531166" y="-369.48" fill="none" rx="0" ry="0" transform="translate(202.75 399.3)"></rect><path fill="#fff" d="M583.0443058153116 113.57999999999998Q574.1243058153117 113.57999999999998 566.9443058153117 109.89999999999998T555.5843058153117 99.03999999999996Q551.3943058153117 91.85999999999996 551.3943058153117 81.55999999999995Q551.3943058153117 73.82999999999993 553.9243058153118 67.84999999999997T560.9143058153118 57.77999999999997Q565.3843058153117 53.67999999999995 571.1743058153118 51.60999999999996Q576.9743058153117 49.539999999999964 583.5043058153117 49.539999999999964Q588.5643058153117 49.539999999999964 592.9843058153117 50.68999999999994Q597.3943058153117 51.83999999999992 601.4443058153117 54.049999999999955L601.8143058153117 66.09999999999997H599.3243058153117L595.4643058153117 58.839999999999975Q594.5443058153116 57 593.4843058153117 55.51999999999998Q592.4243058153118 54.049999999999955 590.7743058153117 53.40999999999997Q588.4743058153117 52.299999999999955 585.3443058153117 52.299999999999955Q579.9143058153116 52.299999999999955 575.4543058153117 55.059999999999945T568.3243058153117 64.21999999999997Q565.6543058153118 70.60999999999996 565.6543058153118 81.64999999999998Q565.6543058153118 92.59999999999997 568.1843058153117 99.03999999999996T575.0443058153118 108.18999999999994Q579.3643058153117 110.90999999999997 584.7943058153118 110.90999999999997Q587.2743058153117 110.90999999999997 588.8443058153117 110.53999999999996Q590.4043058153118 110.16999999999996 591.9643058153117 109.52999999999997Q593.8043058153117 108.78999999999996 594.8243058153117 107.36999999999995Q595.8343058153117 105.93999999999994 596.5643058153117 104.09999999999997L600.0643058153117 95.72999999999996H602.5443058153118L602.1843058153117 108.97999999999996Q598.2243058153117 111.17999999999995 593.4443058153117 112.37999999999994Q588.6543058153118 113.57999999999993 583.0443058153118 113.57999999999993 " paint-order="stroke"></path></g><rect width="564" height="165" x="475.261940360868" y="0" id="space-saver" fill="transparent" stroke="transparent"></rect></g></svg>