<svg xmlns="http://www.w3.org/2000/svg" xml:space="preserve" width="1500" height="1500" viewBox="0 0 1500 1500" data-version="1" data-id="lg_387833ZPpXx4MXQqlr" x="0" y="0"><rect width="1500" height="1500" id="background" stroke="transparent" fill="#000000"></rect><g id="outer-wrapper" data-padding="20" transform="matrix(1.7285371154470797,0,0,1.7285371154470797,-546.4028365853098,-546.4028365853098)"><g id="inner-wrapper" transform="matrix(0.9645390070921985,0,0,0.9645390070921985,10,2.925531914893625)"><path fill="#3d3d3d" d="M575.3643058153117 692.0814411764707A82.459 82.459 0 1 0 575.3643058153117 856.9994411764708A82.459 82.459 0 1 0 575.3643058153117 692.0814411764707 "></path><rect width="377.457" height="159.33" x="184.38630581531163" y="294.8754411764707" fill="none" rx="0" ry="0" transform="translate(491.77 399.56)"></rect><path fill="#3d3d3d" d="M727.6243058153117 820.7904411764707Q713.9443058153116 820.7904411764707 702.9443058153116 815.1504411764707Q691.9543058153116 809.5104411764707 685.5343058153117 798.5204411764707Q679.1143058153116 787.5204411764707 679.1143058153116 771.7304411764708Q679.1143058153116 759.8804411764706 682.9943058153116 750.7204411764708Q686.8743058153116 741.5504411764707 693.7143058153116 735.2804411764707Q700.5543058153116 729.0004411764708 709.4343058153116 725.8304411764707T728.3243058153116 722.6604411764707Q736.0843058153116 722.6604411764707 742.8543058153116 724.4204411764707Q749.6143058153116 726.1804411764707 755.8243058153116 729.5704411764707L756.3843058153117 748.0404411764707H752.5843058153116L746.6543058153117 736.9004411764707Q745.2443058153116 734.0804411764707 743.6243058153117 731.8204411764707Q742.0043058153117 729.5704411764707 739.4643058153116 728.5804411764707Q735.9443058153116 726.8904411764707 731.1443058153117 726.8904411764707Q722.8243058153116 726.8904411764707 715.9943058153117 731.1204411764708Q709.1543058153117 735.3504411764708 705.0643058153116 745.1504411764707T700.9743058153117 771.8704411764708Q700.9743058153117 788.6504411764707 704.8543058153117 798.5204411764707Q708.7243058153117 808.3904411764707 715.3543058153117 812.5504411764707T730.3043058153116 816.7104411764708Q734.1043058153117 816.7104411764708 736.5043058153117 816.1404411764707Q738.9043058153117 815.5804411764707 741.3043058153116 814.5904411764707Q744.1243058153117 813.4604411764708 745.6743058153116 811.2804411764707Q747.2243058153117 809.0904411764707 748.3543058153117 806.2704411764707L753.7043058153117 793.4404411764708H757.5143058153117L756.9543058153117 813.7404411764708Q750.8843058153117 817.1304411764708 743.5543058153117 818.9604411764708T727.6243058153117 820.7904411764707M797.2643058153117 818.4004411764708H764.4143058153116V815.7204411764708L766.5243058153117 815.1504411764708Q771.1843058153117 813.6004411764708 771.1843058153117 808.1004411764708Q771.1843058153117 803.3104411764707 771.2543058153117 798.4504411764708Q771.3243058153117 793.5804411764708 771.3243058153117 788.7904411764707V735.2104411764708Q771.3243058153117 732.2504411764708 770.3343058153117 730.7704411764707T766.5243058153117 728.5804411764708L764.4143058153116 728.0204411764707V725.3404411764708L789.0843058153117 719.4204411764708L790.9243058153116 720.6804411764708L790.3543058153117 740.5704411764707V808.1004411764708Q790.4943058153117 810.9204411764708 791.5543058153116 812.6904411764708Q792.6143058153117 814.4504411764708 795.2943058153116 815.1504411764707L797.2643058153117 815.7204411764708ZM824.0643058153117 820.3704411764709Q816.0343058153118 820.3704411764709 810.4643058153117 815.7904411764708T804.8943058153117 802.6104411764709Q804.8943058153117 795.8404411764709 811.4443058153117 790.1304411764709Q818.0043058153117 784.4204411764708 832.1043058153117 781.7404411764708Q834.5043058153117 781.1704411764708 837.6743058153118 780.6804411764708T843.9443058153117 779.6204411764709V769.6104411764709Q843.9443058153117 760.0204411764709 841.5543058153117 756.3604411764709Q839.1543058153118 752.6904411764708 833.9343058153117 752.6904411764708H833.5143058153117Q830.2743058153117 752.6904411764708 828.3643058153117 754.7404411764708Q826.4643058153117 756.7804411764708 825.9043058153118 761.4304411764708L825.4743058153117 763.2704411764707Q825.0543058153117 768.9104411764708 822.5143058153118 771.5104411764707Q819.9743058153117 774.1204411764709 816.1743058153118 774.1204411764709Q812.6443058153118 774.1204411764709 810.3143058153117 771.9404411764708Q807.9943058153118 769.7504411764708 807.9943058153118 766.2304411764708Q807.9943058153118 760.4504411764708 811.9443058153117 756.5004411764708Q815.8843058153118 752.5504411764708 822.4443058153117 750.5804411764708Q829.0043058153118 748.6004411764708 836.6143058153118 748.6004411764708Q849.1643058153118 748.6004411764708 855.7943058153118 754.6704411764708Q862.4143058153118 760.7304411764708 862.4143058153118 774.4104411764708V805.8504411764708Q862.4143058153118 811.9104411764708 868.2043058153118 811.9104411764708H871.4443058153118L872.8543058153118 813.4604411764708Q870.3143058153119 816.7104411764708 867.2143058153118 818.4704411764708T858.7543058153119 820.2304411764708Q852.6943058153118 820.2304411764708 849.0943058153118 817.3404411764708T844.3743058153118 809.6604411764708Q839.8543058153118 814.4504411764708 835.4843058153118 817.4104411764708T824.0643058153119 820.3704411764708M832.2443058153118 811.3504411764708Q835.0643058153119 811.3504411764708 837.6043058153118 810.0804411764708T843.9443058153118 805.8504411764708V783.2904411764707Q840.2843058153118 783.8504411764708 836.4743058153118 784.7004411764708Q830.4143058153118 786.1104411764709 826.6743058153118 789.9204411764708Q822.9343058153117 793.7204411764708 822.9343058153117 800.2104411764708Q822.9343058153117 805.8504411764709 825.5443058153118 808.6004411764709T832.2443058153118 811.3504411764709M911.3443058153118 818.4004411764708H876.0943058153118V815.7204411764708L878.2143058153118 815.0104411764709Q881.0343058153118 814.3104411764709 882.0843058153118 812.6204411764709Q883.1443058153118 810.9204411764708 883.1443058153118 808.1004411764709V766.790441176471Q883.0043058153118 763.6904411764708 882.0143058153118 762.0704411764709Q881.0343058153118 760.4504411764708 878.2143058153118 759.8804411764709L876.0943058153118 759.3204411764709V756.7804411764708L899.0743058153118 748.6004411764709L900.7743058153119 750.1504411764708L902.0443058153119 762.5604411764709V763.5504411764709Q904.1543058153119 759.6004411764709 907.3943058153119 756.2204411764709Q910.6443058153119 752.8304411764709 914.4443058153118 750.7204411764709Q918.2543058153118 748.6004411764709 922.0643058153119 748.6004411764709Q927.4243058153119 748.6004411764709 930.0943058153118 751.4204411764708Q932.7743058153118 754.2404411764709 932.7743058153118 758.6104411764709Q932.7743058153118 763.4104411764708 930.0943058153118 765.8704411764709Q927.4243058153119 768.3404411764709 923.6143058153118 768.3404411764709Q917.9743058153118 768.3404411764709 913.8843058153118 763.270441176471L913.6043058153118 762.9804411764709Q912.1943058153118 761.290441176471 910.4243058153119 761.0804411764709Q908.6643058153119 760.8704411764709 906.9743058153118 762.8404411764709Q905.5643058153119 764.250441176471 904.3643058153118 766.1604411764708Q903.1643058153118 768.0604411764709 902.1843058153119 770.6004411764709V807.5404411764707Q902.1843058153119 810.2204411764708 903.3043058153119 811.9804411764708Q904.4343058153119 813.7404411764708 907.1143058153118 814.4504411764708L911.3443058153118 815.7204411764708ZM953.7743058153118 740.8504411764709Q949.1243058153118 740.8504411764709 945.8843058153118 737.8904411764709Q942.6343058153118 734.9304411764708 942.6343058153118 730.4104411764708Q942.6343058153118 725.7604411764709 945.8843058153118 722.8704411764709Q949.1243058153118 719.9804411764708 953.7743058153118 719.9804411764708Q958.4343058153117 719.9804411764708 961.6743058153118 722.8704411764709T964.9143058153118 730.4104411764708Q964.9143058153118 734.9304411764708 961.6743058153118 737.8904411764709T953.7743058153118 740.8504411764709M969.8543058153118 818.4004411764708H937.5643058153119V815.7204411764708L939.6743058153119 815.1504411764708Q942.4943058153119 814.3104411764709 943.4843058153118 812.6204411764709Q944.4743058153118 810.9204411764708 944.6143058153118 808.1004411764709V774.0504411764709Q944.6143058153118 770.3204411764709 944.4743058153118 766.3704411764709Q944.4743058153118 763.5504411764709 943.4143058153119 761.9304411764708T939.5343058153119 759.7404411764709L937.5643058153119 759.3204411764709V756.7804411764708L962.2343058153118 748.6004411764709L963.9243058153119 750.1504411764708L963.5043058153119 770.1804411764708V808.2504411764708Q963.5043058153119 811.0704411764708 964.5643058153119 812.7604411764707T968.3043058153119 815.3004411764708L969.8543058153118 815.7204411764708ZM1012.5843058153117 818.3904411764709H976.2043058153118V815.7104411764708L978.3243058153118 815.1404411764709Q983.9643058153118 813.5904411764709 984.1043058153118 808.2404411764709Q984.1043058153118 803.3004411764709 984.1743058153119 798.4404411764708Q984.2443058153119 793.5704411764709 984.2443058153119 788.7804411764708V755.0804411764709H976.204305815312V751.9804411764708L979.304305815312 751.4104411764708Q982.124305815312 750.9904411764708 983.394305815312 749.3704411764709T985.234305815312 744.7904411764708Q986.784305815312 739.1504411764708 989.384305815312 734.9904411764708Q991.994305815312 730.8304411764708 995.664305815312 727.3004411764708Q1000.884305815312 722.2304411764708 1006.804305815312 720.2504411764708Q1012.7243058153118 718.2804411764707 1018.3643058153119 718.2804411764707Q1023.8643058153119 718.2804411764707 1028.444305815312 720.4604411764708Q1033.024305815312 722.6504411764708 1033.024305815312 727.8704411764709Q1033.024305815312 731.5304411764708 1030.844305815312 733.7204411764708Q1028.654305815312 735.9004411764708 1024.5643058153119 735.9004411764708Q1018.084305815312 735.9004411764708 1013.1443058153121 728.2904411764708L1011.4543058153121 726.3104411764708Q1009.764305815312 724.2004411764708 1008.074305815312 724.6204411764709Q1006.3843058153119 725.0504411764708 1005.6743058153121 727.4404411764708Q1004.5443058153121 731.9504411764708 1003.9143058153121 738.0204411764707Q1003.2743058153121 744.0804411764708 1003.1343058153121 750.7104411764708H1019.3543058153122V755.0804411764708H1003.1343058153121V788.7804411764707Q1003.1343058153121 793.5704411764708 1003.2043058153122 798.2904411764707Q1003.2743058153122 803.0204411764707 1003.2743058153122 807.8104411764707Q1003.2743058153122 813.4504411764708 1008.9143058153121 814.7204411764708L1012.5843058153122 815.7104411764708Z "></path><path fill="#3d3d3d" d="M1040.4943058153117 740.8504411764707Q1035.8343058153118 740.8504411764707 1032.5943058153118 737.8904411764707T1029.3543058153118 730.4104411764707Q1029.3543058153118 725.7604411764707 1032.5943058153118 722.8704411764706T1040.4943058153117 719.9804411764708Q1045.1443058153118 719.9804411764708 1048.3843058153118 722.8704411764706Q1051.6343058153118 725.7604411764707 1051.6343058153118 730.4104411764707Q1051.6343058153118 734.9304411764707 1048.3843058153118 737.8904411764707Q1045.1443058153118 740.8504411764707 1040.4943058153117 740.8504411764707M1056.5643058153119 818.4004411764707H1024.274305815312V815.7204411764708L1026.3943058153118 815.1504411764707Q1029.214305815312 814.3104411764707 1030.194305815312 812.6204411764708Q1031.1843058153117 810.9204411764708 1031.3243058153118 808.1004411764708V774.0504411764707Q1031.3243058153118 770.3204411764707 1031.1843058153117 766.3704411764708Q1031.1843058153117 763.5504411764707 1030.1243058153118 761.9304411764708Q1029.074305815312 760.3104411764707 1026.254305815312 759.7404411764708L1024.274305815312 759.3204411764707V756.7804411764707L1048.9543058153117 748.6004411764707L1050.6443058153118 750.1504411764707L1050.224305815312 770.1804411764707V808.2504411764708Q1050.224305815312 811.0704411764707 1051.274305815312 812.7604411764707Q1052.3343058153118 814.4504411764707 1055.014305815312 815.3004411764707L1056.5643058153119 815.7204411764708Z "></path><rect width="56.016" height="103.96" x="345.10630581531166" y="322.5604411764707" fill="none" rx="0" ry="0" transform="translate(202.75 399.3)"></rect><path fill="#000000" d="M583.0443058153116 805.6204411764706Q574.1243058153117 805.6204411764706 566.9443058153117 801.9404411764707T555.5843058153117 791.0804411764707Q551.3943058153117 783.9004411764706 551.3943058153117 773.6004411764707Q551.3943058153117 765.8704411764706 553.9243058153118 759.8904411764706T560.9143058153118 749.8204411764707Q565.3843058153117 745.7204411764707 571.1743058153118 743.6504411764706Q576.9743058153117 741.5804411764707 583.5043058153117 741.5804411764707Q588.5643058153117 741.5804411764707 592.9843058153117 742.7304411764707Q597.3943058153117 743.8804411764706 601.4443058153117 746.0904411764707L601.8143058153117 758.1404411764706H599.3243058153117L595.4643058153117 750.8804411764706Q594.5443058153116 749.0404411764707 593.4843058153117 747.5604411764707Q592.4243058153118 746.0904411764707 590.7743058153117 745.4504411764707Q588.4743058153117 744.3404411764707 585.3443058153117 744.3404411764707Q579.9143058153116 744.3404411764707 575.4543058153117 747.1004411764707T568.3243058153117 756.2604411764707Q565.6543058153118 762.6504411764706 565.6543058153118 773.6904411764707Q565.6543058153118 784.6404411764706 568.1843058153117 791.0804411764707T575.0443058153118 800.2304411764707Q579.3643058153117 802.9504411764707 584.7943058153118 802.9504411764707Q587.2743058153117 802.9504411764707 588.8443058153117 802.5804411764707Q590.4043058153118 802.2104411764707 591.9643058153117 801.5704411764707Q593.8043058153117 800.8304411764707 594.8243058153117 799.4104411764706Q595.8343058153117 797.9804411764707 596.5643058153117 796.1404411764706L600.0643058153117 787.7704411764707H602.5443058153118L602.1843058153117 801.0204411764707Q598.2243058153117 803.2204411764707 593.4443058153117 804.4204411764706Q588.6543058153118 805.6204411764706 583.0443058153118 805.6204411764706 " paint-order="stroke"></path></g><rect width="564" height="165" x="475.261940360868" y="667.5" id="space-saver" fill="transparent" stroke="transparent"></rect></g></svg>